<svg width="40" height="40" viewBox="0 0 40 40" fill="none" xmlns="http://www.w3.org/2000/svg">
<rect width="40" height="40" rx="20" transform="matrix(-1 0 0 1 40 0)" fill="#003E63"/>
<path d="M28 19.2336C27.9376 19.2368 27.8753 19.243 27.8133 19.243C23.6197 19.2434 19.4265 19.2434 15.2329 19.2434C15.173 19.2434 15.1128 19.2434 15.0223 19.2434C16.5297 17.8243 18.0116 16.4292 19.483 15.0443C19.0987 14.6816 18.7316 14.3355 18.3758 14C16.2543 15.9969 14.1223 18.0045 12 20.0022C14.1169 21.9951 16.2464 23.9999 18.3708 26C18.717 25.6657 19.0795 25.3156 19.4512 24.9565C18.0003 23.5905 16.5164 22.1934 15.032 20.7963C15.0391 20.7833 15.0462 20.7703 15.0529 20.7574C15.1077 20.7574 15.1626 20.7574 15.2174 20.7574C19.4215 20.7574 23.6251 20.7574 27.8292 20.7577C27.8861 20.7577 27.9431 20.764 27.9996 20.7672C27.9996 20.2559 27.9996 19.7445 27.9996 19.2332L28 19.2336Z" fill="white"/>
</svg>
