<svg width="80" height="80" viewBox="0 0 80 80" fill="none" xmlns="http://www.w3.org/2000/svg">
<rect width="80" height="80" rx="40" fill="#B4E2FF"/>
<g clip-path="url(#clip0_557_1734)">
<path d="M41.254 16C41.7265 16.1437 42.274 16.1338 42.7703 16.215C51.5803 17.6463 58.3653 26.4288 55.8965 35.3988C54.6703 39.8538 51.6878 41.18 48.9715 44.3C45.7403 48.0125 47.4403 53.6825 47.0528 58.31C46.889 60.2725 45.4703 61.89 43.419 61.84C43.0278 63.1175 42.039 63.725 40.7853 63.98C40.3103 63.9375 39.749 64.0387 39.2878 63.98C38.0415 63.8213 37.2153 62.9937 36.7628 61.87C34.634 61.8462 33.179 60.4188 33.0153 58.3138C32.7703 55.1763 33.2478 51.7087 33.0228 48.5612C32.6878 43.8862 26.8728 41.5325 24.8628 37.2412C20.2828 27.4662 28.8028 16.6963 38.8203 16H41.2528H41.254ZM45.2765 51.1425V48.2837C45.2765 43.0962 53.219 40.2162 54.404 34.185C56.4253 23.905 46.1315 15.7775 36.3878 18.2013C27.174 20.4938 21.549 31.8438 28.4803 39.5238C30.6565 41.9338 34.7978 44.6975 34.7978 48.3787V51.1437H45.2778L45.2765 51.1425ZM45.2765 52.8288H34.7965V58.5925C34.7965 58.6725 34.9765 59.0875 35.0353 59.1963C35.569 60.1987 36.7978 60.1387 37.7815 60.1475C38.0803 61.815 38.6553 62.315 40.3678 62.2038C41.8365 62.1075 41.7328 61.35 42.104 60.1475C42.9328 60.125 44.2115 60.2325 44.809 59.53C44.8965 59.4263 45.2753 58.6738 45.2753 58.5913V52.8275L45.2765 52.8288Z" fill="#161616"/>
<path d="M41.2265 21.2665C41.7777 21.1428 42.669 21.2778 43.2352 21.3703C46.7102 21.939 49.8815 24.694 50.8215 28.1103C51.024 28.8465 51.594 31.0178 50.5427 31.254C49.169 31.5628 49.4327 29.8915 49.2565 29.0215C48.674 26.1528 46.0515 23.7465 43.219 23.1665C42.6465 23.049 41.3527 23.0315 40.9765 22.789C40.3877 22.4103 40.5602 21.4153 41.2265 21.2665Z" fill="#161616"/>
</g>
<defs>
<clipPath id="clip0_557_1734">
<rect width="32.8175" height="48" fill="white" transform="translate(23.5913 16)"/>
</clipPath>
</defs>
</svg>
