<svg width="100" height="100" viewBox="0 0 100 100" fill="none" xmlns="http://www.w3.org/2000/svg">
<rect width="100" height="100" rx="50" fill="#B4E2D7"/>
<g clip-path="url(#clip0_528_1147)">
<path d="M78.5094 72.6543V73.3238C78.2253 73.6763 77.9724 74.0378 77.4562 73.9991L22.1596 73.9441C21.2879 73.5112 21.2849 72.5948 22.0569 72.0444L77.6808 71.9805C78.0929 71.9864 78.255 72.4089 78.5094 72.6558V72.6543Z" fill="#003E63"/>
<path d="M69.9736 27.17C70.1759 26.9662 70.7025 26.7192 70.9911 26.6835C72.0354 26.5541 75.2947 26.5541 76.3285 26.6954C77.1601 26.8085 77.7269 27.5062 77.8295 28.3154L77.8429 68.1337C77.7313 69.056 77.1556 69.7254 76.2185 69.8533C75.2813 69.9813 71.8286 69.9917 70.9107 69.837C70.2413 69.7239 69.6582 69.1051 69.499 68.4624L69.5764 27.8319C69.7103 27.64 69.8174 27.3276 69.9751 27.17H69.9736ZM75.7261 28.8063H71.6054V38.5128H75.7261V28.8063ZM75.7261 40.6326H71.6054V67.7439H75.7261V40.6326Z" fill="#003E63"/>
<path d="M58.9936 38.5396C59.6794 38.3983 63.9056 38.4087 64.6211 38.5396C65.4423 38.6899 65.9421 39.4649 66.0269 40.2548L66.0373 68.0221C65.9406 68.9786 65.4155 69.718 64.4144 69.8548C63.4683 69.9843 60.023 69.9917 59.1067 69.8385C58.4372 69.7254 57.8541 69.1066 57.6949 68.4639L57.6875 40.0213C57.6979 39.3682 58.3777 38.6676 58.9936 38.5411V38.5396ZM63.9235 40.6341H59.6928V46.882H63.9235V40.6341ZM63.9235 49.0018H59.6928V67.7454H63.9235V49.0018Z" fill="#003E63"/>
<path d="M47.1909 46.9058C48.0492 46.7496 51.8233 46.7615 52.7233 46.8894C53.3376 46.9772 53.9237 47.4725 54.0993 48.0765L54.1246 68.3568C54.0784 69.1065 53.4239 69.7134 52.7054 69.8354C51.85 69.9812 48.1578 69.9812 47.3025 69.8354C46.6717 69.7283 46.0276 69.2017 45.9101 68.5531L45.8818 48.2714C45.9399 47.6228 46.5706 47.0188 47.1909 46.9058ZM52.1193 49.0003H47.8886V67.7439H52.1193V49.0003Z" fill="#003E63"/>
<path d="M51.6725 30.0343L30.0237 45.3267C28.8485 45.8548 27.9291 44.5889 28.7905 43.6458L50.1135 28.5274C49.8978 28.45 49.6182 28.3801 49.3891 28.3623C47.4805 28.2076 45.505 28.2879 43.5964 28.1421C42.927 28.0915 42.1237 27.8922 42.0895 27.0755C42.024 25.5344 44.2629 26.0907 45.1599 26.1279C47.5222 26.2246 50.1864 26.1963 52.5086 26.4641C53.5395 26.5831 54.1092 27.2719 54.1256 28.2998L52.5339 37.7594C52.1352 38.936 50.5479 38.7218 50.4557 37.4693L51.6711 30.0343H51.6725Z" fill="#003E63"/>
<path d="M35.2752 54.6057C36.013 54.4555 40.2408 54.4644 41.0322 54.5879C41.5796 54.6727 42.0765 55.1904 42.2669 55.6932L42.3219 68.3615C42.1523 69.2496 41.4859 69.791 40.5978 69.8699C39.4553 69.971 36.6884 70.0052 35.5921 69.855C34.5388 69.7107 34.0152 68.9357 33.9631 67.9167C34.2413 64.1992 33.6032 59.967 33.9691 56.3105C34.042 55.5816 34.5136 54.7604 35.2737 54.6057H35.2752ZM40.3166 67.7456V56.7553L40.15 56.5887H36.0859V67.7456H40.3166Z" fill="#003E63"/>
<path d="M30.0345 61.9812C30.1282 62.075 30.3915 62.5168 30.4332 62.6432C30.631 63.2531 30.6057 67.4303 30.5179 68.2484C30.4168 69.1975 29.728 69.7881 28.7968 69.8699C27.6186 69.974 25.0466 69.9964 23.8922 69.8654C22.9074 69.7539 22.2767 69.1246 22.1666 68.1354C22.0372 66.9795 22.0759 64.6366 22.1622 63.445C22.2365 62.423 22.6828 61.6153 23.7807 61.4978C24.9782 61.3698 27.5829 61.3832 28.7968 61.4933C29.1985 61.529 29.7474 61.6941 30.0345 61.9812ZM28.4011 63.6176H24.2805V67.7456H28.4011V63.6176Z" fill="#003E63"/>
</g>
<defs>
<clipPath id="clip0_528_1147">
<rect width="57.0178" height="48" fill="white" transform="translate(21.4912 26)"/>
</clipPath>
</defs>
</svg>
