<svg width="18" height="18" viewBox="0 0 18 18" fill="none" xmlns="http://www.w3.org/2000/svg">
<g clip-path="url(#clip0_556_1495)">
<path d="M2.17967 0C6.7264 0 11.2731 0 15.8199 0C15.8471 0.0093931 15.8739 0.0230131 15.9021 0.0281793C17.1607 0.24516 17.9986 1.2305 17.9991 2.50373C18.0005 6.83818 18.0009 11.1726 17.9991 15.5071C17.9986 16.9212 16.9207 17.9953 15.5057 17.9991C14.8791 18.0009 14.2522 17.9991 13.6256 17.9991C9.91207 17.9991 6.19851 18 2.48494 17.9986C1.34509 17.9981 0.385587 17.2716 0.0878255 16.1918C0.0540103 16.0692 0.0295883 15.9438 0.000469655 15.8199C0 11.2731 0 6.7264 0 2.17967C0.0117414 2.13552 0.025831 2.09184 0.0342848 2.04723C0.19021 1.22063 0.641079 0.609612 1.39863 0.246569C1.64238 0.129625 1.91854 0.080311 2.17967 0ZM9.58754 7.95408C9.58754 7.79815 9.59083 7.64223 9.5866 7.48677C9.57955 7.21625 9.45369 7.09179 9.18176 7.09038C8.66044 7.08756 8.13912 7.08803 7.61781 7.09038C7.33319 7.09179 7.20733 7.21531 7.20733 7.4957C7.20639 9.73313 7.20639 11.9706 7.20733 14.2075C7.20733 14.4959 7.33695 14.6232 7.62767 14.6241C8.10202 14.6255 8.57637 14.6241 9.05072 14.6241C9.4875 14.6241 9.57955 14.5339 9.57955 14.1033C9.57955 12.9846 9.57768 11.8658 9.58049 10.7471C9.5819 10.3179 9.67489 9.90972 9.91301 9.54574C10.2033 9.10285 10.6288 8.96618 11.1332 9.03475C11.5948 9.09722 11.9043 9.36962 12.0124 9.80781C12.1021 10.1727 12.1429 10.5569 12.1486 10.9331C12.165 12.0161 12.1523 13.1001 12.1528 14.1836C12.1528 14.5011 12.2726 14.6199 12.5872 14.6208C13.1085 14.6218 13.6299 14.6218 14.1512 14.6208C14.4649 14.6204 14.5889 14.4968 14.5889 14.1841C14.5884 12.954 14.6025 11.724 14.5772 10.4944C14.5668 9.98252 14.5128 9.46355 14.4048 8.96384C14.2057 8.03956 13.6984 7.34681 12.737 7.09273C12.4571 7.019 12.1608 6.98142 11.8705 6.97626C10.9768 6.96076 10.1704 7.16881 9.58707 7.95314L9.58754 7.95408ZM6.13745 10.8533C6.13745 9.75239 6.13839 8.65105 6.13651 7.55017C6.13604 7.22329 6.00219 7.0885 5.67907 7.08663C5.19298 7.08381 4.70688 7.08381 4.22079 7.08663C3.89391 7.0885 3.76053 7.22236 3.76053 7.54548C3.76006 9.75333 3.76006 11.9612 3.76053 14.169C3.76053 14.4889 3.89908 14.6237 4.22455 14.6246C4.68716 14.6255 5.14977 14.6246 5.61238 14.6246C6.01816 14.6246 6.13698 14.5072 6.13698 14.1037C6.13698 13.0202 6.13698 11.9368 6.13698 10.8533H6.13745ZM6.47795 4.91682C6.48641 4.08036 5.81104 3.38621 4.97834 3.37494C4.1231 3.3632 3.42144 4.04279 3.41298 4.89099C3.40453 5.7359 4.08459 6.43193 4.92574 6.43897C5.78803 6.44602 6.4695 5.7777 6.47795 4.91682Z" fill="black"/>
</g>
<defs>
<clipPath id="clip0_556_1495">
<rect width="18" height="18" fill="white"/>
</clipPath>
</defs>
</svg>
