<svg width="159" height="40" viewBox="0 0 159 40" fill="none" xmlns="http://www.w3.org/2000/svg">
<g clip-path="url(#clip0_1259_354)">
<path fill-rule="evenodd" clip-rule="evenodd" d="M9.55542 8.24525H18.2742V16.8116H9.55542V8.24525ZM0 2.33789H25.6618V28.1318H10.453V38.3342H0.132103V27.7863H10.0703L0 17.8718V2.33789Z" fill="#003E63"/>
<path d="M40.4878 14.8627C41.5582 14.8627 42.4457 14.4901 43.1536 13.7483C43.8581 13.0065 44.2104 12.0886 44.2104 10.9945C44.2104 9.9004 43.8581 8.95197 43.1536 8.22032C42.449 7.49206 41.5616 7.12624 40.4878 7.12624H35.9997V14.8627H40.4878ZM40.4878 2.41797C42.9436 2.41797 45.0132 3.24446 46.6933 4.90082C48.3733 6.5538 49.21 8.58615 49.21 10.9945C49.21 13.4028 48.37 15.4352 46.6933 17.0881C45.0132 18.7411 42.947 19.571 40.4878 19.571H35.9997V27.9646H30.9629V2.41797H40.4878Z" fill="#003E63"/>
<path d="M57.5324 2.41797H52.4956V27.9646H57.5324V2.41797Z" fill="#003E63"/>
<path d="M77.0564 2.41797H82.0898V27.9646H78.2588L67.3112 12.346V27.9646H62.2744V2.41797H66.102L77.0564 17.9824V2.41797Z" fill="#003E63"/>
<path d="M93.1494 18.6598H100.337L96.6519 8.22371L93.1494 18.6598ZM103.63 27.9646L102.007 23.3647H91.51L89.9756 27.9646H84.5391L93.4814 2.41797H99.7207L108.734 27.9646H103.63Z" fill="#003E63"/>
<path d="M131.174 27.9646H125.372L116.25 16.0008V27.9646H111.213V2.41797H116.25V13.6772L125.01 2.41797H130.812L121.358 14.8255L131.174 27.9646Z" fill="#003E63"/>
<path d="M140.628 18.6598H147.816L144.131 8.22371L140.628 18.6598ZM151.109 27.9646L149.486 23.3647H138.989L137.455 27.9646H132.018L140.96 2.41797H147.2L156.213 27.9646H151.109Z" fill="#003E63"/>
<path d="M152.89 2.60818H153.47C153.747 2.60818 153.937 2.56753 154.039 2.48624C154.14 2.40495 154.191 2.29317 154.191 2.16106C154.191 2.073 154.167 1.99509 154.116 1.92734C154.069 1.85621 154.001 1.8054 153.913 1.77153C153.825 1.73766 153.666 1.72072 153.432 1.72072H152.887V2.61157L152.89 2.60818ZM152.413 4.27471V1.31425H153.432C153.781 1.31425 154.032 1.34135 154.188 1.39555C154.343 1.44974 154.469 1.54458 154.56 1.68346C154.652 1.81895 154.699 1.9646 154.699 2.11703C154.699 2.33381 154.621 2.5235 154.465 2.6827C154.31 2.8419 154.106 2.93336 153.849 2.95368C153.954 2.99771 154.039 3.04852 154.1 3.10949C154.218 3.22466 154.364 3.42112 154.537 3.69549L154.899 4.27471H154.32L154.056 3.80727C153.849 3.43806 153.68 3.20772 153.554 3.11627C153.466 3.04852 153.341 3.01465 153.171 3.01804H152.89V4.27471H152.413ZM153.622 0.457278C153.236 0.457278 152.856 0.555509 152.491 0.755356C152.125 0.951816 151.837 1.23635 151.63 1.60556C151.424 1.97477 151.319 2.35752 151.319 2.75722C151.319 3.15691 151.42 3.53629 151.623 3.89872C151.827 4.26116 152.111 4.54569 152.477 4.74892C152.843 4.95216 153.222 5.05377 153.622 5.05377C154.022 5.05377 154.401 4.95216 154.763 4.74892C155.129 4.54569 155.414 4.26116 155.614 3.89872C155.817 3.53629 155.915 3.15353 155.915 2.75722C155.915 2.36091 155.81 1.97477 155.607 1.60556C155.4 1.23635 155.116 0.951816 154.747 0.755356C154.377 0.558896 154.001 0.457278 153.619 0.457278H153.622ZM153.622 0C154.083 0 154.537 0.118554 154.977 0.355661C155.417 0.592768 155.759 0.931493 156.007 1.37522C156.25 1.81895 156.376 2.27962 156.376 2.75722C156.376 3.23482 156.254 3.68871 156.013 4.12567C155.773 4.56262 155.434 4.90473 154.994 5.14523C154.557 5.38911 154.1 5.50766 153.622 5.50766C153.144 5.50766 152.687 5.38572 152.25 5.14523C151.813 4.90473 151.471 4.56262 151.231 4.12567C150.987 3.68871 150.865 3.23143 150.865 2.75722C150.865 2.283 150.987 1.81895 151.234 1.37522C151.481 0.93488 151.827 0.592768 152.267 0.355661C152.707 0.118554 153.158 0 153.622 0Z" fill="#003E63"/>
<path d="M34.0046 38.4045C34.6685 38.4045 35.2071 38.1844 35.6237 37.744C36.0404 37.3037 36.247 36.7278 36.247 36.0199C36.247 35.312 36.0404 34.7395 35.6237 34.2958C35.2071 33.8555 34.6685 33.6353 34.0046 33.6353H32.4736V38.4045H34.0046ZM34.0046 32.1889C35.0547 32.1889 35.932 32.5581 36.6365 33.2932C37.3411 34.0282 37.6933 34.9394 37.6933 36.0165C37.6933 37.0937 37.3411 38.0048 36.6365 38.7399C35.932 39.4749 35.0547 39.8441 34.0046 39.8441H30.9629V32.1855H34.0046V32.1889Z" fill="#003E63"/>
<path d="M40.5859 32.1895H39.0752V39.848H40.5859V32.1895Z" fill="#003E63"/>
<path d="M49.8364 35.736V36.3254C49.8364 37.4194 49.4875 38.3069 48.7863 38.9844C48.0852 39.6618 47.1808 40.0005 46.0731 40.0005C44.891 40.0005 43.9121 39.6144 43.1364 38.8455C42.3607 38.0766 41.9712 37.1383 41.9712 36.0273C41.9712 34.9163 42.3573 33.9678 43.1262 33.1955C43.8951 32.4233 44.8504 32.0371 45.9885 32.0371C46.7032 32.0371 47.3569 32.1997 47.9463 32.5249C48.5357 32.85 48.9963 33.2802 49.3249 33.8222L48.0344 34.5674C47.8515 34.2524 47.5771 33.9983 47.2079 33.8019C46.8387 33.6054 46.4288 33.5072 45.9783 33.5072C45.25 33.5072 44.6505 33.7477 44.1797 34.2253C43.7088 34.7029 43.4751 35.3058 43.4751 36.0374C43.4751 36.7691 43.7156 37.3551 44.1932 37.8259C44.6708 38.2967 45.3042 38.5305 46.0901 38.5305C46.6727 38.5305 47.1571 38.4017 47.5398 38.1409C47.9226 37.8835 48.1834 37.5278 48.3223 37.0739H46.002V35.7394H49.8432L49.8364 35.736Z" fill="#003E63"/>
<path d="M52.7295 32.1895H51.2188V39.848H52.7295V32.1895Z" fill="#003E63"/>
<path d="M59.5275 32.1895V33.6358H57.4613V39.848H55.9506V33.6358H53.8945V32.1895H59.5275Z" fill="#003E63"/>
<path d="M62.0171 37.0603H64.1714L63.0672 33.9305L62.0171 37.0603ZM65.1605 39.848L64.6727 38.4694H61.526L61.0653 39.848H59.436L62.1153 32.1895H63.9851L66.6881 39.848H65.1571H65.1605Z" fill="#003E63"/>
<path d="M69.2558 38.4051H72.1756V39.848H67.7451V32.1895H69.2558V38.4051Z" fill="#003E63"/>
<path d="M81.1413 32.1895V33.6358H79.0751V39.848H77.5644V33.6358H75.5083V32.1895H81.1413Z" fill="#003E63"/>
<path d="M83.8071 38.4051H87.0318V39.848H82.2964V32.1895H86.9776V33.6358H83.8071V35.2651H86.7066V36.6877H83.8071V38.4051Z" fill="#003E63"/>
<path d="M91.9839 40.0005C90.8322 40.0005 89.8804 39.6178 89.1284 38.8522C88.3765 38.0867 88.0005 37.1417 88.0005 36.0205C88.0005 34.8993 88.3765 33.9441 89.1284 33.182C89.8804 32.4199 90.8322 32.0371 91.9839 32.0371C92.6783 32.0371 93.3151 32.1997 93.9045 32.5249C94.4905 32.85 94.9477 33.2904 95.2763 33.8425L93.9756 34.5979C93.7859 34.2558 93.5149 33.9882 93.166 33.7951C92.8172 33.602 92.4208 33.5038 91.9839 33.5038C91.2387 33.5038 90.6392 33.7375 90.1853 34.2049C89.728 34.6724 89.501 35.2753 89.501 36.0205C89.501 36.7657 89.728 37.3585 90.1853 37.8259C90.6425 38.2934 91.2421 38.5271 91.9839 38.5271C92.4208 38.5271 92.8172 38.4288 93.1694 38.2358C93.5217 38.0427 93.7927 37.7785 93.9722 37.4432L95.2729 38.1985C94.9443 38.754 94.4905 39.191 93.9045 39.5162C93.3219 39.8413 92.6783 40.0039 91.9805 40.0039" fill="#003E63"/>
<path d="M100.872 32.1895H102.373V39.848H100.872V36.6742H98.0302V39.848H96.5195V32.1895H98.0302V35.2312H100.872V32.1895Z" fill="#003E63"/>
<path d="M108.537 32.1895H110.048V39.848H108.896L105.618 35.1668V39.848H104.107V32.1895H105.252L108.537 36.8571V32.1895Z" fill="#003E63"/>
<path d="M113.642 37.8191C114.116 38.29 114.702 38.5237 115.403 38.5237C116.105 38.5237 116.691 38.29 117.165 37.8191C117.639 37.3483 117.876 36.7488 117.876 36.0205C117.876 35.2923 117.639 34.6893 117.165 34.2151C116.691 33.7409 116.105 33.5038 115.403 33.5038C114.702 33.5038 114.116 33.7409 113.642 34.2151C113.168 34.6893 112.931 35.2923 112.931 36.0205C112.931 36.7488 113.168 37.3483 113.642 37.8191ZM118.225 38.8489C117.453 39.6178 116.511 40.0039 115.403 40.0039C114.296 40.0039 113.358 39.6178 112.585 38.8489C111.816 38.08 111.43 37.1383 111.43 36.0205C111.43 34.9027 111.816 33.9611 112.585 33.1922C113.354 32.4233 114.292 32.0371 115.403 32.0371C116.514 32.0371 117.453 32.4233 118.225 33.1922C118.997 33.9611 119.383 34.9027 119.383 36.0205C119.383 37.1383 118.997 38.08 118.225 38.8489Z" fill="#003E63"/>
<path d="M122.266 38.4051H125.189V39.848H120.759V32.1895H122.266V38.4051Z" fill="#003E63"/>
<path d="M127.743 37.8191C128.217 38.29 128.803 38.5237 129.504 38.5237C130.206 38.5237 130.792 38.29 131.266 37.8191C131.74 37.3483 131.977 36.7488 131.977 36.0205C131.977 35.2923 131.74 34.6893 131.266 34.2151C130.792 33.7409 130.206 33.5038 129.504 33.5038C128.803 33.5038 128.217 33.7409 127.743 34.2151C127.269 34.6893 127.032 35.2923 127.032 36.0205C127.032 36.7488 127.269 37.3483 127.743 37.8191ZM132.326 38.8489C131.554 39.6178 130.612 40.0039 129.504 40.0039C128.397 40.0039 127.459 39.6178 126.686 38.8489C125.917 38.08 125.531 37.1383 125.531 36.0205C125.531 34.9027 125.917 33.9611 126.686 33.1922C127.455 32.4233 128.393 32.0371 129.504 32.0371C130.616 32.0371 131.554 32.4233 132.326 33.1922C133.098 33.9611 133.485 34.9027 133.485 36.0205C133.485 37.1383 133.098 38.08 132.326 38.8489Z" fill="#003E63"/>
<path d="M142.376 35.736V36.3254C142.376 37.4194 142.027 38.3069 141.326 38.9844C140.625 39.6618 139.72 40.0005 138.613 40.0005C137.431 40.0005 136.452 39.6144 135.676 38.8455C134.9 38.0766 134.511 37.1383 134.511 36.0273C134.511 34.9163 134.897 33.9678 135.666 33.1955C136.435 32.4233 137.39 32.0371 138.528 32.0371C139.243 32.0371 139.896 32.1997 140.486 32.5249C141.075 32.85 141.536 33.2802 141.864 33.8222L140.574 34.5674C140.391 34.2524 140.117 33.9983 139.747 33.8019C139.378 33.6054 138.968 33.5072 138.518 33.5072C137.79 33.5072 137.19 33.7477 136.719 34.2253C136.248 34.7029 136.015 35.3058 136.015 36.0374C136.015 36.7691 136.255 37.3551 136.733 37.8259C137.21 38.2967 137.844 38.5305 138.63 38.5305C139.212 38.5305 139.697 38.4017 140.079 38.1409C140.462 37.8835 140.723 37.5278 140.862 37.0739H138.542V35.7394H142.383L142.376 35.736Z" fill="#003E63"/>
<path d="M145.272 32.1895H143.762V39.848H145.272V32.1895Z" fill="#003E63"/>
<path d="M148.514 38.4051H151.742V39.848H147.003V32.1895H151.687V33.6358H148.514V35.2651H151.413V36.6877H148.514V38.4051Z" fill="#003E63"/>
<path d="M155.729 39.9991C154.97 39.9991 154.333 39.8297 153.815 39.491C153.297 39.1523 152.931 38.6916 152.721 38.1056L154.011 37.3503C154.309 38.1293 154.899 38.5223 155.773 38.5223C156.196 38.5223 156.504 38.4443 156.701 38.2919C156.897 38.1395 156.995 37.9464 156.995 37.7127C156.995 37.4417 156.873 37.2317 156.633 37.0827C156.392 36.9336 155.962 36.771 155.342 36.5949C155 36.4933 154.709 36.3917 154.472 36.2901C154.235 36.1884 153.998 36.053 153.761 35.8802C153.523 35.7075 153.344 35.4907 153.219 35.2299C153.093 34.969 153.032 34.6608 153.032 34.3119C153.032 33.6175 153.28 33.0654 153.771 32.6555C154.262 32.2423 154.855 32.0391 155.549 32.0391C156.169 32.0391 156.714 32.1915 157.185 32.493C157.656 32.7944 158.022 33.2178 158.286 33.7564L157.016 34.488C156.711 33.8309 156.22 33.5024 155.549 33.5024C155.234 33.5024 154.99 33.5735 154.811 33.7158C154.631 33.858 154.543 34.0409 154.543 34.2679C154.543 34.5084 154.645 34.7048 154.845 34.8539C155.044 35.0029 155.43 35.1655 156 35.3416C156.233 35.4161 156.409 35.4703 156.531 35.511C156.653 35.5516 156.816 35.6126 157.023 35.6973C157.229 35.782 157.392 35.8599 157.503 35.931C157.615 36.0055 157.747 36.1038 157.893 36.2257C158.039 36.351 158.15 36.4764 158.228 36.6085C158.306 36.7406 158.371 36.8998 158.425 37.0827C158.479 37.269 158.506 37.4722 158.506 37.689C158.506 38.3969 158.249 38.9592 157.734 39.3725C157.219 39.7891 156.552 39.9957 155.725 39.9957" fill="#003E63"/>
</g>
<defs>
<clipPath id="clip0_1259_354">
<rect width="158.506" height="40" fill="white"/>
</clipPath>
</defs>
</svg>
