<svg width="103" height="26" viewBox="0 0 103 26" fill="none" xmlns="http://www.w3.org/2000/svg">
<g clip-path="url(#clip0_365_308)">
<path fill-rule="evenodd" clip-rule="evenodd" d="M6.20927 5.35823H11.8749V10.9248H6.20927V5.35823ZM0 1.51953H16.6755V18.2808H6.79256V24.9105H0.0858425V18.0563H6.54384L0 11.6137V1.51953Z" fill="white"/>
<path d="M26.3096 9.65907C27.0051 9.65907 27.5818 9.41695 28.0418 8.93491C28.4997 8.45287 28.7286 7.85638 28.7286 7.14542C28.7286 6.43447 28.4997 5.81817 28.0418 5.34273C27.584 4.8695 27.0073 4.63178 26.3096 4.63178H23.3931V9.65907H26.3096ZM26.3096 1.57227C27.9054 1.57227 29.2502 2.10933 30.342 3.18566C31.4337 4.2598 31.9774 5.58045 31.9774 7.14542C31.9774 8.7104 31.4315 10.0311 30.342 11.1052C29.2502 12.1793 27.9076 12.7186 26.3096 12.7186H23.3931V18.1729H20.1201V1.57227H26.3096Z" fill="white"/>
<path d="M37.3853 1.57227H34.1123V18.1729H37.3853V1.57227Z" fill="white"/>
<path d="M50.0724 1.57227H53.3432V18.1729H50.8537L43.7398 8.02366V18.1729H40.4668V1.57227H42.954L50.0724 11.6863V1.57227Z" fill="white"/>
<path d="M60.5297 12.1265H65.2005L62.8057 5.34493L60.5297 12.1265ZM67.3399 18.1729L66.2856 15.1838H59.4644L58.4673 18.1729H54.9346L60.7454 1.57227H64.7999L70.657 18.1729H67.3399Z" fill="white"/>
<path d="M85.2396 18.1729H81.4691L75.5416 10.3986V18.1729H72.2686V1.57227H75.5416V8.88869L81.2336 1.57227H85.0041L78.8608 9.63486L85.2396 18.1729Z" fill="white"/>
<path d="M91.3828 12.1265H96.0535L93.6587 5.34493L91.3828 12.1265ZM98.1929 18.1729L97.1386 15.1838H90.3174L89.3203 18.1729H85.7876L91.5985 1.57227H95.6529L101.51 18.1729H98.1929Z" fill="white"/>
<path d="M99.3504 1.69484H99.7268C99.9073 1.69484 100.031 1.66843 100.097 1.6156C100.163 1.56277 100.196 1.49014 100.196 1.4043C100.196 1.34707 100.18 1.29644 100.147 1.25242C100.116 1.2062 100.072 1.17318 100.015 1.15117C99.9579 1.12916 99.8545 1.11815 99.7026 1.11815H99.3482V1.69704L99.3504 1.69484ZM99.0401 2.77778V0.854023H99.7026C99.9293 0.854023 100.092 0.871632 100.193 0.906849C100.295 0.942066 100.376 1.0037 100.436 1.09394C100.495 1.18199 100.526 1.27663 100.526 1.37568C100.526 1.51655 100.475 1.63981 100.374 1.74326C100.273 1.84671 100.141 1.90614 99.9733 1.91935C100.042 1.94796 100.097 1.98098 100.136 2.0206C100.213 2.09544 100.308 2.2231 100.42 2.40139L100.656 2.77778H100.279L100.108 2.47403C99.9733 2.23411 99.8633 2.08443 99.7818 2.025C99.7246 1.98098 99.6432 1.95897 99.5331 1.96117H99.3504V2.77778H99.0401ZM99.8259 0.297147C99.5749 0.297147 99.3284 0.360979 99.0907 0.490843C98.853 0.618506 98.6659 0.803398 98.5316 1.04332C98.3974 1.28324 98.3291 1.53196 98.3291 1.79169C98.3291 2.05142 98.3952 2.29794 98.5272 2.53345C98.6593 2.76897 98.8442 2.95386 99.0819 3.08593C99.3196 3.21799 99.5661 3.28403 99.8259 3.28403C100.086 3.28403 100.332 3.21799 100.568 3.08593C100.805 2.95386 100.99 2.76897 101.12 2.53345C101.252 2.29794 101.316 2.04921 101.316 1.79169C101.316 1.53416 101.248 1.28324 101.116 1.04332C100.981 0.803398 100.797 0.618506 100.557 0.490843C100.317 0.36318 100.072 0.297147 99.8237 0.297147H99.8259ZM99.8259 0C100.125 0 100.42 0.0770381 100.706 0.231114C100.992 0.385191 101.215 0.6053 101.375 0.893642C101.534 1.18199 101.615 1.48133 101.615 1.79169C101.615 2.10204 101.536 2.39699 101.38 2.68093C101.224 2.96487 101.003 3.18718 100.717 3.34346C100.433 3.50193 100.136 3.57897 99.8259 3.57897C99.5155 3.57897 99.2184 3.49973 98.9344 3.34346C98.6505 3.18718 98.4282 2.96487 98.2719 2.68093C98.1134 2.39699 98.0342 2.09984 98.0342 1.79169C98.0342 1.48353 98.1134 1.18199 98.2741 0.893642C98.4348 0.607501 98.6593 0.385191 98.9454 0.231114C99.2316 0.0770381 99.5243 0 99.8259 0Z" fill="white"/>
<path d="M22.0967 24.9553C22.5281 24.9553 22.8781 24.8122 23.1488 24.5261C23.4195 24.2399 23.5538 23.8657 23.5538 23.4057C23.5538 22.9457 23.4195 22.5737 23.1488 22.2853C22.8781 21.9992 22.5281 21.8561 22.0967 21.8561H21.1018V24.9553H22.0967ZM22.0967 20.9163C22.779 20.9163 23.3491 21.1562 23.8069 21.6338C24.2648 22.1115 24.4937 22.7035 24.4937 23.4035C24.4937 24.1034 24.2648 24.6955 23.8069 25.1732C23.3491 25.6508 22.779 25.8907 22.0967 25.8907H20.1201V20.9141H22.0967V20.9163Z" fill="white"/>
<path d="M26.3733 20.916H25.3916V25.8927H26.3733V20.916Z" fill="white"/>
<path d="M32.3849 23.2219V23.6049C32.3849 24.3159 32.1581 24.8926 31.7025 25.3328C31.2469 25.773 30.6592 25.9931 29.9394 25.9931C29.1713 25.9931 28.5351 25.7422 28.0311 25.2425C27.527 24.7429 27.2739 24.1332 27.2739 23.4112C27.2739 22.6893 27.5248 22.073 28.0245 21.5711C28.5241 21.0693 29.1449 20.8184 29.8844 20.8184C30.3488 20.8184 30.7737 20.924 31.1566 21.1353C31.5396 21.3466 31.839 21.6262 32.0525 21.9783L31.2139 22.4626C31.095 22.2579 30.9167 22.0928 30.6768 21.9651C30.4369 21.8375 30.1706 21.7736 29.8778 21.7736C29.4046 21.7736 29.015 21.9299 28.709 22.2403C28.4031 22.5506 28.2512 22.9424 28.2512 23.4178C28.2512 23.8933 28.4075 24.2741 28.7178 24.58C29.0282 24.886 29.4398 25.0378 29.9505 25.0378C30.329 25.0378 30.6438 24.9542 30.8925 24.7847C31.1412 24.6174 31.3107 24.3863 31.401 24.0914H29.8932V23.2242H32.3893L32.3849 23.2219Z" fill="white"/>
<path d="M34.2644 20.916H33.2827V25.8927H34.2644V20.916Z" fill="white"/>
<path d="M38.6819 20.916V21.8559H37.3392V25.8927H36.3575V21.8559H35.0215V20.916H38.6819Z" fill="white"/>
<path d="M40.2998 24.0812H41.6997L40.9821 22.0474L40.2998 24.0812ZM42.3424 25.8927L42.0254 24.9968H39.9806L39.6813 25.8927H38.6226L40.3636 20.916H41.5786L43.3351 25.8927H42.3402H42.3424Z" fill="white"/>
<path d="M45.0037 24.955H46.901V25.8927H44.022V20.916H45.0037V24.955Z" fill="white"/>
<path d="M52.7273 20.916V21.8559H51.3846V25.8927H50.403V21.8559H49.0669V20.916H52.7273Z" fill="white"/>
<path d="M54.4592 24.955H56.5547V25.8927H53.4775V20.916H56.5194V21.8559H54.4592V22.9146H56.3434V23.8391H54.4592V24.955Z" fill="white"/>
<path d="M59.7726 25.9931C59.0242 25.9931 58.4057 25.7444 57.917 25.247C57.4284 24.7495 57.1841 24.1354 57.1841 23.4068C57.1841 22.6783 57.4284 22.0576 57.917 21.5623C58.4057 21.0671 59.0242 20.8184 59.7726 20.8184C60.2238 20.8184 60.6376 20.924 61.0206 21.1353C61.4014 21.3466 61.6985 21.6328 61.912 21.9915L61.0668 22.4824C60.9435 22.2601 60.7675 22.0862 60.5407 21.9607C60.314 21.8353 60.0565 21.7714 59.7726 21.7714C59.2883 21.7714 58.8987 21.9233 58.6038 22.2271C58.3066 22.5308 58.1592 22.9226 58.1592 23.4068C58.1592 23.8911 58.3066 24.2763 58.6038 24.58C58.9009 24.8838 59.2905 25.0356 59.7726 25.0356C60.0565 25.0356 60.314 24.9718 60.5429 24.8464C60.7719 24.7209 60.9479 24.5492 61.0646 24.3313L61.9098 24.8221C61.6963 25.1831 61.4014 25.4671 61.0206 25.6784C60.642 25.8897 60.2238 25.9953 59.7704 25.9953" fill="white"/>
<path d="M65.5486 20.916H66.5237V25.8927H65.5486V23.8303H63.7019V25.8927H62.7202V20.916H63.7019V22.8926H65.5486V20.916Z" fill="white"/>
<path d="M70.5294 20.916H71.5111V25.8927H70.7627L68.6321 22.8508V25.8927H67.6504V20.916H68.3944L70.5294 23.9491V20.916Z" fill="white"/>
<path d="M73.8465 24.5756C74.1546 24.8816 74.5354 25.0334 74.9911 25.0334C75.4467 25.0334 75.8275 24.8816 76.1356 24.5756C76.4438 24.2697 76.5979 23.8801 76.5979 23.4068C76.5979 22.9336 76.4438 22.5418 76.1356 22.2337C75.8275 21.9255 75.4467 21.7714 74.9911 21.7714C74.5354 21.7714 74.1546 21.9255 73.8465 22.2337C73.5383 22.5418 73.3843 22.9336 73.3843 23.4068C73.3843 23.8801 73.5383 24.2697 73.8465 24.5756ZM76.8246 25.2448C76.3227 25.7444 75.7108 25.9953 74.9911 25.9953C74.2713 25.9953 73.6616 25.7444 73.1598 25.2448C72.6601 24.7451 72.4092 24.1332 72.4092 23.4068C72.4092 22.6805 72.6601 22.0686 73.1598 21.5689C73.6594 21.0693 74.2691 20.8184 74.9911 20.8184C75.713 20.8184 76.3227 21.0693 76.8246 21.5689C77.3264 22.0686 77.5773 22.6805 77.5773 23.4068C77.5773 24.1332 77.3264 24.7451 76.8246 25.2448Z" fill="white"/>
<path d="M79.4507 24.955H81.3502V25.8927H78.4712V20.916H79.4507V24.955Z" fill="white"/>
<path d="M83.0096 24.5756C83.3177 24.8816 83.6985 25.0334 84.1541 25.0334C84.6098 25.0334 84.9906 24.8816 85.2987 24.5756C85.6069 24.2697 85.7609 23.8801 85.7609 23.4068C85.7609 22.9336 85.6069 22.5418 85.2987 22.2337C84.9906 21.9255 84.6098 21.7714 84.1541 21.7714C83.6985 21.7714 83.3177 21.9255 83.0096 22.2337C82.7014 22.5418 82.5473 22.9336 82.5473 23.4068C82.5473 23.8801 82.7014 24.2697 83.0096 24.5756ZM85.9877 25.2448C85.4858 25.7444 84.8739 25.9953 84.1541 25.9953C83.4344 25.9953 82.8247 25.7444 82.3228 25.2448C81.8232 24.7451 81.5723 24.1332 81.5723 23.4068C81.5723 22.6805 81.8232 22.0686 82.3228 21.5689C82.8225 21.0693 83.4322 20.8184 84.1541 20.8184C84.8761 20.8184 85.4858 21.0693 85.9877 21.5689C86.4895 22.0686 86.7404 22.6805 86.7404 23.4068C86.7404 24.1332 86.4895 24.7451 85.9877 25.2448Z" fill="white"/>
<path d="M92.5186 23.2219V23.6049C92.5186 24.3159 92.2919 24.8926 91.8363 25.3328C91.3807 25.773 90.793 25.9931 90.0732 25.9931C89.3051 25.9931 88.6689 25.7422 88.1649 25.2425C87.6608 24.7429 87.4077 24.1332 87.4077 23.4112C87.4077 22.6893 87.6586 22.073 88.1583 21.5711C88.6579 21.0693 89.2786 20.8184 90.0182 20.8184C90.4826 20.8184 90.9075 20.924 91.2904 21.1353C91.6734 21.3466 91.9728 21.6262 92.1863 21.9783L91.3477 22.4626C91.2288 22.2579 91.0505 22.0928 90.8106 21.9651C90.5707 21.8375 90.3044 21.7736 90.0116 21.7736C89.5384 21.7736 89.1488 21.9299 88.8428 22.2403C88.5369 22.5506 88.385 22.9424 88.385 23.4178C88.385 23.8933 88.5413 24.2741 88.8516 24.58C89.162 24.886 89.5736 25.0378 90.0842 25.0378C90.4628 25.0378 90.7776 24.9542 91.0263 24.7847C91.275 24.6174 91.4445 24.3863 91.5348 24.0914H90.027V23.2242H92.5231L92.5186 23.2219Z" fill="white"/>
<path d="M94.4001 20.916H93.4185V25.8927H94.4001V20.916Z" fill="white"/>
<path d="M96.5066 24.955H98.6042V25.8927H95.5249V20.916H98.569V21.8559H96.5066V22.9146H98.3907V23.8391H96.5066V24.955Z" fill="white"/>
<path d="M101.195 25.9929C100.702 25.9929 100.288 25.8828 99.9517 25.6627C99.6149 25.4426 99.3772 25.1433 99.2407 24.7625L100.079 24.2716C100.273 24.7779 100.656 25.0332 101.224 25.0332C101.499 25.0332 101.699 24.9826 101.827 24.8835C101.955 24.7845 102.018 24.659 102.018 24.5071C102.018 24.3311 101.939 24.1946 101.783 24.0977C101.627 24.0009 101.347 23.8952 100.944 23.7808C100.722 23.7147 100.533 23.6487 100.379 23.5827C100.225 23.5166 100.071 23.4286 99.9165 23.3163C99.7624 23.2041 99.6457 23.0632 99.5643 22.8937C99.4828 22.7243 99.4432 22.524 99.4432 22.2972C99.4432 21.846 99.6039 21.4872 99.9231 21.2209C100.242 20.9524 100.627 20.8203 101.079 20.8203C101.481 20.8203 101.836 20.9194 102.142 21.1153C102.448 21.3112 102.685 21.5863 102.857 21.9363L102.032 22.4117C101.834 21.9847 101.514 21.7712 101.079 21.7712C100.874 21.7712 100.715 21.8174 100.599 21.9099C100.482 22.0023 100.425 22.1212 100.425 22.2686C100.425 22.4249 100.491 22.5526 100.621 22.6494C100.751 22.7463 101.002 22.8519 101.371 22.9664C101.523 23.0148 101.638 23.05 101.717 23.0764C101.796 23.1028 101.902 23.1425 102.036 23.1975C102.17 23.2525 102.276 23.3031 102.349 23.3494C102.421 23.3978 102.507 23.4616 102.602 23.5409C102.696 23.6223 102.769 23.7037 102.82 23.7896C102.87 23.8754 102.912 23.9789 102.947 24.0977C102.983 24.2188 103 24.3509 103 24.4917C103 24.9518 102.833 25.3171 102.498 25.5857C102.164 25.8564 101.73 25.9907 101.193 25.9907" fill="white"/>
</g>
<defs>
<clipPath id="clip0_365_308">
<rect width="103" height="25.9927" fill="white"/>
</clipPath>
</defs>
</svg>
