<svg width="100" height="100" viewBox="0 0 100 100" fill="none" xmlns="http://www.w3.org/2000/svg">
<rect width="100" height="100" rx="50" fill="#B4E2EB"/>
<g clip-path="url(#clip0_528_1145)">
<path d="M20.4473 41.5741C20.7997 40.7029 21.2538 40.3858 22.2297 40.5428C23.2055 40.6998 25.0772 42.2683 26.2701 42.6192C26.4609 42.6746 26.641 42.7562 26.8488 42.7331L69.0352 28.4016C68.7767 26.9778 69.4462 24.9923 70.9223 26.5961V73.4048C69.4554 75.0025 68.7767 73.0369 69.0352 71.5993L51.2174 65.581C50.1923 68.5779 49.5289 72.3304 45.4408 71.9333C44.0386 71.7963 38.559 69.8538 37.0722 69.2197C36.3287 68.9026 35.6884 68.5178 35.1759 67.8837C33.1241 65.3548 34.9327 62.7843 35.6854 60.16L26.9535 57.2801C24.9864 57.14 21.7617 61.3621 20.4473 58.4268V41.5726L20.4473 41.5741ZM69.0476 30.4918L63.1555 32.5297L63.1524 67.3788L69.0476 69.5106V30.4918ZM61.1976 33.147L27.4045 44.6633C25.5543 44.9619 23.9997 43.5566 22.4097 42.8439V57.1585C23.9982 56.4459 25.5528 55.0406 27.4045 55.3392L61.1976 66.8555V33.147ZM37.5339 60.8511C36.9829 63.1275 34.7234 66.0489 37.8495 67.4034C40.2075 68.4255 43.0612 68.9596 45.4685 69.9431C46.2812 70.1001 47.137 69.8369 47.6911 69.2197C48.0836 68.7826 49.098 65.9181 49.2565 65.2378C49.2857 65.1146 49.3596 65.0084 49.2596 64.8853L37.5339 60.8495V60.8511Z" fill="#003E63"/>
<path d="M79.5525 49.6553V50.348C79.2847 50.7466 78.9292 50.9652 78.4459 51.0299C77.4438 51.1653 74.6302 51.1545 73.6066 51.0406C72.0028 50.8621 72.0043 49.1397 73.6066 48.9612C74.6286 48.8473 77.4438 48.8365 78.4459 48.9719C78.9292 49.0381 79.2847 49.2552 79.5525 49.6538V49.6553Z" fill="#003E63"/>
<path d="M73.2432 37.456L76.8942 35.2765C77.9147 34.9286 78.6642 36.1323 77.9424 36.9034L74.2714 39.1199C73.1832 39.4139 72.5536 38.2825 73.2432 37.456Z" fill="#003E63"/>
<path d="M73.2437 62.5431C72.5095 61.7843 73.2252 60.556 74.2719 60.8792L77.9429 63.0957C78.6648 63.8668 77.9136 65.0705 76.8947 64.7226L73.2437 62.5431Z" fill="#003E63"/>
<path d="M41.4943 44.308C40.971 43.8293 41.1727 42.9905 41.8037 42.6703C43.7323 41.6929 46.5583 41.2404 48.587 40.3307C49.8491 40.1075 50.3309 41.6329 49.1934 42.2101C47.2864 43.1798 44.4096 43.6061 42.4086 44.5527C42.1408 44.6266 41.6944 44.4896 41.4943 44.308Z" fill="#003E63"/>
</g>
<defs>
<clipPath id="clip0_528_1145">
<rect width="59.1053" height="48" fill="white" transform="translate(20.4473 26)"/>
</clipPath>
</defs>
</svg>
