<svg width="80" height="80" viewBox="0 0 80 80" fill="none" xmlns="http://www.w3.org/2000/svg">
<rect width="80" height="80" rx="40" fill="#B4E2FF"/>
<g clip-path="url(#clip0_557_1728)">
<path d="M59.0058 55.1016V55.5479C58.8164 55.7829 58.6478 56.0239 58.3036 55.9981L21.4392 55.9614C20.8581 55.6728 20.8561 55.0619 21.3708 54.695L58.4534 54.6523C58.7281 54.6563 58.8362 54.938 59.0058 55.1026V55.1016Z" fill="#161616"/>
<path d="M53.3154 24.7806C53.4503 24.6448 53.8013 24.4801 53.9937 24.4563C54.6899 24.37 56.8628 24.37 57.552 24.4643C58.1064 24.5396 58.4843 25.0048 58.5527 25.5443L58.5616 52.0898C58.4872 52.7046 58.1034 53.1509 57.4786 53.2362C56.8539 53.3215 54.5521 53.3284 53.9402 53.2253C53.4939 53.1499 53.1051 52.7374 52.999 52.3089L53.0506 25.2219C53.1398 25.094 53.2113 24.8857 53.3164 24.7806H53.3154ZM57.1504 25.8715H54.4033V32.3425H57.1504V25.8715ZM57.1504 33.7557H54.4033V51.8299H57.1504V33.7557Z" fill="#161616"/>
<path d="M45.9957 32.3591C46.4529 32.2649 49.2704 32.2718 49.7474 32.3591C50.2949 32.4593 50.6281 32.976 50.6846 33.5026L50.6916 52.0141C50.6271 52.6518 50.277 53.1447 49.6096 53.2359C48.9788 53.3222 46.682 53.3271 46.0711 53.225C45.6248 53.1496 45.2361 52.7371 45.13 52.3086L45.125 33.3469C45.1319 32.9115 45.5852 32.4444 45.9957 32.3601V32.3591ZM49.2823 33.7554H46.4618V37.9207H49.2823V33.7554ZM49.2823 39.3339H46.4618V51.8296H49.2823V39.3339Z" fill="#161616"/>
<path d="M38.1271 37.9378C38.6993 37.8337 41.2153 37.8416 41.8153 37.9269C42.2249 37.9854 42.6157 38.3157 42.7327 38.7183L42.7495 52.2385C42.7188 52.7383 42.2824 53.143 41.8034 53.2243C41.2332 53.3215 38.7717 53.3215 38.2015 53.2243C37.781 53.1529 37.3516 52.8018 37.2732 52.3694L37.2544 38.8482C37.2931 38.4158 37.7136 38.0132 38.1271 37.9378ZM41.4127 39.3342H38.5922V51.8299H41.4127V39.3342Z" fill="#161616"/>
<path d="M41.115 26.6895L26.6824 36.8845C25.899 37.2365 25.2861 36.3926 25.8603 35.7638L40.0757 25.6849C39.9319 25.6334 39.7455 25.5867 39.5927 25.5748C38.3203 25.4717 37.0033 25.5253 35.731 25.4281C35.2847 25.3944 34.7491 25.2615 34.7263 24.717C34.6827 23.6896 36.1752 24.0605 36.7733 24.0853C38.3481 24.1497 40.1243 24.1309 41.6724 24.3094C42.3596 24.3887 42.7395 24.8479 42.7504 25.5332L41.6892 31.8396C41.4235 32.624 40.3653 32.4812 40.3038 31.6462L41.114 26.6895H41.115Z" fill="#161616"/>
<path d="M30.1833 43.0705C30.6752 42.9703 33.4937 42.9763 34.0213 43.0586C34.3862 43.1151 34.7175 43.4602 34.8444 43.7954L34.8811 52.241C34.768 52.833 34.3238 53.194 33.7317 53.2466C32.9701 53.314 31.1254 53.3368 30.3945 53.2367C29.6924 53.1405 29.3433 52.6238 29.3086 51.9444C29.4941 49.4661 29.0686 46.6447 29.3126 44.207C29.3612 43.7211 29.6755 43.1736 30.1823 43.0705H30.1833ZM33.5443 51.8304V44.5035L33.4332 44.3925H30.7238V51.8304H33.5443Z" fill="#161616"/>
<path d="M26.6897 47.9868C26.7521 48.0493 26.9277 48.3439 26.9554 48.4282C27.0873 48.8348 27.0705 51.6195 27.012 52.165C26.9445 52.7977 26.4854 53.1914 25.8645 53.246C25.0791 53.3154 23.3644 53.3303 22.5948 53.243C21.9383 53.1686 21.5178 52.7491 21.4444 52.0896C21.3581 51.319 21.3839 49.7571 21.4414 48.9627C21.491 48.2814 21.7885 47.7429 22.5204 47.6645C23.3188 47.5792 25.0553 47.5882 25.8645 47.6616C26.1323 47.6854 26.4983 47.7954 26.6897 47.9868ZM25.6007 49.0777H22.8537V51.8298H25.6007V49.0777Z" fill="#161616"/>
</g>
<defs>
<clipPath id="clip0_557_1728">
<rect width="38.0118" height="32" fill="white" transform="translate(20.9941 24)"/>
</clipPath>
</defs>
</svg>
