<svg width="100" height="100" viewBox="0 0 100 100" fill="none" xmlns="http://www.w3.org/2000/svg">
<rect width="100" height="100" rx="50" fill="#B4E2FF"/>
<g clip-path="url(#clip0_527_1144)">
<path d="M68.82 22C69.03 22.2027 69.275 22.2523 69.4777 22.4915C70.2025 23.3475 70.1354 26.986 70.3571 28.284C70.4212 28.6587 70.6852 28.9373 71.0687 28.9942C71.9802 29.1312 73.0754 29.1123 74.0146 29.2202C75.6391 29.4069 78.0469 29.401 77.1164 31.7737L66.5596 42.3263C64.3721 43.8254 60.7714 42.7696 58.2587 43.1035C58.1392 43.1196 58.0239 43.1196 57.9306 43.2129L53.8458 47.4523C54.1127 48.0852 54.5837 48.6729 54.8696 49.3481C58.2835 57.4287 48.1569 64.3165 41.9108 58.3694C35.2958 52.0694 42.815 41.0808 51.32 45.4602C51.651 45.6308 52.1556 46.1733 52.4692 45.9633L56.4373 41.8377C56.3687 41.5315 56.2535 41.3142 56.236 40.9817C56.1485 39.3717 56.0377 35.3715 56.4577 33.9758C56.6808 33.2335 57.0542 32.6969 57.55 32.115C60.315 28.8746 64.0527 25.9856 66.9008 22.7627L68.0514 22H68.8171H68.82ZM58.2106 34.9617V39.9375L68.5808 29.2946C68.241 27.8975 68.155 26.3488 68.0544 24.8963C68.0427 24.7344 68.1389 24.5798 67.8925 24.625L59.0302 33.4815C58.7298 33.8475 58.2835 34.4979 58.2106 34.9587V34.9617ZM60.07 41.1406H64.2817C64.531 41.1406 65.3098 40.7206 65.5416 40.5413L74.7262 31.3508L70.0742 30.7908C67.7379 33.1023 65.4177 35.4415 63.1296 37.801C62.3114 38.644 60.891 39.9521 60.2333 40.811C60.1487 40.9219 60.0219 40.9496 60.07 41.1406ZM50.8825 47.4858C46.4404 44.7252 40.9381 48.0823 41.4894 53.3221C41.711 55.4221 43.3575 57.4069 45.3058 58.1462C50.9116 60.2754 55.8525 53.831 52.3569 49.0156L47.9279 53.4431C47.0456 53.7596 46.261 53.0727 46.5323 52.1554C46.7 51.5881 49.6064 49.0112 50.2291 48.3069C50.4596 48.0473 50.655 47.7483 50.8825 47.4858Z" fill="black"/>
<path d="M45.9601 77.9992C30.7643 76.9069 19.942 62.78 23.2859 47.7227C26.1764 34.7027 39.0009 26.3727 52.1084 28.8125C53.5551 29.0823 54.9522 29.5504 56.3507 29.985C55.9876 30.195 55.2161 31.4623 55.0368 31.5746C54.8661 31.681 52.6582 30.9854 52.2149 30.8921C39.9839 28.34 27.798 36.1319 25.2139 48.3381C21.6803 65.0244 36.7959 79.5144 53.313 75.2342C66.7866 71.7415 74.0695 56.6156 68.2741 43.8771L69.9132 42.4537C73.3724 50.0021 73.0705 58.6587 68.8399 65.8235C64.7361 72.774 57.1164 77.5237 49.0241 78.0006H45.9616L45.9601 77.9992Z" fill="black"/>
<path d="M53.8358 36.985V39.1725C43.241 34.2565 31.2987 42.8912 32.8503 54.5258C34.6397 67.9542 52.4839 71.9894 59.8558 60.559C62.8103 55.9769 62.9708 50.3565 60.5091 45.5162H62.6412C67.1226 54.73 61.8449 65.914 52.0858 68.6483C39.8139 72.0885 28.331 61.2327 31.1397 48.796C33.4118 38.7321 44.2414 33.1335 53.8358 36.985Z" fill="black"/>
</g>
<defs>
<clipPath id="clip0_527_1144">
<rect width="54.6467" height="56" fill="white" transform="translate(22.6768 22)"/>
</clipPath>
</defs>
</svg>
