<svg width="23" height="18" viewBox="0 0 23 18" fill="none" xmlns="http://www.w3.org/2000/svg">
<g clip-path="url(#clip0_556_1492)">
<path d="M0 15.9719C2.47775 16.1947 4.66665 15.598 6.65719 14.1055C4.58481 13.9185 3.20449 12.8736 2.42735 10.9384C3.11616 11.0153 3.75673 11.0354 4.44554 10.8457C3.35894 10.5785 2.50051 10.048 1.83989 9.21555C1.18143 8.3853 0.855724 7.43744 0.854098 6.34164C1.48654 6.65922 2.12278 6.86732 2.82676 6.88358C0.837298 5.20573 0.376648 3.20977 1.48221 0.811684C3.95996 3.72895 7.05985 5.3255 10.8263 5.57913C10.8101 5.1277 10.7705 4.69794 10.783 4.27035C10.8377 2.40282 12.2663 0.628508 14.078 0.168401C15.7553 -0.257564 17.2283 0.125046 18.4888 1.31081C18.5826 1.39915 18.6606 1.42353 18.7923 1.39427C19.7277 1.18671 20.6094 0.844742 21.4955 0.332609C21.1405 1.40673 20.5027 2.18496 19.6269 2.79464C20.4767 2.7204 21.276 2.47002 22.1057 2.13619C21.5259 2.9892 20.8799 3.70239 20.0962 4.28173C19.8979 4.42805 19.8458 4.58196 19.8513 4.8215C19.8946 6.90634 19.4329 8.88388 18.5295 10.7568C17.4445 13.0053 15.8696 14.8257 13.7387 16.1448C12.2218 17.084 10.57 17.6433 8.80273 17.8768C7.25116 18.0822 5.70988 18.0329 4.17998 17.7056C2.72271 17.3934 1.36352 16.8352 0.0986331 16.0462C0.0807491 16.0353 0.0650328 16.0212 0 15.9719Z" fill="black"/>
</g>
<defs>
<clipPath id="clip0_556_1492">
<rect width="22.1057" height="18" fill="white"/>
</clipPath>
</defs>
</svg>
