<svg width="1122" height="908" viewBox="0 0 1122 908" fill="none" xmlns="http://www.w3.org/2000/svg">
<circle opacity="0.2" cx="483" cy="454" r="454" fill="url(#paint0_linear_1342_1020)"/>
<circle cx="721.5" cy="584.5" r="202.5" fill="url(#paint1_linear_1342_1020)"/>
<circle cx="721.75" cy="584" r="15" fill="black"/>
<circle cx="721.75" cy="584" r="31" stroke="black" stroke-width="2"/>
<circle cx="721.75" cy="584" r="44" stroke="black" stroke-width="2"/>
<circle cx="721.75" cy="584" r="56" stroke="black" stroke-width="2"/>
<circle cx="721.75" cy="584" r="69" stroke="black" stroke-width="2"/>
<path d="M721.75 668.5V605.5" stroke="black" stroke-width="2"/>
<path d="M721.75 564V501" stroke="black" stroke-width="2"/>
<path d="M638 584L701 584" stroke="black" stroke-width="2"/>
<path d="M742.5 584L805.5 584" stroke="black" stroke-width="2"/>
<path fill-rule="evenodd" clip-rule="evenodd" d="M942.495 201.808H1039.67V297.238H942.495V201.808ZM836 136H1122V423.345H952.499V537H837.472V419.496H948.233L836 309.048V136Z" fill="#003E63"/>
<circle cx="202.5" cy="231.5" r="202.5" fill="url(#paint2_linear_1342_1020)"/>
<path d="M213 204.5L231.5 152" stroke="black" stroke-width="2" stroke-linecap="round"/>
<path d="M245 158.5L218 205.5" stroke="black" stroke-width="2" stroke-linecap="round"/>
<path d="M257 167L223 207" stroke="black" stroke-width="2" stroke-linecap="round"/>
<path d="M267 177.5L229.5 209.5" stroke="black" stroke-width="2" stroke-linecap="round"/>
<path d="M275.5 189.5L235.5 212.5" stroke="black" stroke-width="2" stroke-linecap="round"/>
<path d="M282 202L243 217" stroke="black" stroke-width="2" stroke-linecap="round"/>
<path d="M285.5 217L250 223" stroke="black" stroke-width="2" stroke-linecap="round"/>
<path d="M287 231.5H257" stroke="black" stroke-width="2" stroke-linecap="round"/>
<path d="M193 204.5L174.5 152" stroke="black" stroke-width="2" stroke-linecap="round"/>
<path d="M161 158.5L188 205.5" stroke="black" stroke-width="2" stroke-linecap="round"/>
<path d="M149 167L183 207" stroke="black" stroke-width="2" stroke-linecap="round"/>
<path d="M139 177.5L176.5 209.5" stroke="black" stroke-width="2" stroke-linecap="round"/>
<path d="M130.5 189.5L170.5 212.5" stroke="black" stroke-width="2" stroke-linecap="round"/>
<path d="M124 202L163 217" stroke="black" stroke-width="2" stroke-linecap="round"/>
<path d="M120.5 217L156 223" stroke="black" stroke-width="2" stroke-linecap="round"/>
<path d="M119 231.5H149" stroke="black" stroke-width="2" stroke-linecap="round"/>
<path d="M202.5 147V203" stroke="black" stroke-width="2" stroke-linecap="round"/>
<path d="M208 203.5L217.5 148" stroke="black" stroke-width="2" stroke-linecap="round"/>
<path d="M197.5 203.5L188 148" stroke="black" stroke-width="2" stroke-linecap="round"/>
<path d="M213 258L231.5 310.5" stroke="black" stroke-width="2" stroke-linecap="round"/>
<path d="M245 304L218 257" stroke="black" stroke-width="2" stroke-linecap="round"/>
<path d="M257 295.5L223 255.5" stroke="black" stroke-width="2" stroke-linecap="round"/>
<path d="M267 285L229.5 253" stroke="black" stroke-width="2" stroke-linecap="round"/>
<path d="M275.5 273L235.5 250" stroke="black" stroke-width="2" stroke-linecap="round"/>
<path d="M282 260.5L243 245.5" stroke="black" stroke-width="2" stroke-linecap="round"/>
<path d="M285.5 245.5L250 239.5" stroke="black" stroke-width="2" stroke-linecap="round"/>
<path d="M193 258L174.5 310.5" stroke="black" stroke-width="2" stroke-linecap="round"/>
<path d="M161 304L188 257" stroke="black" stroke-width="2" stroke-linecap="round"/>
<path d="M149 295.5L183 255.5" stroke="black" stroke-width="2" stroke-linecap="round"/>
<path d="M139 285L176.5 253" stroke="black" stroke-width="2" stroke-linecap="round"/>
<path d="M130.5 273L170.5 250" stroke="black" stroke-width="2" stroke-linecap="round"/>
<path d="M124 260.5L163 245.5" stroke="black" stroke-width="2" stroke-linecap="round"/>
<path d="M120.5 245.5L156 239.5" stroke="black" stroke-width="2" stroke-linecap="round"/>
<path d="M202.5 315.5V259.5" stroke="black" stroke-width="2" stroke-linecap="round"/>
<path d="M208 259L217.5 314.5" stroke="black" stroke-width="2" stroke-linecap="round"/>
<path d="M197.5 259L188 314.5" stroke="black" stroke-width="2" stroke-linecap="round"/>
<circle cx="203" cy="230.5" r="15" fill="black"/>
<path d="M203 447C322.846 447 420 350.294 420 231C420 111.706 322.846 15 203 15" stroke="#B4E2EB" stroke-width="8"/>
<path d="M420 231H449.5" stroke="#B4E2EB" stroke-width="8"/>
<path d="M721.5 801C601.654 801 504.5 704.294 504.5 585C504.5 465.706 601.654 369 721.5 369" stroke="#B4E2EB" stroke-width="8"/>
<path d="M504.5 585H475" stroke="#B4E2EB" stroke-width="8"/>
<defs>
<linearGradient id="paint0_linear_1342_1020" x1="92.6378" y1="-2.34091e-05" x2="873.362" y2="908" gradientUnits="userSpaceOnUse">
<stop stop-color="#ADE1FF"/>
<stop offset="1" stop-color="#D6F0FF"/>
</linearGradient>
<linearGradient id="paint1_linear_1342_1020" x1="547.385" y1="382" x2="895.615" y2="787" gradientUnits="userSpaceOnUse">
<stop stop-color="#ADE1FF"/>
<stop offset="1" stop-color="#D6F0FF"/>
</linearGradient>
<linearGradient id="paint2_linear_1342_1020" x1="28.3847" y1="29" x2="376.615" y2="434" gradientUnits="userSpaceOnUse">
<stop stop-color="#ADE1FF"/>
<stop offset="1" stop-color="#D6F0FF"/>
</linearGradient>
</defs>
</svg>
