<svg width="80" height="80" viewBox="0 0 80 80" fill="none" xmlns="http://www.w3.org/2000/svg">
<rect width="80" height="80" rx="40" fill="#B4E2FF"/>
<g clip-path="url(#clip0_557_1740)">
<path d="M40.209 14C40.4071 14.1506 40.8196 14.5062 40.8196 14.7613V34.7213C41.1657 34.4526 41.4873 34.1269 41.7885 33.808C42.5729 32.9748 44.1239 30.8891 44.9408 30.3531C45.8459 29.7588 46.8379 30.767 46.2598 31.6694C44.55 33.4145 43.0288 35.3591 41.3312 37.111C40.3691 38.1043 39.9878 38.8574 38.7814 37.6185C36.9142 35.6997 35.1786 33.5285 33.3507 31.5609C32.8256 30.501 34.188 29.6475 34.9723 30.5513L38.8859 34.8217V14.863C38.8859 14.5224 39.3188 14.1533 39.5983 14H40.209Z" fill="#161616"/>
<path d="M37.1209 18.7093C37.5253 19.1123 37.452 19.9577 36.9132 20.2034C36.1601 20.5467 34.5277 20.6919 33.5954 20.9592C22.065 24.2716 15.4443 36.3842 18.5613 47.9485C18.735 48.5917 19.5749 50.6095 19.5559 51.0234C19.5152 51.9475 18.2532 52.2189 17.762 51.3871C16.7931 49.7451 15.9966 45.4421 15.8866 43.507C15.2407 32.1205 23.0014 21.4681 34.1409 18.8627C34.8506 18.6971 36.5998 18.1882 37.1209 18.7093Z" fill="#161616"/>
<path d="M43.0288 18.492C43.5092 18.3835 44.778 18.6833 45.3181 18.8055C56.8444 21.4082 64.8194 32.5722 63.7176 44.321C63.5669 45.925 62.7921 49.8956 61.9738 51.2146C61.4283 52.0952 60.2477 51.7506 60.1894 50.7396C65.369 37.8414 58.3127 24.0367 44.892 20.6537C44.0561 20.4434 42.2879 20.5153 42.3395 19.3361C42.3544 18.9765 42.6774 18.5721 43.0288 18.492Z" fill="#161616"/>
<path d="M57.2776 55.7698C58.2546 55.4767 58.9209 56.4116 58.3713 57.2679C57.9208 57.9708 56.4498 59.3685 55.7822 59.9656C47.0838 67.7385 33.8789 68.018 24.7939 60.7228C23.9634 60.0565 21.8492 58.1825 21.3837 57.3208C20.8871 56.3994 21.5981 55.5866 22.5765 55.9272C24.0448 57.4796 25.4832 58.9764 27.2514 60.199C35.6593 66.0137 46.9983 65.2647 54.607 58.4878C55.048 58.0957 57.0645 55.8322 57.2762 55.7698H57.2776Z" fill="#161616"/>
<path d="M53.1021 42.2711C53.5242 42.7325 53.3776 43.5155 52.7995 43.7842C51.0843 44.2619 49.1981 44.3555 47.4842 44.7762C47.3498 44.8087 47.225 44.7707 47.1314 44.9309L63.7097 55.301C64.737 55.9809 64.0219 57.4478 62.8304 56.9905L46.2629 46.6081L46.1516 46.8211L47.6321 52.1351C47.5181 53.0674 46.4257 53.3388 45.8612 52.5965L43.614 44.7843C43.4648 43.8561 43.6154 43.6363 44.4825 43.407C46.3484 42.9116 50.0774 42.1992 51.9772 42.05C52.349 42.0215 52.8253 41.9685 53.1021 42.2711Z" fill="#161616"/>
<path d="M34.2047 46.4041L17.1812 56.9886C16.2734 57.4066 15.4022 56.3657 15.9884 55.595L32.883 44.929C32.9277 44.6888 32.7758 44.8055 32.6333 44.7757C31.1474 44.4568 29.4063 44.3333 27.9774 43.9357C27.3953 43.7742 27.0262 43.5937 27.0764 42.9003C27.1225 42.2625 27.6463 42.0033 28.2393 42.0454C30.0971 42.1784 33.1327 42.8827 35.0406 43.2857C35.8846 43.4648 36.7613 43.401 36.6825 44.5558L34.4625 52.3965C33.9767 53.3139 32.5668 52.9095 32.6862 51.8497L34.206 46.4013L34.2047 46.4041Z" fill="#161616"/>
</g>
<defs>
<clipPath id="clip0_557_1740">
<rect width="48.4067" height="52" fill="white" transform="translate(15.7969 14)"/>
</clipPath>
</defs>
</svg>
