<svg width="40" height="40" viewBox="0 0 40 40" fill="none" xmlns="http://www.w3.org/2000/svg">
<rect width="40" height="40" rx="20" fill="#003E63"/>
<path d="M12 19.2336C12.0624 19.2368 12.1247 19.243 12.1867 19.243C16.3803 19.2434 20.5735 19.2434 24.7671 19.2434C24.827 19.2434 24.8872 19.2434 24.9777 19.2434C23.4703 17.8243 21.9884 16.4292 20.517 15.0443C20.9013 14.6816 21.2684 14.3355 21.6242 14C23.7457 15.9969 25.8777 18.0045 28 20.0022C25.8831 21.9951 23.7536 23.9999 21.6292 26C21.283 25.6657 20.9205 25.3156 20.5488 24.9565C21.9997 23.5905 23.4836 22.1934 24.968 20.7963C24.9609 20.7833 24.9538 20.7703 24.9471 20.7574C24.8923 20.7574 24.8374 20.7574 24.7826 20.7574C20.5785 20.7574 16.3749 20.7574 12.1708 20.7577C12.1139 20.7577 12.0569 20.764 12.0004 20.7672C12.0004 20.2559 12.0004 19.7445 12.0004 19.2332L12 19.2336Z" fill="white"/>
</svg>
