<svg width="30" height="30" viewBox="0 0 30 30" fill="none" xmlns="http://www.w3.org/2000/svg">
<path d="M15.0209 0H14.9526C6.68968 0 -0.00878906 6.70044 -0.00878906 14.9658V15.0342C-0.00878906 23.2996 6.68968 30 14.9526 30H15.0209C23.2839 30 29.9824 23.2996 29.9824 15.0342V14.9658C29.9824 6.70044 23.2839 0 15.0209 0Z" fill="white"/>
<path d="M19.627 6.10352H10.3469C7.7831 6.10352 5.69739 8.18984 5.69739 10.7544V19.2468C5.69739 21.8114 7.7831 23.8977 10.3469 23.8977H19.627C22.1908 23.8977 24.2765 21.8114 24.2765 19.2468V10.7544C24.2765 8.18984 22.1908 6.10352 19.627 6.10352ZM7.33759 10.7544C7.33759 9.09479 8.68778 7.7442 10.3469 7.7442H19.627C21.2861 7.7442 22.6363 9.09479 22.6363 10.7544V19.2468C22.6363 20.9064 21.2861 22.257 19.627 22.257H10.3469C8.68778 22.257 7.33759 20.9064 7.33759 19.2468V10.7544Z" fill="#242221"/>
<path d="M14.9869 19.3251C17.3711 19.3251 19.3118 17.3848 19.3118 14.999C19.3118 12.6131 17.3721 10.6729 14.9869 10.6729C12.6018 10.6729 10.6621 12.6131 10.6621 14.999C10.6621 17.3848 12.6018 19.3251 14.9869 19.3251ZM14.9869 12.3146C16.4674 12.3146 17.6716 13.5191 17.6716 15C17.6716 16.4809 16.4674 17.6854 14.9869 17.6854C13.5065 17.6854 12.3023 16.4809 12.3023 15C12.3023 13.5191 13.5065 12.3146 14.9869 12.3146Z" fill="#242221"/>
<path d="M19.7119 11.3722C20.3539 11.3722 20.8772 10.8499 20.8772 10.2066C20.8772 9.56339 20.3549 9.04102 19.7119 9.04102C19.0688 9.04102 18.5466 9.56339 18.5466 10.2066C18.5466 10.8499 19.0688 11.3722 19.7119 11.3722Z" fill="#242221"/>
</svg>
