<svg width="31" height="30" viewBox="0 0 31 30" fill="none" xmlns="http://www.w3.org/2000/svg">
<path d="M30.9647 15.0005C30.9647 22.5765 25.3506 28.8396 18.0574 29.856C17.3755 29.9506 16.6778 30 15.9696 30C15.1521 30 14.3494 29.9348 13.5676 29.8087C6.42787 28.6589 0.974548 22.4661 0.974548 15.0005C0.974548 6.71618 7.68875 0 15.9707 0C24.2526 0 30.9668 6.71618 30.9668 15.0005H30.9647Z" fill="white"/>
<path d="M14.0989 17.8121V12.1891L18.8905 15.0009L14.0989 17.8121ZM24.7567 10.419C24.5403 9.59861 23.9291 8.96424 23.1522 8.73974L23.1357 8.73596C21.1839 8.47994 18.9266 8.33364 16.6356 8.33364C16.4027 8.33364 16.1704 8.3349 15.9388 8.33805L15.9742 8.33742C15.7774 8.3349 15.5457 8.33301 15.3128 8.33301C13.0219 8.33301 10.7633 8.47931 8.54627 8.76244L8.81155 8.7347C8.01875 8.9636 7.4075 9.59735 7.1954 10.4014L7.19173 10.4178C6.94723 11.7477 6.80786 13.2781 6.80786 14.842C6.80786 14.8975 6.80786 14.953 6.80847 15.0079V14.999C6.80847 15.0457 6.80786 15.1012 6.80786 15.1567C6.80786 16.7206 6.94784 18.2504 7.21496 19.7342L7.19173 19.5803C7.40811 20.4007 8.01937 21.0351 8.79627 21.2596L8.81277 21.2634C10.7645 21.5194 13.0219 21.6657 15.3128 21.6657C15.5451 21.6657 15.7774 21.6644 16.0097 21.6613L15.9742 21.6619C16.171 21.6644 16.4033 21.6663 16.6356 21.6663C18.9272 21.6663 21.1852 21.52 23.4022 21.2369L23.1369 21.2647C23.9303 21.0364 24.5416 20.402 24.7543 19.598L24.7579 19.5816C25.0018 18.2517 25.1412 16.7212 25.1412 15.158C25.1412 15.1025 25.1412 15.047 25.1406 14.9921V15.0003C25.1406 14.9536 25.1412 14.8981 25.1412 14.8427C25.1412 13.2788 25.0012 11.7489 24.7341 10.2652L24.7567 10.419Z" fill="#242221"/>
</svg>
