<svg width="30" height="30" viewBox="0 0 30 30" fill="none" xmlns="http://www.w3.org/2000/svg">
<path d="M15.0297 0H14.9614C6.69848 0 0 6.70044 0 14.9658V15.0342C0 23.2996 6.69848 30 14.9614 30H15.0297C23.2927 30 29.9912 23.2996 29.9912 15.0342V14.9658C29.9912 6.70044 23.2927 0 15.0297 0Z" fill="white"/>
<path d="M8.49757 10.7706C8.16526 10.4621 8 10.0802 8 9.62579C8 9.17138 8.16614 8.77267 8.49757 8.46325C8.82988 8.15471 9.25764 8 9.78174 8C10.3058 8 10.7168 8.15471 11.0482 8.46325C11.3805 8.77178 11.5458 9.15989 11.5458 9.62579C11.5458 10.0917 11.3797 10.4621 11.0482 10.7706C10.7159 11.0792 10.2943 11.2339 9.78174 11.2339C9.26913 11.2339 8.82988 11.0792 8.49757 10.7706ZM11.2665 12.5405V22H8.27839V12.5405H11.2665Z" fill="#242221"/>
<path d="M21.213 13.4749C21.8644 14.1822 22.1896 15.1529 22.1896 16.3888V21.8329H19.3517V16.7725C19.3517 16.1492 19.19 15.6648 18.8674 15.32C18.5448 14.9752 18.11 14.8019 17.5656 14.8019C17.0212 14.8019 16.5863 14.9743 16.2637 15.32C15.9411 15.6648 15.7794 16.1492 15.7794 16.7725V21.8329H12.9247V12.514H15.7794V13.7499C16.0684 13.3379 16.4582 13.0126 16.9478 12.773C17.4374 12.5334 17.988 12.4141 18.6005 12.4141C19.6911 12.4141 20.5625 12.7677 21.213 13.4741V13.4749Z" fill="#242221"/>
</svg>
