<svg width="31" height="30" viewBox="0 0 31 30" fill="none" xmlns="http://www.w3.org/2000/svg">
<path d="M30.9725 15.0004C30.9725 22.5763 25.3584 28.8395 18.0652 29.8558C17.3833 29.9504 16.6856 29.9998 15.9774 29.9998C15.1599 29.9998 14.3572 29.9347 13.5754 29.8085C6.43568 28.6587 0.982361 22.466 0.982361 15.0004C0.982361 6.71614 7.69657 0 15.9785 0C24.2604 0 30.9746 6.71614 30.9746 15.0004H30.9725Z" fill="white"/>
<path d="M18.0657 12.0449V15.3126H22.1068L21.4669 19.7143H18.0657V29.8558C17.3838 29.9504 16.6861 29.9998 15.9779 29.9998C15.1604 29.9998 14.3576 29.9346 13.5759 29.8085V19.7143H9.84894V15.3126H13.5759V11.3144C13.5759 8.83396 15.586 6.82227 18.0667 6.82227V6.82437C18.0741 6.82437 18.0804 6.82227 18.0878 6.82227H22.1079V10.6291H19.481C18.7003 10.6291 18.0667 11.2629 18.0667 12.0438L18.0657 12.0449Z" fill="#242221"/>
</svg>
