<svg width="20" height="20" viewBox="0 0 20 20" fill="none" xmlns="http://www.w3.org/2000/svg">
<path d="M2.04617 0C7.27162 0 12.4976 0 17.723 0C17.7525 0.0112525 17.7815 0.0273973 17.8125 0.032779C18.9746 0.235813 19.7677 1.18053 19.7687 2.38504C19.7716 7.46137 19.7716 12.5372 19.7643 17.6136C19.7643 17.8821 19.7208 18.162 19.6367 18.4164C19.3131 19.3973 18.4388 19.9996 17.3724 19.9996C12.3805 20.0005 7.38817 19.9996 2.39631 19.9996C2.34504 19.9996 2.2933 19.9996 2.24204 19.9971C1.51178 19.9599 0.922252 19.6488 0.470556 19.0676C0.209404 18.7319 0.0870506 18.3381 0 17.9291C0 12.6424 0 7.35618 0 2.06948C0.0116067 2.03327 0.0285318 1.99756 0.0348188 1.95989C0.143148 1.31458 0.469587 0.808711 0.988505 0.425148C1.30431 0.191781 1.6704 0.0836597 2.04617 0ZM13.0557 18.4374C13.133 18.4374 13.1954 18.4374 13.2583 18.4374C14.6163 18.4374 15.9738 18.4374 17.3318 18.4374C17.9223 18.4374 18.225 18.1326 18.225 17.5387C18.225 12.5128 18.225 7.4873 18.225 2.46136C18.225 1.86742 17.9218 1.56263 17.3318 1.56263C12.3704 1.56263 7.40849 1.56263 2.44709 1.56263C1.84402 1.56263 1.54418 1.864 1.54418 2.47163C1.54418 7.49073 1.54418 12.5103 1.54418 17.5294C1.54418 18.1365 1.84402 18.4374 2.44757 18.4379C5.1118 18.4379 7.77604 18.4379 10.4403 18.4379H10.6429V12.0646H8.35299V9.63995H10.6637C10.6637 9.01372 10.6444 8.40756 10.6676 7.80335C10.7222 6.36499 11.6474 5.10667 12.9705 4.60275C13.8884 4.25344 14.8373 4.42222 15.7808 4.3689V6.79699C15.2614 6.79699 14.7541 6.79209 14.2468 6.79796C13.5359 6.80628 13.0629 7.28427 13.0523 8.00149C13.0465 8.39875 13.0513 8.79552 13.0513 9.19278C13.0513 9.34004 13.0513 9.48779 13.0513 9.65512H15.8306C15.6972 10.4707 15.5675 11.2637 15.435 12.0768H13.0561V18.4374H13.0557Z" fill="#ffffff"/>
</svg>
