<svg width="283" height="285" viewBox="0 0 283 285" fill="none" xmlns="http://www.w3.org/2000/svg">
<path d="M4.74979 128.684C4.74978 204.561 65.9775 266.073 141.506 266.073C217.034 266.073 278.262 204.561 278.262 128.684" stroke="#B4E2EB" stroke-width="8"/>
<path d="M141.506 266.072L141.506 284.75" stroke="#B4E2EB" stroke-width="8"/>
<ellipse cx="141.5" cy="128" rx="128" ry="128.5" transform="rotate(90 141.5 128)" fill="url(#paint0_linear_1342_1023)"/>
<path d="M147.991 109.755L160.782 73.457" stroke="black" stroke-width="2" stroke-linecap="round"/>
<path d="M170.116 77.9512L151.448 110.447" stroke="black" stroke-width="2" stroke-linecap="round"/>
<path d="M178.413 83.8281L154.905 111.484" stroke="black" stroke-width="2" stroke-linecap="round"/>
<path d="M185.326 91.0879L159.399 113.212" stroke="black" stroke-width="2" stroke-linecap="round"/>
<path d="M191.203 99.3828L163.547 115.285" stroke="black" stroke-width="2" stroke-linecap="round"/>
<path d="M195.697 108.025L168.732 118.396" stroke="black" stroke-width="2" stroke-linecap="round"/>
<path d="M198.117 118.398L173.572 122.547" stroke="black" stroke-width="2" stroke-linecap="round"/>
<path d="M199.154 128.422H178.413" stroke="black" stroke-width="2" stroke-linecap="round"/>
<path d="M134.163 109.755L121.372 73.457" stroke="black" stroke-width="2" stroke-linecap="round"/>
<path d="M112.039 77.9512L130.706 110.447" stroke="black" stroke-width="2" stroke-linecap="round"/>
<path d="M103.742 83.8281L127.249 111.484" stroke="black" stroke-width="2" stroke-linecap="round"/>
<path d="M96.8282 91.0879L122.755 113.212" stroke="black" stroke-width="2" stroke-linecap="round"/>
<path d="M90.9513 99.3828L118.607 115.285" stroke="black" stroke-width="2" stroke-linecap="round"/>
<path d="M86.4572 108.025L113.421 118.396" stroke="black" stroke-width="2" stroke-linecap="round"/>
<path d="M84.0372 118.398L108.582 122.547" stroke="black" stroke-width="2" stroke-linecap="round"/>
<path d="M83 128.422H103.742" stroke="black" stroke-width="2" stroke-linecap="round"/>
<path d="M140.731 70V108.718" stroke="black" stroke-width="2" stroke-linecap="round"/>
<path d="M144.534 109.064L151.102 70.6914" stroke="black" stroke-width="2" stroke-linecap="round"/>
<path d="M137.274 109.064L130.706 70.6914" stroke="black" stroke-width="2" stroke-linecap="round"/>
<path d="M147.991 146.745L160.781 183.043" stroke="black" stroke-width="2" stroke-linecap="round"/>
<path d="M170.115 178.549L151.448 146.053" stroke="black" stroke-width="2" stroke-linecap="round"/>
<path d="M178.412 172.672L154.905 145.016" stroke="black" stroke-width="2" stroke-linecap="round"/>
<path d="M185.327 165.412L159.399 143.288" stroke="black" stroke-width="2" stroke-linecap="round"/>
<path d="M191.203 157.117L163.547 141.215" stroke="black" stroke-width="2" stroke-linecap="round"/>
<path d="M195.697 148.475L168.733 138.104" stroke="black" stroke-width="2" stroke-linecap="round"/>
<path d="M198.117 138.102L173.572 133.953" stroke="black" stroke-width="2" stroke-linecap="round"/>
<path d="M134.164 146.745L121.373 183.043" stroke="black" stroke-width="2" stroke-linecap="round"/>
<path d="M112.039 178.549L130.707 146.053" stroke="black" stroke-width="2" stroke-linecap="round"/>
<path d="M103.742 172.672L127.25 145.016" stroke="black" stroke-width="2" stroke-linecap="round"/>
<path d="M96.8282 165.412L122.755 143.288" stroke="black" stroke-width="2" stroke-linecap="round"/>
<path d="M90.9513 157.117L118.607 141.215" stroke="black" stroke-width="2" stroke-linecap="round"/>
<path d="M86.4572 148.475L113.421 138.104" stroke="black" stroke-width="2" stroke-linecap="round"/>
<path d="M84.0377 138.102L108.582 133.953" stroke="black" stroke-width="2" stroke-linecap="round"/>
<path d="M140.731 186.5V147.782" stroke="black" stroke-width="2" stroke-linecap="round"/>
<path d="M144.534 147.436L151.102 185.809" stroke="black" stroke-width="2" stroke-linecap="round"/>
<path d="M137.274 147.436L130.706 185.809" stroke="black" stroke-width="2" stroke-linecap="round"/>
<circle cx="141.077" cy="127.732" r="10.3709" fill="black"/>
<defs>
<linearGradient id="paint0_linear_1342_1023" x1="31.4419" y1="-0.500014" x2="252.545" y2="255.648" gradientUnits="userSpaceOnUse">
<stop stop-color="#ADE1FF"/>
<stop offset="1" stop-color="#D6F0FF"/>
</linearGradient>
</defs>
</svg>
