<svg width="80" height="80" viewBox="0 0 80 80" fill="none" xmlns="http://www.w3.org/2000/svg">
<rect width="80" height="80" rx="40" fill="#B4E2FF"/>
<g clip-path="url(#clip0_557_1722)">
<path d="M67.2833 30.622C67.2463 31.0294 67.3346 31.5065 67.2833 31.9011C67.2064 32.498 66.7805 33.2729 66.4286 33.7643L58.9717 41.9762C59.8434 42.8337 60.7408 43.5488 60.8761 44.8664C61.0741 46.788 59.3634 48.815 57.476 49.0685C58.1255 51.5627 55.3949 54.2564 52.8936 53.5456C52.6941 55.2193 50.9292 56.9372 49.2171 56.9657C47.6715 56.9913 46.8482 56.1053 45.8055 55.1466C44.7828 57.4642 42.3284 58.9257 40.0037 57.3232L37.0509 54.6196C35.7133 55.6922 34.8373 57.5283 32.9072 57.7021C31.1537 57.8602 29.4372 56.5654 28.9087 54.9315C26.6439 56.2606 23.9545 54.8546 23.2551 52.4829C20.2182 53.6125 16.8693 50.2323 18.4647 47.2566C16.1329 46.5758 14.5603 43.9163 16.0303 41.6742L18.6755 38.8837L13.6116 34.5705C12.4607 33.2743 12.4108 31.612 13.4094 30.206C14.8609 28.1634 17.2155 26.2817 18.7268 24.2219C22.2324 20.8617 24.9773 24.7376 28.3247 24.7675C30.6152 24.7874 32.7063 22.9043 35.041 22.7334C36.85 22.6009 38.3186 23.2547 39.8542 24.098C41.5564 22.8402 43.629 22.5682 45.6104 23.3516C48.0262 24.306 50.2441 26.5124 53.0032 25.2404C55.8208 23.9427 58.6597 20.1737 61.8875 23.061C63.2464 25.0624 65.3119 27.0167 66.5796 29.0294C66.8958 29.5323 67.0696 30.0736 67.2819 30.6191L67.2833 30.622ZM58.7267 23.9299C56.2823 25.0424 54.0673 27.5238 51.2412 27.5409C48.0789 27.5594 45.2087 24.0496 42.2344 24.9185C41.431 25.1535 37.2033 28.132 36.4284 28.8129C35.3828 29.7303 35.6307 30.7587 36.5822 31.639C38.085 33.0293 39.6248 31.1989 41.0251 30.6376C42.6603 29.981 44.2571 30.2245 45.7243 31.1319C47.4607 32.2059 49.6031 33.8398 51.2383 35.1061C53.4918 36.8511 55.5273 38.841 57.6384 40.7512L64.9401 32.7031C65.554 31.8313 65.5939 30.9596 65.0298 30.055C64.1951 28.7161 61.8248 25.6991 60.7308 24.5453C60.1326 23.9157 59.6013 23.8117 58.7281 23.9313L58.7267 23.9299ZM38.1819 25.2931C36.8586 24.588 35.4797 24.3986 34.031 24.8174C31.242 25.6222 30.252 27.0765 26.8604 26.4355C23.9873 25.8928 22.3349 23.2362 19.6328 25.9825C18.2425 27.3956 16.3964 29.4539 15.1614 30.9994C14.2626 32.1248 14.3737 32.6988 15.3694 33.6632C16.7611 35.0121 18.5317 36.1517 19.9006 37.5519C21.1526 36.1873 22.409 34.9238 24.436 35.4694C25.8205 35.8426 27.4159 37.5319 27.3091 39.0461C29.9116 38.8695 32.0924 41.5147 31.3602 44.0559C33.1864 44.2881 34.1963 46.1285 34.5681 47.778C37.1677 47.7566 39.4852 50.6155 38.2317 53.1211C38.9824 53.6823 40.8598 55.9685 41.6518 56.0982C42.5421 56.2449 43.374 55.7221 43.8156 54.9686C44.2571 54.215 44.0506 53.6282 43.5549 53.0228L40.3157 50.0799L41.555 48.7552C41.6319 48.7423 42.6148 49.6212 42.7672 49.7594C44.3996 51.2308 46.3026 53.3974 47.9977 54.6566C49.8994 56.0683 52.1016 53.433 50.4976 51.8362L44.1987 46.0857C44.1218 45.912 45.156 44.8308 45.3241 44.7439C45.4067 44.7012 45.4551 44.6727 45.5349 44.7439L53.0274 51.6496C54.4633 52.3661 56.4005 50.369 55.4974 48.966L47.5505 41.5517L47.4949 41.3851L48.6245 40.1601L48.8723 40.2313L55.7667 46.6698C57.4902 48.3606 60.1297 45.6997 58.3819 43.9462C55.6983 41.2555 52.3295 38.2556 49.2997 35.9722C48.2171 35.156 45.146 32.7501 44.0834 32.3398C41.4481 31.3228 40.3328 33.9666 38.0138 34.0364C35.1051 34.1233 32.6436 30.4225 34.6179 27.9654L38.179 25.2917L38.1819 25.2931ZM23.1241 37.2585C22.8121 37.3154 22.5386 37.5191 22.2965 37.7086C21.2524 39.3282 18.496 41.1614 17.5887 42.7013C16.6172 44.3479 18.8052 46.1897 20.1171 45.3365C21.5273 43.7696 23.2822 42.2796 24.6497 40.6999C25.4231 39.8068 25.916 39.2755 25.0727 38.1388C24.5884 37.4864 23.9673 37.1018 23.1255 37.257L23.1241 37.2585ZM27.5014 40.8808C27.3205 40.8951 27.0968 41.0019 26.9145 41.0489L20.0786 48.1783C19.3621 49.7921 21.5558 51.6895 22.993 50.4531L29.4272 43.667C30.2349 42.4847 28.6937 40.7868 27.5014 40.8794V40.8808ZM30.3745 45.7866C30.0469 45.8422 29.7363 46.0786 29.4942 46.2937L25.1582 50.9132C24.3776 52.416 26.6182 54.4244 28.0042 53.2265C28.9942 51.8248 31.8061 49.8491 32.4884 48.4347C33.108 47.1498 31.6451 45.5687 30.3759 45.7866H30.3745ZM34.5367 49.6255C34.39 49.6412 34.1763 49.7124 34.0367 49.7736C33.6821 49.9317 31.3104 52.3718 30.9856 52.7992C30.2235 53.7991 30.5454 54.6922 31.467 55.4144C32.0796 55.8945 32.6792 56.0811 33.3815 55.6224C33.7932 55.3532 36.4412 52.6069 36.5922 52.2237C37.0865 50.9787 35.7404 49.5001 34.5367 49.6269V49.6255Z" fill="#161616"/>
</g>
<defs>
<clipPath id="clip0_557_1722">
<rect width="54.5976" height="36" fill="white" transform="translate(12.7012 22)"/>
</clipPath>
</defs>
</svg>
