<svg width="21" height="20" viewBox="0 0 21 20" fill="none" xmlns="http://www.w3.org/2000/svg">
<path d="M8.56318 0C9.79855 0 11.0339 0 12.2688 0C12.3702 0.00991063 12.4716 0.0227944 12.5735 0.0287408C13.5154 0.0837448 14.4701 0.0584727 15.3979 0.207132C17.6815 0.573825 19.2171 1.88451 19.9092 4.14314C20.1757 5.0123 20.2404 5.91417 20.2619 6.8195C20.2703 7.16291 20.2859 7.50631 20.2987 7.84971V12.1455C20.2903 12.2421 20.2805 12.3382 20.2737 12.4349C20.2169 13.2907 20.2173 14.1549 20.0934 15.0007C19.6815 17.8109 17.5752 19.7226 14.7944 19.8753C12.5901 19.9962 10.3844 20.0398 8.17817 19.9585C7.17695 19.9219 6.16103 19.9223 5.18185 19.74C3.23328 19.3773 1.83774 18.241 1.09025 16.355C0.714059 15.4066 0.595518 14.4041 0.577883 13.3922C0.550453 11.8179 0.533798 10.2426 0.544085 8.66833C0.552412 7.43991 0.515185 6.20653 0.728263 4.98852C1.1554 2.5505 2.50931 0.936554 4.90264 0.31268C5.536 0.147668 6.21148 0.137758 6.86982 0.0827538C7.43264 0.0356783 7.9984 0.0262632 8.56318 0ZM10.573 18.4709C11.9597 18.411 13.5081 18.413 15.0413 18.2598C16.6753 18.0963 17.8206 17.1835 18.3731 15.5835C18.622 14.8635 18.7008 14.1103 18.7082 13.3551C18.7268 11.4289 18.7405 9.50231 18.7209 7.57618C18.7126 6.76549 18.6714 5.94737 18.5504 5.14709C18.2463 3.13225 16.7224 1.77153 14.716 1.6853C13.3665 1.62733 12.0155 1.56439 10.6656 1.57282C9.03293 1.58322 7.39346 1.59066 5.76965 1.73932C4.19434 1.88401 3.06625 2.76953 2.49461 4.30072C2.22079 5.0341 2.13213 5.80614 2.1238 6.58115C2.10225 8.52661 2.09001 10.4731 2.10862 12.4185C2.11646 13.2292 2.15809 14.0473 2.27908 14.8476C2.5818 16.8496 4.0758 18.2004 6.07531 18.3064C7.52032 18.3832 8.96779 18.4139 10.5725 18.4709H10.573Z" fill="#ffffff"/>
<path d="M10.3786 5.11523C13.0369 5.11573 15.203 7.30846 15.202 9.9982C15.201 12.6875 13.0335 14.8787 10.3747 14.8777C7.71683 14.8772 5.55078 12.684 5.55176 9.99424C5.55274 7.304 7.71879 5.11424 10.3786 5.11523ZM7.09572 9.99275C7.09425 11.8203 8.56326 13.3123 10.3678 13.3158C12.1743 13.3193 13.6527 11.8337 13.6576 10.0096C13.6625 8.17266 12.1895 6.67715 10.3752 6.67715C8.56963 6.67715 7.09719 8.16573 7.09572 9.99226V9.99275Z" fill="#ffffff"/>
<path d="M16.8999 4.71723C16.9029 5.36638 16.3807 5.8966 15.7395 5.89511C15.1057 5.89412 14.5879 5.37183 14.585 4.73061C14.582 4.07998 15.1022 3.55174 15.7449 3.55274C16.3788 3.55373 16.897 4.07602 16.8999 4.71674V4.71723Z" fill="#ffffff"/>
</svg>
