<svg width="21" height="20" viewBox="0 0 21 20" fill="none" xmlns="http://www.w3.org/2000/svg">
<path d="M8.56269 0C9.79806 0 11.0334 0 12.2683 0C12.3697 0.00991063 12.4711 0.0227944 12.573 0.0287408C13.5149 0.0837448 14.4696 0.0584727 15.3974 0.207132C17.681 0.573825 19.2166 1.88451 19.9088 4.14314C20.1752 5.0123 20.2399 5.91417 20.2614 6.8195C20.2698 7.16291 20.2854 7.50631 20.2982 7.84971V12.1455C20.2898 12.2421 20.28 12.3382 20.2732 12.4349C20.2164 13.2907 20.2169 14.1549 20.0929 15.0007C19.681 17.8109 17.5747 19.7226 14.7939 19.8753C12.5896 19.9962 10.3839 20.0398 8.17768 19.9585C7.17646 19.9219 6.16054 19.9223 5.18136 19.74C3.2328 19.3773 1.83725 18.241 1.08976 16.355C0.713571 15.4066 0.595029 14.4041 0.577395 13.3922C0.549964 11.8179 0.53331 10.2426 0.543596 8.66833C0.551924 7.43991 0.514697 6.20653 0.727775 4.98852C1.15491 2.5505 2.50882 0.936554 4.90215 0.31268C5.53551 0.147668 6.21099 0.137758 6.86933 0.0827538C7.43215 0.0356783 7.99791 0.0262632 8.56269 0ZM10.5725 18.4709C11.9592 18.411 13.5076 18.413 15.0408 18.2598C16.6749 18.0963 17.8201 17.1835 18.3726 15.5835C18.6215 14.8635 18.7003 14.1103 18.7077 13.3551C18.7263 11.4289 18.74 9.50231 18.7204 7.57618C18.7121 6.76549 18.6709 5.94737 18.5499 5.14709C18.2458 3.13225 16.7219 1.77153 14.7155 1.6853C13.366 1.62733 12.0151 1.56439 10.6651 1.57282C9.03244 1.58322 7.39297 1.59066 5.76916 1.73932C4.19385 1.88401 3.06576 2.76953 2.49412 4.30072C2.2203 5.0341 2.13164 5.80614 2.12332 6.58115C2.10176 8.52661 2.08952 10.4731 2.10813 12.4185C2.11597 13.2292 2.15761 14.0473 2.2786 14.8476C2.58131 16.8496 4.07531 18.2004 6.07482 18.3064C7.51983 18.3832 8.9673 18.4139 10.572 18.4709H10.5725Z" fill="#003E63"/>
<path d="M10.3779 5.11523C13.0362 5.11573 15.2023 7.30846 15.2013 9.9982C15.2003 12.6875 13.0328 14.8787 10.3739 14.8777C7.7161 14.8772 5.55005 12.684 5.55103 9.99424C5.55201 7.304 7.71806 5.11424 10.3779 5.11523ZM7.09499 9.99275C7.09352 11.8203 8.56253 13.3123 10.3671 13.3158C12.1736 13.3193 13.6519 11.8337 13.6568 10.0096C13.6617 8.17266 12.1888 6.67715 10.3744 6.67715C8.5689 6.67715 7.09645 8.16573 7.09499 9.99226V9.99275Z" fill="#003E63"/>
<path d="M16.8992 4.71723C16.9021 5.36638 16.38 5.8966 15.7388 5.89511C15.1049 5.89412 14.5872 5.37183 14.5842 4.73061C14.5813 4.07998 15.1015 3.55174 15.7442 3.55274C16.378 3.55373 16.8963 4.07602 16.8992 4.71674V4.71723Z" fill="#003E63"/>
</svg>
