<svg width="16" height="12" viewBox="0 0 16 12" fill="none" xmlns="http://www.w3.org/2000/svg">
<path d="M16 5.2336C15.9376 5.23675 15.8753 5.24304 15.8133 5.24304C11.6197 5.24344 7.42651 5.24344 3.2329 5.24344C3.17304 5.24344 3.11276 5.24344 3.02234 5.24344C4.52975 3.82431 6.01162 2.42918 7.48302 1.04428C7.09874 0.681635 6.73162 0.335508 6.3758 0C4.2543 1.99692 2.12234 4.00446 9.53674e-07 6.00216C2.1169 7.99515 4.24635 9.99994 6.37078 12C6.71697 11.6657 7.07948 11.3156 7.45121 10.9565C6.00031 9.59048 4.51635 8.19339 3.03197 6.79629C3.03909 6.78331 3.0462 6.77033 3.0529 6.75735C3.10774 6.75735 3.16258 6.75735 3.21741 6.75735C7.42149 6.75735 11.6251 6.75735 15.8292 6.75774C15.8861 6.75774 15.9431 6.76404 15.9996 6.76718C15.9996 6.25586 15.9996 5.74453 15.9996 5.23321L16 5.2336Z" fill="#003E63"/>
</svg>
