<svg width="21" height="20" viewBox="0 0 21 20" fill="none" xmlns="http://www.w3.org/2000/svg">
<path d="M0.770508 17.9678C0.770508 12.6557 0.770508 7.34305 0.770508 2.03093C0.783079 1.99571 0.800481 1.96098 0.807734 1.92479C0.930065 1.29819 1.23275 0.774317 1.76559 0.435339C2.07215 0.240659 2.43866 0.141852 2.77809 0C8.02963 0 13.2807 0 18.5317 0C18.5733 0.0136961 18.6139 0.0313053 18.656 0.0401099C19.742 0.264138 20.5355 1.20183 20.5364 2.30387C20.5417 7.43256 20.5422 12.5612 20.5364 17.6899C20.535 18.9495 19.5026 19.9943 18.2576 19.9958C13.1878 20.0016 8.11811 20.0016 3.04838 19.9943C2.30279 19.9933 1.70177 19.6563 1.23952 19.0644C0.98664 18.7401 0.87108 18.3576 0.770508 17.9678ZM10.6527 18.4364C13.1361 18.4364 15.6195 18.4364 18.1029 18.4364C18.6928 18.4364 18.9945 18.1326 18.9945 17.5383C18.9945 12.5138 18.9945 7.4893 18.9945 2.46431C18.9945 1.86658 18.6947 1.56233 18.1067 1.56233C13.14 1.56233 8.17324 1.56233 3.20601 1.56233C2.61515 1.56233 2.31439 1.86511 2.31439 2.4604C2.31439 7.4849 2.31439 12.5094 2.31439 17.5344C2.31439 18.1311 2.61466 18.4364 3.20214 18.4369C5.68551 18.4369 8.16889 18.4369 10.6523 18.4369L10.6527 18.4364Z" fill="#ffffff"/>
<path d="M11.2731 16.5153H8.65723V7.71163H11.2702V8.82443C11.5893 8.36757 11.9829 8.02028 12.4829 7.81777C13.5282 7.39466 14.576 7.43037 15.5895 7.90778C16.3196 8.25165 16.6992 8.90661 16.8607 9.67408C16.9699 10.1931 17.0444 10.7287 17.0521 11.2579C17.0768 12.9695 17.0633 14.6815 17.0642 16.3935C17.0642 16.4311 17.0604 16.4683 17.0579 16.5148H14.4005C14.4005 16.4399 14.4005 16.3646 14.4005 16.2898C14.4 14.8385 14.4029 13.3867 14.3952 11.9354C14.3937 11.6571 14.3671 11.3758 14.3217 11.1009C14.1704 10.1857 13.5674 9.75479 12.6642 9.90006C11.9302 10.0179 11.5023 10.443 11.3582 11.2369C11.3026 11.5421 11.2789 11.8571 11.2769 12.1677C11.2682 13.5413 11.2731 14.9143 11.2731 16.2878C11.2731 16.3582 11.2731 16.4287 11.2731 16.5153Z" fill="#ffffff"/>
<path d="M4.25977 7.70312H6.93848V16.5063H4.25977V7.70312Z" fill="#ffffff"/>
<path d="M5.63772 6.4832C4.76641 6.48417 4.0537 5.76562 4.05274 4.88467C4.05177 4.00274 4.76109 3.28272 5.6324 3.28125C6.50419 3.27978 7.21642 3.99785 7.21739 4.87929C7.21835 5.76122 6.50854 6.48173 5.63772 6.48271V6.4832Z" fill="#ffffff"/>
</svg>
