<svg width="21" height="20" viewBox="0 0 21 20" fill="none" xmlns="http://www.w3.org/2000/svg">
<path d="M0.770508 17.9678C0.770508 12.6557 0.770508 7.34305 0.770508 2.03093C0.783079 1.99571 0.800481 1.96098 0.807734 1.92479C0.930065 1.29819 1.23275 0.774317 1.76559 0.435339C2.07215 0.240659 2.43866 0.141852 2.77809 0C8.02963 0 13.2807 0 18.5317 0C18.5733 0.0136961 18.6139 0.0313053 18.656 0.0401099C19.742 0.264138 20.5355 1.20183 20.5364 2.30387C20.5417 7.43256 20.5422 12.5612 20.5364 17.6899C20.535 18.9495 19.5026 19.9943 18.2576 19.9958C13.1878 20.0016 8.11811 20.0016 3.04838 19.9943C2.30279 19.9933 1.70177 19.6563 1.23952 19.0644C0.98664 18.7401 0.87108 18.3576 0.770508 17.9678ZM10.6527 18.4364C13.1361 18.4364 15.6195 18.4364 18.1029 18.4364C18.6928 18.4364 18.9945 18.1326 18.9945 17.5383C18.9945 12.5138 18.9945 7.4893 18.9945 2.46431C18.9945 1.86658 18.6947 1.56233 18.1067 1.56233C13.14 1.56233 8.17324 1.56233 3.20601 1.56233C2.61515 1.56233 2.31439 1.86511 2.31439 2.4604C2.31439 7.4849 2.31439 12.5094 2.31439 17.5344C2.31439 18.1311 2.61466 18.4364 3.20214 18.4369C5.68551 18.4369 8.16889 18.4369 10.6523 18.4369L10.6527 18.4364Z" fill="#003E63"/>
<path d="M11.2728 16.5153H8.65698V7.71163H11.2699V8.82443C11.5891 8.36757 11.9826 8.02028 12.4826 7.81777C13.528 7.39466 14.5758 7.43037 15.5892 7.90778C16.3194 8.25165 16.6989 8.90661 16.8604 9.67408C16.9697 10.1931 17.0442 10.7287 17.0519 11.2579C17.0766 12.9695 17.063 14.6815 17.064 16.3935C17.064 16.4311 17.0601 16.4683 17.0577 16.5148H14.4003C14.4003 16.4399 14.4003 16.3646 14.4003 16.2898C14.3998 14.8385 14.4027 13.3867 14.3949 11.9354C14.3935 11.6571 14.3669 11.3758 14.3214 11.1009C14.1701 10.1857 13.5672 9.75479 12.6639 9.90006C11.9299 10.0179 11.502 10.443 11.3579 11.2369C11.3023 11.5421 11.2786 11.8571 11.2767 12.1677C11.268 13.5413 11.2728 14.9143 11.2728 16.2878C11.2728 16.3582 11.2728 16.4287 11.2728 16.5153Z" fill="#003E63"/>
<path d="M4.25928 7.70312H6.93799V16.5063H4.25928V7.70312Z" fill="#003E63"/>
<path d="M5.63747 6.4832C4.76617 6.48417 4.05346 5.76562 4.05249 4.88467C4.05152 4.00274 4.76085 3.28272 5.63216 3.28125C6.50395 3.27978 7.21618 3.99785 7.21714 4.87929C7.21811 5.76122 6.5083 6.48173 5.63747 6.48271V6.4832Z" fill="#003E63"/>
</svg>
