<svg width="56" height="56" viewBox="0 0 56 56" fill="none" xmlns="http://www.w3.org/2000/svg">
<path d="M55.9699 44.9165L55.2596 42.3024C56.2179 38.924 55.3367 34.9174 54.9042 33.3232L54.202 30.7385C53.9099 29.6641 52.9716 28.928 51.9102 28.8262V9.44888C51.9102 7.547 50.3417 6 48.4135 6H3.49672C1.56846 6 0 7.547 0 9.44888V40.5366C0 42.4385 1.56846 43.9855 3.49672 43.9855H14.9762L12.5489 48.0938C12.314 48.491 12.3109 48.9642 12.5408 49.3589C12.7714 49.7542 13.1996 50 13.6594 50H38.2508C38.71 50 39.1388 49.7542 39.3693 49.3589C39.5993 48.9642 39.5962 48.4916 39.3619 48.0938L36.9346 43.9855H40.7091C41.1528 44.5965 41.4915 45.3075 41.7923 46.3084L41.7954 46.3072L42.3925 48.5045C42.4976 48.8919 42.8524 49.1468 43.2408 49.1468C43.316 49.1468 43.3924 49.137 43.4688 49.1174L55.3504 45.9774C55.5753 45.918 55.7673 45.7727 55.8835 45.5735C55.9991 45.3743 56.0302 45.1384 55.9699 44.9165ZM52.5049 31.1866L53.2071 33.7712C53.5911 35.1858 54.3667 38.6758 53.6328 41.5914L42.9605 44.4121C42.1241 42.5457 40.967 41.6086 39.255 40.2222C38.1439 39.3224 36.7606 38.2026 35.0002 36.454C33.7623 35.2244 33.7374 33.8509 34.196 33.3318C34.5701 32.9082 35.2089 33.2766 35.5563 33.534L39.626 36.549C39.9255 36.7708 40.335 36.7812 40.6451 36.5741C40.9558 36.3669 41.0988 35.9887 41.0018 35.632L37.7947 23.8273C37.7344 23.606 37.7661 23.3737 37.8842 23.1727C38.0016 22.9716 38.1899 22.8282 38.4142 22.7694C38.8797 22.6462 39.3606 22.9195 39.4856 23.3762L42.2105 33.4059C42.3155 33.7933 42.6703 34.0483 43.0587 34.0483C43.1339 34.0483 43.2103 34.0384 43.2868 34.0188C43.7553 33.895 44.0337 33.42 43.9082 32.9579L43.6285 31.9294L43.6279 31.927C43.5689 31.7069 43.6006 31.4752 43.718 31.2748C43.8355 31.0738 44.0238 30.9304 44.2481 30.8715C44.4724 30.8127 44.7079 30.8433 44.9118 30.9598C45.1156 31.0756 45.261 31.2613 45.3207 31.4826L45.4947 32.1219C45.6202 32.5834 46.0999 32.858 46.5691 32.7348C47.037 32.6122 47.3167 32.1384 47.193 31.6769C47.0706 31.2178 47.349 30.7453 47.8132 30.6221C48.2805 30.4989 48.7608 30.7728 48.8857 31.2331L49.1169 32.0832C49.2424 32.5454 49.724 32.82 50.1926 32.6962C50.6611 32.5724 50.9395 32.0973 50.814 31.6352C50.6891 31.1749 50.9669 30.7005 51.4336 30.5773C51.899 30.4523 52.38 30.7269 52.5049 31.1866ZM3.49672 7.73271H48.4135C49.3729 7.73271 50.1534 8.50254 50.1534 9.44888V29.281C50.036 29.3619 49.9254 29.4508 49.8241 29.5482C49.1822 28.966 48.2606 28.7091 47.3571 28.9476C46.8661 29.0775 46.4442 29.3374 46.1198 29.68C46.016 29.5985 45.906 29.5243 45.7892 29.4581C45.179 29.1106 44.4699 29.0174 43.7926 29.197C43.4999 29.2743 43.2284 29.3987 42.9854 29.5629L41.182 22.9257C40.8036 21.5472 39.3582 20.7259 37.9593 21.0955C37.282 21.2745 36.7146 21.7047 36.3623 22.3066C36.01 22.9085 35.9161 23.6078 36.0976 24.2759L38.646 33.6566L36.6115 32.1488C34.9604 30.9255 33.5647 31.409 32.8712 32.1942C31.8061 33.4004 31.8452 35.7804 33.7542 37.6755C33.8412 37.7619 33.9257 37.8447 34.0109 37.928H29.2054V25.4521C29.2054 24.9734 28.8121 24.5854 28.3267 24.5854H24.4391C23.9538 24.5854 23.5605 24.9734 23.5605 25.4521V37.9286H22.9154V28.1943C22.9154 27.7156 22.5221 27.3276 22.0367 27.3276H18.1491C17.6638 27.3276 17.2705 27.7156 17.2705 28.1943V37.9286H16.6254V30.9359C16.6254 30.4572 16.2321 30.0692 15.7467 30.0692H11.8591C11.3738 30.0692 10.9805 30.4572 10.9805 30.9359V37.928H10.3354V33.6774C10.3354 33.1988 9.94207 32.8108 9.45675 32.8108H5.56915C5.08382 32.8108 4.69047 33.1988 4.69047 33.6774V37.928H1.75675V9.44888C1.75675 8.50254 2.53725 7.73271 3.49672 7.73271ZM25.3172 37.9286V26.3188H27.4481V37.9286H25.3172ZM19.0278 37.9286V29.0603H21.1587V37.9286H19.0278ZM12.7378 37.9286V31.8025H14.8687V37.9286H12.7378ZM6.44846 37.9286V34.5447H8.5793V37.9286H6.44846ZM1.75675 40.5366V39.6613H35.872C36.7358 40.4238 37.4846 41.0306 38.1402 41.562C38.4459 41.8096 38.7268 42.037 38.9853 42.2527H3.49672C2.53725 42.2527 1.75675 41.4829 1.75675 40.5366ZM37.4305 48.2673H14.4797L17.0095 43.9855H34.9007L37.4305 48.2673ZM43.861 47.2192L43.544 46.0522L53.7285 43.3603L54.0454 44.5273L43.861 47.2192ZM14.4119 15.7325L13.9129 17.8305C13.8322 18.1701 13.9658 18.5243 14.2516 18.729C14.5381 18.9344 14.9203 18.9497 15.2229 18.7695L17.0921 17.6534L18.9613 18.7695C19.1018 18.8535 19.259 18.8945 19.4162 18.8945C19.5977 18.8945 19.7791 18.8387 19.9326 18.729C20.2185 18.5243 20.3521 18.1701 20.2713 17.8305L19.7723 15.7325L21.4265 14.324C21.6943 14.096 21.7975 13.7319 21.6881 13.4003C21.5788 13.0688 21.2786 12.834 20.9263 12.8046L18.7488 12.6244L17.9018 10.6379C17.7645 10.3162 17.4457 10.1071 17.0921 10.1071C16.7385 10.1071 16.4191 10.3162 16.2824 10.6379L15.4354 12.6244L13.258 12.8046C12.9056 12.834 12.6055 13.0688 12.4961 13.4003C12.3867 13.7319 12.4899 14.096 12.7577 14.324L14.4119 15.7325ZM16.1128 14.3075C16.4384 14.2805 16.7224 14.077 16.8491 13.7797L17.0921 13.2091L17.3351 13.7797C17.4619 14.077 17.7458 14.2805 18.0715 14.3075L18.6966 14.3596L18.2219 14.7641C17.9745 14.9749 17.8658 15.3035 17.9404 15.6179L18.0839 16.2204L17.547 15.8998C17.4072 15.8165 17.2493 15.7748 17.0921 15.7748C16.9349 15.7748 16.7771 15.8165 16.6372 15.8998L16.101 16.2204L16.2439 15.6179C16.3184 15.3041 16.2103 14.9749 15.963 14.7641L15.4882 14.3596L16.1128 14.3075ZM4.84644 15.7325L4.34744 17.8305C4.26666 18.1701 4.40026 18.5243 4.68612 18.729C4.97197 18.9344 5.35476 18.9497 5.65739 18.7695L7.52662 17.6534L9.39523 18.7695C9.53567 18.8535 9.69289 18.8945 9.8501 18.8945C10.0316 18.8945 10.213 18.8387 10.3665 18.729C10.6524 18.5237 10.786 18.1701 10.7052 17.8305L10.2062 15.7325L11.8604 14.324C12.1282 14.096 12.2314 13.7319 12.122 13.4003C12.0126 13.0688 11.7125 12.834 11.3602 12.8046L9.1827 12.6244L8.33633 10.6379C8.199 10.3162 7.88021 10.1071 7.52662 10.1071C7.17303 10.1071 6.85362 10.3162 6.71691 10.6379L5.86992 12.6244L3.69247 12.8046C3.34012 12.834 3.03998 13.0688 2.93061 13.4003C2.82124 13.7319 2.9244 14.096 3.19223 14.324L4.84644 15.7325ZM6.54726 14.3075C6.87289 14.2805 7.15688 14.077 7.28365 13.7797L7.52662 13.2091L7.7696 13.7791C7.89636 14.0764 8.17973 14.2799 8.50598 14.3068L9.13112 14.3589L8.65636 14.7635C8.40904 14.9743 8.30029 15.3028 8.37486 15.6173L8.5184 16.2198L7.98212 15.8992C7.70248 15.7319 7.352 15.7319 7.07174 15.8992L6.53484 16.2198L6.67838 15.6173C6.75295 15.3035 6.64483 14.9743 6.39688 14.7635L5.92212 14.3589L6.54726 14.3075ZM23.9774 15.7331L23.4784 17.8311C23.3976 18.1707 23.5313 18.5249 23.8171 18.7297C23.9706 18.8394 24.152 18.8951 24.3335 18.8951C24.4907 18.8951 24.6479 18.8535 24.7884 18.7701L26.6576 17.654L28.5268 18.7701C28.8295 18.9509 29.2123 18.935 29.4981 18.7297C29.784 18.5249 29.9176 18.1707 29.8368 17.8311L29.3378 15.7331L30.992 14.3252C31.2598 14.0972 31.363 13.7332 31.2536 13.4016C31.1443 13.07 30.8441 12.8352 30.4918 12.8058L28.3143 12.6256L27.4673 10.6392C27.33 10.3174 27.0112 10.1084 26.6576 10.1084C26.304 10.1084 25.9846 10.3174 25.8479 10.6392L25.0009 12.6256L22.8235 12.8058C22.4711 12.8352 22.171 13.07 22.0616 13.4016C21.9522 13.7332 22.0554 14.0972 22.3232 14.3252L23.9774 15.7331ZM25.6783 14.3075C26.0039 14.2805 26.2879 14.077 26.4146 13.7797L26.6576 13.2091L26.9006 13.7797C27.0274 14.077 27.3107 14.2805 27.637 14.3075L28.2621 14.3596L27.7873 14.7641C27.54 14.9749 27.4313 15.3041 27.5065 15.6179L27.6494 16.2204L27.1131 15.8998C26.8335 15.7325 26.483 15.7325 26.2034 15.8998L25.6664 16.2204L25.81 15.6179C25.8846 15.3041 25.7764 14.9749 25.5285 14.7641L25.0537 14.3596L25.6783 14.3075ZM35.2593 16.7824L34.3887 20.444C34.3079 20.7835 34.4415 21.1378 34.7273 21.3425C35.0132 21.5478 35.396 21.5632 35.6986 21.383L38.9605 19.4345L42.2223 21.383C42.3627 21.4669 42.5199 21.508 42.6772 21.508C42.8586 21.508 43.0401 21.4522 43.1936 21.3425C43.4794 21.1378 43.613 20.7835 43.5322 20.444L42.6616 16.7824L45.5481 14.3246C45.8159 14.0966 45.9191 13.7325 45.8097 13.401C45.7004 13.0694 45.4002 12.8346 45.0479 12.8052L41.2479 12.4902L39.7702 9.0229C39.6328 8.70112 39.314 8.49212 38.9605 8.49212C38.6069 8.49212 38.2875 8.70112 38.1507 9.0229L36.673 12.4902L32.873 12.8052C32.5207 12.8346 32.2205 13.0694 32.1112 13.401C32.0018 13.7325 32.105 14.0966 32.3728 14.3246L35.2593 16.7824ZM37.3504 14.1732C37.676 14.1463 37.96 13.9428 38.0867 13.6455L38.9611 11.5947L39.8354 13.6455C39.9622 13.9428 40.2455 14.1463 40.5718 14.1732L42.8195 14.3596L41.1118 15.8134C40.8645 16.0242 40.7557 16.3528 40.8303 16.6672L41.3455 18.8332L39.416 17.681C39.1363 17.5142 38.7858 17.5136 38.5056 17.681L36.5761 18.8332L37.0912 16.6672C37.1658 16.3534 37.0577 16.0242 36.8097 15.8134L35.1021 14.3596L37.3504 14.1732ZM22.8781 21.535C23.0049 21.7513 23.0304 22.0112 22.949 22.2472L21.9827 25.047C21.8584 25.4074 21.5166 25.6341 21.1512 25.6341C21.0574 25.6341 20.9617 25.6194 20.8679 25.5876C20.4086 25.4331 20.1632 24.9409 20.3191 24.488L20.5323 23.8702L8.03618 30.9861C7.89761 31.0652 7.7466 31.1026 7.59808 31.1026C7.29421 31.1026 6.99904 30.9475 6.83622 30.6693C6.59387 30.2549 6.73742 29.7247 7.1575 29.4857L19.6536 22.3698L19.0048 22.2429C18.5288 22.1497 18.2194 21.6943 18.3138 21.2248C18.4083 20.7553 18.8706 20.4507 19.346 20.5433L22.2872 21.1176C22.5364 21.1666 22.752 21.3186 22.8781 21.535Z" fill="url(#paint0_linear_2449_188)"/>
<defs>
<linearGradient id="paint0_linear_2449_188" x1="52.3756" y1="50" x2="15.3743" y2="-2.3111" gradientUnits="userSpaceOnUse">
<stop stop-color="#FFDC61"/>
<stop offset="0.460765" stop-color="#FFDC61"/>
<stop offset="1" stop-color="#FF6EF1"/>
</linearGradient>
</defs>
</svg>
