<svg width="56" height="56" viewBox="0 0 56 56" fill="none" xmlns="http://www.w3.org/2000/svg">
<path fill-rule="evenodd" clip-rule="evenodd" d="M42.4042 14.2435H45.9833C46.4506 14.2435 46.8287 13.8657 46.8287 13.4041C46.8287 12.9401 46.4506 12.5647 45.9833 12.5647H42.4042C41.9392 12.5647 41.5587 12.9401 41.5587 13.4041C41.5587 13.8658 41.9392 14.2435 42.4042 14.2435ZM40.8941 7.92948L44.3511 7.01079C44.802 6.88954 45.0697 6.43021 44.95 5.98252C44.8302 5.53484 44.3652 5.26905 43.9142 5.38795L40.4572 6.30897C40.0063 6.42788 39.7386 6.88954 39.8607 7.33724C39.9805 7.78491 40.4455 8.05071 40.8941 7.92948ZM40.4572 20.4971L43.9143 21.4182C44.3652 21.5371 44.8302 21.2713 44.95 20.8236C45.0698 20.3759 44.802 19.9166 44.3511 19.7976L40.8941 18.8766C40.4455 18.7577 39.9805 19.0235 39.8607 19.4712C39.7386 19.9189 40.0063 20.3782 40.4572 20.4971ZM11.9413 17.037C12.2161 17.6385 12.5989 18.1935 13.078 18.6715C13.4937 19.0842 13.9681 19.4246 14.4824 19.6834L12.6035 29.9637C12.4932 30.5723 12.6623 31.1972 13.0662 31.6682C13.4678 32.1368 14.0619 32.4027 14.6843 32.391L16.5232 32.356C17.5119 32.3373 18.3481 31.6309 18.5242 30.6656L19.6232 24.6477L20.72 24.8459L21.0417 24.8715L21.3588 24.8342L21.6641 24.7363L21.9459 24.5824L22.1925 24.3725L22.3921 24.1254L22.5378 23.8409L22.627 23.5332L23.1084 20.8961L32.0047 24.0974V24.6453C32.0047 25.8391 32.9794 26.8068 34.1818 26.8068H35.3819C36.5843 26.8068 37.559 25.8391 37.559 24.6453V2.16142C37.559 0.96763 36.5843 0 35.3819 0H34.1818C32.9794 0 32.0047 0.96763 32.0047 2.16142V2.70936L21.4154 6.52156H17.0072C15.5324 6.52156 14.1209 7.10214 13.0781 8.13503C12.599 8.61301 12.2162 9.16563 11.9415 9.76951C10.3962 9.86977 9.17255 11.1498 9.17255 12.7097V14.097C9.17255 15.6569 10.396 16.9344 11.9413 17.037ZM18.7026 20.2873L16.8614 30.3647C16.8285 30.5442 16.6735 30.6748 16.4903 30.6771L14.6514 30.7144C14.5387 30.7144 14.426 30.6655 14.3532 30.5792C14.278 30.4929 14.2475 30.3763 14.2663 30.2644L16.1028 20.2127C16.3987 20.2616 16.7017 20.2873 17.007 20.2873L18.7026 20.2873ZM32.0047 4.49517V22.3113L22.411 18.8582V7.9487L32.0047 4.49517ZM20.7197 8.20011V18.6088H17.0067C15.9804 18.6088 14.9988 18.2031 14.273 17.485C13.5497 16.7645 13.141 15.7875 13.141 14.7709V12.0359C13.141 11.0194 13.5497 10.0424 14.273 9.32424C14.9987 8.60379 15.9804 8.20041 17.0067 8.20041L20.7197 8.20011ZM11.4663 11.6323C11.4569 11.7675 11.4499 11.9004 11.4499 12.0356V14.7706C11.4499 14.9059 11.4569 15.0411 11.4663 15.174C11.1023 14.9502 10.8628 14.5514 10.8628 14.0968V12.7095C10.8628 12.2571 11.1023 11.8561 11.4663 11.6323ZM33.6953 2.1613C33.6953 1.8955 33.9137 1.67866 34.1814 1.67866H35.3815C35.6493 1.67866 35.8677 1.8955 35.8677 2.1613V24.6452C35.8677 24.911 35.6493 25.1279 35.3815 25.1279H34.1814C33.9137 25.1279 33.6953 24.911 33.6953 24.6452V2.1613ZM21.4147 20.2873L21.4946 20.3153L20.9709 23.1832L19.9258 22.9966L20.419 20.2873L21.4147 20.2873ZM52.4576 32.5911C51.382 30.7888 49.0429 30.1755 47.211 31.2271L40.7148 34.9484C40.0102 34.0274 38.8971 33.4328 37.6406 33.4328H18.1832C17.1076 33.4328 16.0672 33.8292 15.2664 34.5427L11.605 37.807C11.133 37.5109 10.5881 37.336 10.0198 37.3033C9.15085 37.2567 8.29597 37.5575 7.64779 38.1357L3.27956 42.0295C2.93432 42.3396 2.90379 42.8713 3.21615 43.2163L14.5335 55.7207C14.8436 56.0658 15.379 56.0961 15.7266 55.7837L20.0948 51.8899C20.743 51.3116 21.1329 50.5002 21.1799 49.6375C21.2034 49.2085 21.1399 48.7865 21.0014 48.3901L22.5537 47.0052C23.0446 46.5692 23.681 46.3267 24.341 46.3267H34.6465C35.7339 46.3267 36.8024 46.0422 37.7465 45.5013L51.0696 37.8628C52.892 36.8182 53.5309 34.5239 52.5234 32.7006L52.4576 32.5911ZM51.0626 33.5518C51.5981 34.5683 51.2341 35.8298 50.2242 36.4104L36.9011 44.0465C36.2154 44.4405 35.438 44.648 34.6466 44.648H24.341C23.2654 44.648 22.225 45.0421 21.4241 45.7579L20.062 46.9727L12.8263 38.9755L16.3961 35.7928C16.8869 35.3545 17.5233 35.112 18.1833 35.112H37.6406C38.4767 35.112 39.2024 35.5806 39.5641 36.2685C39.5899 36.3198 39.6134 36.3687 39.6369 36.4224C39.7473 36.6788 39.8083 36.9633 39.8083 37.2641V37.2664C39.8083 38.4556 38.8384 39.4185 37.6406 39.4185H25.7502C25.2829 39.4185 24.9048 39.7939 24.9048 40.2579C24.9048 40.7196 25.2829 41.0973 25.7502 41.0973H37.6406C39.7707 41.0973 41.4993 39.3812 41.4993 37.2664V37.264C41.4993 36.9959 41.4711 36.7371 41.4194 36.4853L48.0563 32.6801C49.0802 32.0925 50.3907 32.4329 50.9966 33.4378L51.0626 33.5518ZM8.77749 39.3831C9.09219 39.1033 9.50785 38.9588 9.93063 38.9821C10.3534 39.0031 10.7479 39.1919 11.0321 39.5044L19.0854 48.4041C19.3673 48.7166 19.5129 49.1269 19.4917 49.5466C19.4682 49.9663 19.278 50.3604 18.9633 50.6402L15.2268 53.9744L5.04154 42.7175L8.77749 39.3831Z" fill="url(#paint0_linear_2386_2698)"/>
<defs>
<linearGradient id="paint0_linear_2386_2698" x1="49.764" y1="56" x2="-0.178315" y2="6.46741" gradientUnits="userSpaceOnUse">
<stop stop-color="#FFDC61"/>
<stop offset="0.460765" stop-color="#FFDC61"/>
<stop offset="1" stop-color="#FF6EF1"/>
</linearGradient>
</defs>
</svg>
