<svg width="56" height="56" viewBox="0 0 56 56" fill="none" xmlns="http://www.w3.org/2000/svg">
<path d="M26.8967 52.1611C26.8967 52.6615 26.4923 53.0635 25.9949 53.0635H21.9038C21.4037 53.0635 21.002 52.6588 21.002 52.1611C21.002 51.6635 21.4064 51.2588 21.9038 51.2588H25.9949C26.495 51.2588 26.8967 51.6635 26.8967 52.1611ZM50.9344 30.8996C51.164 31.7664 50.6502 32.6577 49.7866 32.8902L48.8383 33.1445C48.6989 33.1828 48.5568 33.1992 48.4175 33.1992C47.6988 33.1992 47.0401 32.7179 46.8461 31.9933L46.7149 31.5039C44.7527 30.886 42.7715 30.7876 40.6999 31.2086L41.9953 36.0427C42.0582 36.2751 42.0254 36.5212 41.9051 36.729C41.7849 36.9368 41.5881 37.0872 41.3558 37.1501L39.6669 37.6012V51.4284C39.6669 53.9494 37.6173 56 35.0977 56H12.7866C10.2669 56 8.21738 53.9493 8.21738 51.4284V26.6727H4.37502C2.51394 26.6727 1 25.1606 1 23.2986V15.0985C1 13.2392 2.51401 11.7244 4.37502 11.7244H8.21738V7.93748C8.21738 5.41648 10.267 3.36586 12.7866 3.36586H31.2576C31.263 1.50934 32.7743 0 34.6326 0H44.8783C46.7393 0 48.2533 1.5148 48.2533 3.37678V11.5713C48.2533 13.4305 46.7393 14.9453 44.8783 14.9453H39.6668V21.8165C41.0906 21.1521 42.3204 20.2498 43.3889 19.085L43.2577 18.5929C43.1457 18.1745 43.203 17.737 43.4217 17.3597C43.6376 16.9824 43.9874 16.7144 44.4055 16.6051L45.3565 16.3535C45.7746 16.2414 46.2092 16.2988 46.5863 16.5149C46.9633 16.7309 47.2339 17.0836 47.346 17.5019L48.379 21.3545C48.8764 21.3709 49.3656 21.5103 49.811 21.7674C50.5243 22.1802 51.0353 22.8419 51.2485 23.6376C51.4616 24.4333 51.3523 25.2617 50.9397 25.9754C50.6828 26.421 50.3302 26.7847 49.9066 27.0499L50.9397 30.9025L50.9344 30.8996ZM48.9067 23.3316L49.3713 25.0733C49.5407 24.778 49.5871 24.4335 49.4997 24.1054C49.4122 23.7773 49.2018 23.5039 48.9067 23.3343L48.9067 23.3316ZM38.484 29.9047L37.063 24.5948L32.9145 25.7076C32.7751 25.7459 32.7014 25.8416 32.6713 25.8963C32.6385 25.951 32.592 26.0631 32.6303 26.2025L33.8437 30.7305C33.9011 30.9437 34.1252 31.0723 34.3383 31.0176L38.4895 29.9048L38.484 29.9047ZM33.0702 11.574C33.0702 12.438 33.7753 13.1407 34.6389 13.1407H35.6856C36.1857 13.1407 36.5874 13.5454 36.5874 14.043V14.6391L37.7434 13.4223C37.9128 13.2419 38.1506 13.1407 38.3993 13.1407H44.887C45.7533 13.1407 46.4556 12.438 46.4556 11.574V3.37948C46.4556 2.51271 45.7505 1.81001 44.887 1.81001H34.6413C33.775 1.81001 33.0726 2.51544 33.0726 3.37948V11.574L33.0702 11.574ZM20.6635 5.17586C20.9422 5.48756 21.2128 5.67896 21.5407 5.67896H26.5855C26.8588 5.67896 27.0337 5.55045 27.3042 5.17586H20.6635ZM4.38372 24.868H10.8714C11.1201 24.868 11.3551 24.9692 11.5273 25.1496L12.6805 26.3664V25.7703C12.6805 25.27 13.085 24.868 13.5824 24.868H14.6291C15.4926 24.868 16.195 24.1653 16.195 23.3013V15.1012C16.195 14.2371 15.4926 13.5344 14.6291 13.5344H4.38337C3.51705 13.5344 2.81472 14.2371 2.81472 15.1012V23.3013C2.81472 24.1653 3.52013 24.868 4.38372 24.868ZM10.0325 26.6753V48.3281H13.883V40.9099C13.883 37.9159 16.4737 35.4824 19.6575 35.4824H21.032C20.4909 35.034 20.0045 34.4735 19.5864 33.7953C18.6928 32.3435 18.1598 30.3857 18.1598 28.5538C18.1598 25.0376 21.0183 22.1775 24.5301 22.1775C28.0417 22.1775 30.903 25.0375 30.903 28.5538C30.903 31.1923 29.911 33.9402 28.0226 35.4823H29.4027C32.5865 35.4823 35.1772 37.9186 35.1772 40.9098V48.328H37.8718V36.9564L35.7839 32.4996L34.8055 32.762C34.617 32.8113 34.4257 32.8359 34.2371 32.8359C33.2642 32.8359 32.3678 32.1851 32.1 31.2008L30.8866 26.6701C30.7336 26.1014 30.8129 25.5053 31.108 24.9941C31.4032 24.4828 31.8787 24.1164 32.4471 23.9632L37.4673 22.6152C37.6012 22.5797 37.7351 22.5414 37.8663 22.5004V15.9164L36.3414 17.5268C36.1692 17.71 35.9287 17.8085 35.6855 17.8085C35.5735 17.8085 35.4587 17.7866 35.3521 17.7429C35.0105 17.6061 34.7837 17.2726 34.7837 16.9035V14.9457H34.6416C32.7805 14.9457 31.2666 13.4336 31.2666 11.5717V5.17082H29.8154C29.5941 5.17082 29.4219 5.26105 29.2935 5.44425C29.2224 5.54268 29.1514 5.65478 29.0748 5.77236C28.6376 6.45319 27.9735 7.48125 26.5852 7.48125H21.5405C20.0402 7.48125 19.1793 6.25631 18.6655 5.52625L18.6081 5.44422C18.4797 5.26102 18.3075 5.17079 18.0862 5.17079H12.7954C11.2732 5.17079 10.0325 6.41211 10.0325 7.9351V11.7221H14.6291C16.4874 11.7221 18.0014 13.2341 18.0014 15.0961V23.2962C18.0014 25.1555 16.4902 26.6703 14.6291 26.6703H14.487V28.628C14.487 28.9971 14.263 29.3307 13.9186 29.4674C13.8093 29.5112 13.6973 29.533 13.5852 29.533C13.342 29.533 13.1042 29.4346 12.9293 29.2514L10.4835 26.673H10.0353L10.0325 26.6753ZM31.1738 43.7013V48.3277H33.3655V40.9094C33.3655 38.9134 31.5837 37.2866 29.3974 37.2866H19.6547C17.4657 37.2866 15.6866 38.9107 15.6866 40.9094V48.3277H17.8838V43.7013C17.8838 43.201 18.2883 42.799 18.7857 42.799C19.2831 42.799 19.6875 43.2037 19.6875 43.7013V48.3277H29.3672V43.7013C29.3672 43.201 29.7717 42.799 30.2691 42.799C30.7665 42.799 31.171 43.2037 31.171 43.7013H31.1738ZM24.5275 34.9188C27.8534 34.9188 29.0941 31.0144 29.0941 28.5535C29.0941 26.0352 27.0444 23.9846 24.5275 23.9846C22.0078 23.9846 19.9637 26.0353 19.9637 28.5535C19.9637 31.0143 21.2017 34.9188 24.5275 34.9188ZM37.8662 51.4283V50.1322H10.0325V51.4283C10.0325 52.9512 11.2731 54.1926 12.7953 54.1926H35.1064C36.6286 54.1926 37.8692 52.9512 37.8692 51.4283H37.8662ZM40.0223 35.6377L38.9538 31.6485L37.5519 32.0231L39.331 35.8209L40.0224 35.635L40.0223 35.6377ZM46.1794 29.4912L43.9331 21.1077C42.4765 22.4638 40.7794 23.4537 38.7981 24.1016L40.2356 29.4635C42.2551 29.0424 44.2446 29.051 46.1794 29.4912ZM49.1445 31.1919L45.6493 18.1438L45.0508 18.3024L48.546 31.3505L49.1418 31.1891L49.1445 31.1919ZM54.9682 22.6362C54.8397 22.155 54.3451 21.8678 53.8614 21.9991L52.4704 22.3737C51.9894 22.5022 51.7024 22.9998 51.8336 23.481C51.9429 23.883 52.3064 24.1482 52.7054 24.1482C52.7819 24.1482 52.8612 24.1373 52.9404 24.1154L54.3314 23.7408C54.8124 23.6123 55.0994 23.1146 54.9682 22.6334L54.9682 22.6362ZM53.9488 26.6719L52.7027 25.9501C52.2709 25.7013 51.7189 25.8462 51.4702 26.2782C51.2215 26.7102 51.3664 27.2625 51.7982 27.5113L53.0443 28.2331C53.1864 28.3152 53.3422 28.3562 53.4952 28.3562C53.8068 28.3562 54.1101 28.1949 54.2768 27.905C54.5255 27.473 54.3806 26.9207 53.9488 26.6719ZM50.1147 21.2362C50.2568 21.3183 50.4126 21.3565 50.5656 21.3565C50.8771 21.3565 51.1805 21.1952 51.3472 20.9054L52.0659 19.6586C52.3146 19.2266 52.167 18.6743 51.7352 18.4255C51.3034 18.1767 50.7514 18.3243 50.5027 18.7563L49.784 20.0031C49.5353 20.4351 49.6829 20.9874 50.1147 21.2362ZM11.4945 23.6889L9.50496 22.7073L7.51822 23.6889C7.21761 23.8365 6.85961 23.8064 6.58908 23.6096C6.31855 23.4127 6.17643 23.0819 6.22562 22.7483L6.54262 20.5527L4.99587 18.9641C4.76084 18.7235 4.68159 18.3735 4.7827 18.0563C4.88655 17.7364 5.1571 17.5013 5.48776 17.4438L7.67402 17.0665L8.70706 15.1033C8.86283 14.808 9.17164 14.6221 9.50502 14.6221C9.83843 14.6221 10.1472 14.808 10.303 15.1033L11.336 17.0665L13.5223 17.4438C13.853 17.5013 14.1235 17.7364 14.2273 18.0536C14.3312 18.3707 14.2492 18.7207 14.0142 18.9614L12.4702 20.5499L12.7872 22.7455C12.8336 23.0764 12.6942 23.4072 12.4237 23.6041C12.2652 23.7189 12.0794 23.7764 11.8935 23.7764C11.7569 23.7764 11.6203 23.7463 11.4945 23.6834L11.4945 23.6889ZM10.8659 19.6094L11.5273 18.9286L10.5899 18.7672C10.3139 18.7207 10.0762 18.5458 9.945 18.2969L9.50228 17.4575L9.05957 18.2969C8.92839 18.5458 8.69064 18.718 8.41462 18.7672L7.48002 18.9286L8.14136 19.6094C8.33812 19.809 8.42831 20.0906 8.38731 20.3695L8.25067 21.3073L9.10055 20.8889C9.22626 20.8261 9.3629 20.796 9.49954 20.796C9.63618 20.796 9.77282 20.8261 9.89853 20.8889L10.7512 21.31L10.6146 20.3694C10.5736 20.0905 10.6665 19.8116 10.8605 19.6093L10.8659 19.6094ZM35.9614 10.5784H43.564C44.0641 10.5784 44.4658 10.1737 44.4658 9.67608C44.4658 9.17845 44.0614 8.77376 43.564 8.77376H35.9614C35.4613 8.77376 35.0595 9.17842 35.0595 9.67608C35.0595 10.1737 35.464 10.5784 35.9614 10.5784ZM35.9614 6.18178H43.564C44.0641 6.18178 44.4658 5.77712 44.4658 5.27945C44.4658 4.78182 44.0614 4.37713 43.564 4.37713H35.9614C35.4613 4.37713 35.0595 4.78179 35.0595 5.27945C35.0595 5.77709 35.464 6.18178 35.9614 6.18178Z" fill="url(#paint0_linear_2386_2712)"/>
<defs>
<linearGradient id="paint0_linear_2386_2712" x1="51.5051" y1="56" x2="1.67882" y2="2.62907" gradientUnits="userSpaceOnUse">
<stop stop-color="#FFDC61"/>
<stop offset="0.460765" stop-color="#FFDC61"/>
<stop offset="1" stop-color="#FF6EF1"/>
</linearGradient>
</defs>
</svg>
