<svg width="16" height="11" viewBox="0 0 16 11" fill="none" xmlns="http://www.w3.org/2000/svg">
<path d="M0 4.86134C0.0506776 4.86396 0.101355 4.8692 0.151693 4.8692C3.559 4.86953 9.96596 4.86953 13.3733 4.86953C13.4219 4.86953 13.4709 4.86953 13.5443 4.86953C12.3196 3.68693 11.1156 2.52432 9.92005 1.37023C10.2323 1.06803 10.5306 0.77959 10.8197 0.5C12.5434 2.1641 14.2756 3.83705 16 5.5018C14.28 7.16262 12.5498 8.83328 10.8237 10.5C10.5425 10.2214 10.2479 9.92968 9.94589 9.63042C11.1247 8.49207 12.3305 7.32782 13.5365 6.16357C13.5307 6.15276 13.525 6.14194 13.5195 6.13112C13.475 6.13112 13.4304 6.13112 13.3859 6.13112C9.97004 6.13112 3.55458 6.13113 0.138768 6.13145C0.0925123 6.13145 0.0462562 6.1367 0.000340283 6.13932C0.000340283 5.71322 0 5.28744 0 4.86134Z" fill="url(#paint0_linear_2267_333)"/>
<defs>
<linearGradient id="paint0_linear_2267_333" x1="3" y1="5.5" x2="16" y2="5.5" gradientUnits="userSpaceOnUse">
<stop stop-color="#003E63"/>
<stop offset="1" stop-color="#0D669C"/>
</linearGradient>
</defs>
</svg>
