<svg width="49" height="56" viewBox="0 0 49 56" fill="none" xmlns="http://www.w3.org/2000/svg">
<path fill-rule="evenodd" clip-rule="evenodd" d="M47.3439 38.724C48.0086 36.6357 47.8176 34.3676 46.8146 32.4203C45.2894 29.4472 42.1351 27.6919 38.8187 27.9715C35.5049 28.2535 32.6866 30.5168 31.6762 33.7039C30.3009 38.053 32.6866 42.7036 37.0107 44.0914C41.3349 45.4747 45.9564 43.0728 47.3387 38.7261L47.3439 38.724ZM37.5134 31.2995L37.8663 31.7492C38.0113 31.9704 38.2772 32.0774 38.5334 32.0239C39.1667 31.8805 39.8217 31.8878 40.4526 32.0434C40.6919 32.1017 40.9457 32.0142 41.1004 31.8197L41.5016 31.3092L42.6957 32.0215L42.454 32.6438C42.3573 32.8723 42.4008 33.1373 42.5676 33.322C42.9785 33.7815 43.2855 34.3285 43.4667 34.9217C43.5296 35.1648 43.7302 35.3495 43.9767 35.3908L44.7188 35.5148V36.9175L43.9671 37.0415H43.9695C43.7205 37.0683 43.5127 37.2384 43.4329 37.4767C43.3435 37.7489 43.2275 38.0091 43.0873 38.257L43.0679 38.2886V38.2862C42.9181 38.5415 42.744 38.7797 42.5458 38.9985C42.3742 39.1784 42.321 39.4409 42.4129 39.6743L42.6981 40.4084L41.4992 41.1256L41.0303 40.5275C40.8829 40.316 40.6218 40.2164 40.3705 40.2723C39.7928 40.4036 39.1934 40.4109 38.6133 40.2917C38.3788 40.2455 38.1395 40.3331 37.9921 40.5227L37.5159 41.1304L36.2615 40.4035L36.5249 39.7253H36.5225C36.6144 39.4944 36.5612 39.2318 36.392 39.0519C35.9617 38.5998 35.6378 38.0528 35.4469 37.4572C35.3744 37.2287 35.181 37.0609 34.9466 37.022L34.3036 36.9151V35.5148L34.9031 35.4127C35.1448 35.3738 35.3406 35.1963 35.4082 34.9605C35.5895 34.3479 35.9037 33.7839 36.3267 33.3123C36.5177 33.1324 36.583 32.8528 36.4863 32.6097L36.2591 32.0263L37.5134 31.2995ZM35.1519 31.1925L37.3467 29.9235C37.6198 29.7582 37.9727 29.8238 38.1709 30.0742L38.6591 30.6965C39.2175 30.6187 39.7855 30.626 40.3439 30.716L40.82 30.1107C41.0086 29.8311 41.3808 29.746 41.6708 29.9186L43.8075 31.1949C44.0758 31.3554 44.1894 31.686 44.0758 31.9801L43.7664 32.7726C43.9332 32.989 44.0855 33.2175 44.2184 33.4558C44.349 33.694 44.4626 33.9371 44.5592 34.1924L45.4173 34.3358C45.7436 34.3674 45.9902 34.6445 45.9926 34.9727V37.4621C45.9902 37.7757 45.7654 38.0407 45.4584 38.0941L44.5036 38.2546V38.2522C44.4094 38.4782 44.303 38.697 44.1797 38.9061L44.158 38.945H44.1604C44.0323 39.1638 43.8897 39.3729 43.7326 39.5698L44.0734 40.4401L44.071 40.4425C44.1918 40.7366 44.0806 41.0745 43.8075 41.2374L41.6708 42.5137H41.6684C41.3953 42.6766 41.0448 42.611 40.849 42.3606L40.2496 41.5996V41.5972C39.7541 41.6701 39.2513 41.675 38.7558 41.6142L38.1733 42.3581H38.1708C37.9775 42.6085 37.6294 42.6741 37.3563 42.5185L35.1906 41.2641C34.8909 41.1183 34.7531 40.7658 34.8739 40.4546L35.1954 39.6281C35.0286 39.419 34.8739 39.1978 34.7362 38.9644C34.5984 38.7286 34.4751 38.4831 34.3712 38.2302L33.5977 38.1014H33.6001C33.2738 38.0673 33.0249 37.7926 33.0249 37.4645V34.9751C33.0273 34.6615 33.2521 34.3941 33.559 34.343L34.3156 34.2191C34.5162 33.6794 34.8039 33.1737 35.1616 32.724L34.874 31.985V31.9874C34.7604 31.6932 34.8764 31.3578 35.1495 31.1998L35.1519 31.1925ZM41.7604 36.2126V36.215C41.7604 36.8155 41.5236 37.3916 41.1006 37.817C40.3416 38.5804 39.15 38.6995 38.2556 38.099C37.3613 37.501 37.0133 36.3487 37.4241 35.3495C37.835 34.3503 38.8889 33.7815 39.9451 33.9906C40.999 34.2021 41.7604 35.1307 41.7604 36.2126ZM43.0367 36.2126V36.215C43.0367 37.1558 42.6644 38.0601 42.0021 38.7238C40.8129 39.9199 38.9469 40.1022 37.5499 39.1614C36.1504 38.2206 35.6089 36.4167 36.2519 34.8536C36.8972 33.2904 38.5505 32.4031 40.2014 32.7362C41.8523 33.0668 43.039 34.523 43.0366 36.2174L43.0367 36.2126ZM43.5008 6.00711V6.00954C43.5008 6.36447 43.2155 6.6513 42.8627 6.6513C42.5098 6.6513 42.2246 6.36444 42.2246 6.00954V2.944L28.713 13.7865C28.452 13.9955 28.07 13.9639 27.8477 13.7135L24.3091 9.74367L3.59246 24.7185C3.30724 24.9251 2.91081 24.8595 2.70779 24.5726C2.50234 24.2882 2.5676 23.8895 2.8504 23.6829L24.0292 8.37198C24.2975 8.17749 24.6722 8.22368 24.8873 8.48137L28.3897 12.4123L41.4347 1.93954L38.4278 1.25154C38.1112 1.15187 37.9202 0.82368 37.9928 0.497945C38.0677 0.172185 38.3771 -0.0417454 38.7082 0.00687836L42.9574 0.981718H42.955C43.2692 1.02791 43.5013 1.29775 43.5013 1.6162V6.0115L43.5008 6.00711ZM34.3107 28.2242V12.6021L34.3131 12.6045C34.3107 12.4343 34.3784 12.2715 34.4992 12.1523C34.6177 12.0308 34.7796 11.9627 34.9488 11.9627H42.8623C43.2152 11.9627 43.5004 12.252 43.5004 12.6045V27.5575C45.596 28.5348 47.2662 30.2463 48.1968 32.3734C49.1274 34.4982 49.253 36.8951 48.5545 39.1072L48.5473 39.1266V39.1291C47.781 41.5358 46.0964 43.5389 43.8629 44.6985C41.632 45.8606 39.0312 46.0818 36.6356 45.316L36.6163 45.3087C35.7631 45.034 34.9534 44.6402 34.2113 44.1394L32.8191 45.3987C32.7514 45.9651 32.529 46.5023 32.1713 46.9472L32.1447 46.9813L25.3914 54.8166C25.3696 54.8433 25.3455 54.8701 25.3189 54.8944C23.5979 56.4721 20.9294 56.3457 19.3631 54.6148C17.7944 52.8839 17.9202 50.2 19.6411 48.6247C19.6604 48.6077 19.6822 48.5907 19.704 48.5761L28.1471 42.535C28.6789 42.1728 29.3098 41.9929 29.9527 42.0197L30.0035 41.9735H0.657449C0.485838 41.9783 0.319053 41.9127 0.195787 41.7936C0.0701011 41.672 0 41.5067 0 41.3317C0 41.1591 0.0700949 40.9913 0.195787 40.8722C0.319059 40.7507 0.485838 40.685 0.657449 40.6899H2.58147L2.58389 30.6421C2.58389 30.2896 2.8691 30.0028 3.22197 30.0028H11.2079C11.5608 30.0028 11.846 30.2897 11.846 30.6421V40.6874H13.1318V24.6546C13.1343 24.2996 13.4195 24.0128 13.7699 24.0128H21.7583C22.1112 24.0128 22.3964 24.2997 22.3964 24.6546V40.6874H23.7572V18.667C23.7596 18.3121 24.0448 18.0252 24.3953 18.0252H32.3113C32.4805 18.0252 32.6424 18.0933 32.7633 18.2124C32.8817 18.334 32.9494 18.4969 32.9494 18.667V29.3122C33.37 28.9087 33.8244 28.5464 34.3102 28.2255L34.3107 28.2242ZM42.2242 27.0694C40.0319 26.4057 37.6728 26.5662 35.5866 27.5216V13.2444H42.2242V27.0694ZM10.5726 40.6882V31.2852H3.85766V40.6882H10.5726ZM31.6741 30.8228H31.6717C30.7073 32.2474 30.1416 33.9054 30.0377 35.6266C29.9314 37.3453 30.2891 39.0616 31.0747 40.5932L31.123 40.688H25.0368V19.3092H31.6744L31.6741 30.8228ZM21.1234 40.6882V25.2977H14.4109V40.6882H21.1234ZM31.9377 41.9742C32.3099 42.4702 32.7281 42.9272 33.1897 43.3429L32.6048 43.8728H32.6024C32.3558 43.2797 31.928 42.7813 31.3817 42.4507L31.9086 41.9742L31.9377 41.9742ZM28.6214 43.7659L28.839 43.6103L28.8559 43.5982C29.5689 43.1144 30.5261 43.2262 31.1062 43.8631C31.6887 44.4976 31.7225 45.4652 31.1859 46.1385L30.9829 46.3744L28.6238 43.761L28.6214 43.7659ZM30.1442 47.3492L27.5797 44.5098L20.4761 49.5907C19.3014 50.6992 19.2313 52.5492 20.3142 53.7453C21.397 54.9414 23.2365 55.041 24.4402 53.9665L30.1442 47.3492ZM23.0889 52.9358C23.6497 52.644 23.9276 51.9974 23.7536 51.3872C23.5796 50.7794 23.0019 50.3783 22.3758 50.4318C21.7474 50.4828 21.2446 50.9763 21.1721 51.6059C21.102 52.2356 21.4839 52.8263 22.0834 53.0208C22.4169 53.1253 22.7795 53.0962 23.0889 52.9358Z" fill="url(#paint0_linear_2386_2692)"/>
<defs>
<linearGradient id="paint0_linear_2386_2692" x1="8.02446" y1="-6.05657e-07" x2="40.9755" y2="56" gradientUnits="userSpaceOnUse">
<stop stop-color="#003E63"/>
<stop offset="1" stop-color="#0D669C"/>
</linearGradient>
</defs>
</svg>
