<svg width="50" height="56" viewBox="0 0 50 56" fill="none" xmlns="http://www.w3.org/2000/svg">
<path fill-rule="evenodd" clip-rule="evenodd" d="M39.4042 14.2435H42.9833C43.4506 14.2435 43.8287 13.8657 43.8287 13.4041C43.8287 12.9401 43.4506 12.5647 42.9833 12.5647H39.4042C38.9392 12.5647 38.5587 12.9401 38.5587 13.4041C38.5587 13.8658 38.9392 14.2435 39.4042 14.2435ZM37.8941 7.92948L41.3511 7.01079C41.802 6.88954 42.0697 6.43021 41.95 5.98252C41.8302 5.53484 41.3652 5.26905 40.9142 5.38795L37.4572 6.30897C37.0063 6.42788 36.7386 6.88954 36.8607 7.33724C36.9805 7.78491 37.4455 8.05071 37.8941 7.92948ZM37.4572 20.4971L40.9143 21.4182C41.3652 21.5371 41.8302 21.2713 41.95 20.8236C42.0698 20.3759 41.802 19.9166 41.3511 19.7976L37.8941 18.8766C37.4455 18.7577 36.9805 19.0235 36.8607 19.4712C36.7386 19.9189 37.0063 20.3782 37.4572 20.4971ZM8.9413 17.037C9.21607 17.6385 9.59892 18.1935 10.078 18.6715C10.4937 19.0842 10.9681 19.4246 11.4824 19.6834L9.60354 29.9637C9.49317 30.5723 9.66226 31.1972 10.0662 31.6682C10.4678 32.1368 11.0619 32.4027 11.6843 32.391L13.5232 32.356C14.5119 32.3373 15.3481 31.6309 15.5242 30.6656L16.6232 24.6477L17.72 24.8459L18.0417 24.8715L18.3588 24.8342L18.6641 24.7363L18.9459 24.5824L19.1925 24.3725L19.3921 24.1254L19.5378 23.8409L19.627 23.5332L20.1084 20.8961L29.0047 24.0974V24.6453C29.0047 25.8391 29.9794 26.8068 31.1818 26.8068H32.3819C33.5844 26.8068 34.559 25.8391 34.559 24.6453V2.16142C34.559 0.96763 33.5844 0 32.3819 0H31.1818C29.9794 0 29.0047 0.96763 29.0047 2.16142V2.70936L18.4154 6.52156H14.0072C12.5324 6.52156 11.1209 7.10214 10.0781 8.13503C9.59904 8.61301 9.21623 9.16563 8.94147 9.76951C7.39615 9.86977 6.17255 11.1498 6.17255 12.7097V14.097C6.17255 15.6569 7.39598 16.9344 8.9413 17.037ZM15.7026 20.2873L13.8614 30.3647C13.8285 30.5442 13.6735 30.6748 13.4903 30.6771L11.6514 30.7144C11.5387 30.7144 11.426 30.6655 11.3532 30.5792C11.278 30.4929 11.2475 30.3763 11.2663 30.2644L13.1028 20.2127C13.3987 20.2616 13.7017 20.2873 14.007 20.2873L15.7026 20.2873ZM29.0047 4.49517V22.3113L19.411 18.8582V7.9487L29.0047 4.49517ZM17.7197 8.20011V18.6088H14.0067C12.9804 18.6088 11.9988 18.2031 11.273 17.485C10.5497 16.7645 10.141 15.7875 10.141 14.7709V12.0359C10.141 11.0194 10.5497 10.0424 11.273 9.32424C11.9987 8.60379 12.9804 8.20041 14.0067 8.20041L17.7197 8.20011ZM8.46633 11.6323C8.45694 11.7675 8.44989 11.9004 8.44989 12.0356V14.7706C8.44989 14.9059 8.45694 15.0411 8.46633 15.174C8.10231 14.9502 7.86277 14.5514 7.86277 14.0968V12.7095C7.86277 12.2571 8.10232 11.8561 8.46633 11.6323ZM30.6953 2.1613C30.6953 1.8955 30.9137 1.67866 31.1814 1.67866H32.3815C32.6493 1.67866 32.8677 1.8955 32.8677 2.1613V24.6452C32.8677 24.911 32.6493 25.1279 32.3815 25.1279H31.1814C30.9137 25.1279 30.6953 24.911 30.6953 24.6452V2.1613ZM18.4147 20.2873L18.4946 20.3153L17.9709 23.1832L16.9258 22.9966L17.419 20.2873L18.4147 20.2873ZM49.4576 32.5911C48.382 30.7888 46.0429 30.1755 44.211 31.2271L37.7148 34.9484C37.0102 34.0274 35.8971 33.4328 34.6406 33.4328H15.1832C14.1076 33.4328 13.0672 33.8292 12.2664 34.5427L8.60504 37.807C8.13298 37.5109 7.58813 37.336 7.01979 37.3033C6.15085 37.2567 5.29597 37.5575 4.64779 38.1357L0.279557 42.0295C-0.0656765 42.3396 -0.0962064 42.8713 0.216146 43.2163L11.5335 55.7207C11.8436 56.0658 12.379 56.0961 12.7266 55.7837L17.0948 51.8899C17.743 51.3116 18.1329 50.5002 18.1799 49.6375C18.2034 49.2085 18.1399 48.7865 18.0014 48.3901L19.5537 47.0052C20.0446 46.5691 20.681 46.3267 21.341 46.3267H31.6465C32.7339 46.3267 33.8024 46.0422 34.7465 45.5013L48.0696 37.8628C49.892 36.8182 50.5309 34.5239 49.5234 32.7006L49.4576 32.5911ZM48.0626 33.5518C48.5981 34.5683 48.2341 35.8298 47.2242 36.4104L33.9011 44.0465C33.2154 44.4405 32.438 44.648 31.6466 44.648H21.341C20.2654 44.648 19.225 45.0421 18.4241 45.7579L17.062 46.9727L9.8263 38.9755L13.3961 35.7928C13.8869 35.3545 14.5233 35.112 15.1833 35.112H34.6406C35.4767 35.112 36.2024 35.5806 36.5641 36.2685C36.5899 36.3198 36.6134 36.3687 36.6369 36.4224C36.7473 36.6788 36.8083 36.9633 36.8083 37.2641V37.2664C36.8083 38.4556 35.8384 39.4185 34.6406 39.4185H22.7502C22.2829 39.4185 21.9048 39.7939 21.9048 40.2579C21.9048 40.7196 22.2829 41.0973 22.7502 41.0973H34.6406C36.7707 41.0973 38.4993 39.3812 38.4993 37.2664V37.264C38.4993 36.9959 38.4711 36.7371 38.4194 36.4853L45.0563 32.68C46.0802 32.0925 47.3907 32.4329 47.9966 33.4378L48.0626 33.5518ZM5.77749 39.3831C6.09219 39.1033 6.50785 38.9588 6.93063 38.9821C7.35337 39.0031 7.74793 39.1919 8.03207 39.5044L16.0854 48.4041C16.3673 48.7166 16.5129 49.1269 16.4917 49.5466C16.4682 49.9663 16.278 50.3604 15.9633 50.6402L12.2268 53.9744L2.04154 42.7175L5.77749 39.3831Z" fill="url(#paint0_linear_2386_2699)"/>
<defs>
<linearGradient id="paint0_linear_2386_2699" x1="8.18822" y1="-6.05657e-07" x2="40.8126" y2="56.5762" gradientUnits="userSpaceOnUse">
<stop stop-color="#003E63"/>
<stop offset="1" stop-color="#0D669C"/>
</linearGradient>
</defs>
</svg>
