<svg width="56" height="56" viewBox="0 0 56 56" fill="none" xmlns="http://www.w3.org/2000/svg">
<g clip-path="url(#clip0_2386_2719)">
<path d="M23.5422 26.8592V30.3208C23.5919 31.893 24.8365 33.1551 26.387 33.2055H29.9904C31.5408 33.1551 32.7854 31.893 32.8352 30.3208V26.9553L35.0162 21.4745C35.1513 21.2365 35.1513 20.9432 35.0162 20.7052L29.0421 8.97445L28.8524 8.68598C28.4826 8.32058 27.8947 8.32058 27.5249 8.68598L27.3352 8.97445L21.3611 20.6092C21.226 20.8472 21.226 21.1405 21.3611 21.3785L23.5422 26.8592ZM30.9389 30.417C30.8939 30.929 30.4956 31.3329 29.9907 31.3785H26.3873C25.8823 31.3329 25.484 30.929 25.439 30.417V27.9169H30.9389V30.417ZM28.189 19.7435C28.4403 19.7435 28.6821 19.8444 28.8599 20.0247C29.0377 20.205 29.1373 20.4502 29.1373 20.705C29.0922 21.2171 28.694 21.6209 28.189 21.6666C27.6651 21.6666 27.2407 21.2363 27.2407 20.705C27.2099 20.4406 27.3 20.1786 27.4849 19.9911C27.6698 19.8036 27.9282 19.7122 28.189 19.7435ZM27.2407 13.3008V18.0125C26.0957 18.3923 25.3253 19.4836 25.3442 20.7048C25.3442 22.2986 26.6173 23.5895 28.189 23.5895C29.7607 23.5895 31.0338 22.2986 31.0338 20.7048C31.0528 19.4836 30.2823 18.3923 29.1373 18.0125V13.3008L33.12 21.0893L31.1286 25.9934H25.2494L23.2581 21.0893L27.2407 13.3008ZM52.6542 8.87765H41.0857C39.7984 6.79827 37.9588 5.12998 35.7754 4.06983H40.5167V5.03139C40.5167 5.2862 40.6163 5.5314 40.7941 5.71172C40.9719 5.89203 41.2137 5.99297 41.465 5.99297H45.2581C45.5094 5.99297 45.7512 5.89201 45.929 5.71172C46.1068 5.53142 46.2064 5.28622 46.2064 5.03139V1.18514C46.2372 0.920707 46.1471 0.658682 45.9622 0.471151C45.7773 0.283644 45.5189 0.1923 45.2581 0.22355H41.465C41.2042 0.1923 40.9458 0.283648 40.7609 0.471151C40.576 0.658657 40.4859 0.920682 40.5167 1.18514V2.1467H30.9394C30.6099 0.882238 29.4791 0 28.1895 0C26.8998 0 25.769 0.882238 25.4395 2.1467H15.8622V1.18514C15.893 0.920707 15.8029 0.658682 15.618 0.471151C15.4331 0.283644 15.1747 0.1923 14.9139 0.22355H11.1209C10.8601 0.1923 10.6017 0.283648 10.4168 0.471151C10.2318 0.658657 10.1418 0.920682 10.1726 1.18514V5.03139C10.1726 5.2862 10.2721 5.5314 10.4499 5.71172C10.6277 5.89203 10.8696 5.99297 11.1209 5.99297H14.9139C15.1652 5.99297 15.407 5.89201 15.5848 5.71172C15.7627 5.53142 15.8622 5.28622 15.8622 5.03139V4.06983H20.6035C18.4201 5.12998 16.5805 6.79827 15.2932 8.87765H3.34481C2.60756 8.82476 1.88208 9.08438 1.34395 9.59403C0.803446 10.1061 0.497647 10.8224 0.500014 11.57V41.7628C0.497643 42.5104 0.803458 43.2268 1.34395 43.7388C1.88209 44.2484 2.6075 44.508 3.34481 44.4552H22.1207L20.6035 54.0708H12.8281C12.3041 54.0708 11.8798 54.5011 11.8798 55.0324C11.849 55.2968 11.9391 55.5588 12.124 55.7464C12.3089 55.9339 12.5673 56.0252 12.8281 55.994H43.1725C43.4333 56.0252 43.6917 55.9339 43.8767 55.7464C44.0616 55.5589 44.1516 55.2968 44.1208 55.0324C44.1208 54.7776 44.0213 54.5324 43.8435 54.3521C43.6657 54.1717 43.4239 54.0708 43.1725 54.0708H36.345L34.8278 44.4552H52.6552C53.3924 44.508 54.1179 44.2484 54.656 43.7388C55.1966 43.2267 55.5024 42.5104 55.5 41.7628V11.57C55.5024 10.8224 55.1965 10.106 54.656 9.59401C54.1179 9.08439 53.3925 8.82476 52.6552 8.87763L52.6542 8.87765ZM42.413 2.14639H44.3095V4.06952H42.413V2.14639ZM13.965 4.06952H12.0685V2.14639H13.965V4.06952ZM41.939 14.2618C42.1998 14.2305 42.4582 14.3219 42.6431 14.5094C42.828 14.6969 42.9181 14.9589 42.8873 15.2234C42.8873 15.4782 42.7877 15.7234 42.6099 15.9037C42.4321 16.084 42.1903 16.185 41.939 16.185C41.434 16.1393 41.0358 15.7354 40.9907 15.2234C40.9907 14.6921 41.4151 14.2618 41.939 14.2618ZM28.1893 1.76177C28.4406 1.76177 28.6824 1.86273 28.8602 2.04303C29.038 2.22332 29.1376 2.46852 29.1376 2.72335C29.0925 3.23538 28.6943 3.63925 28.1893 3.68491C27.6654 3.68491 27.2411 3.25461 27.2411 2.72335C27.2102 2.45892 27.3003 2.19689 27.4852 2.00936C27.6701 1.82186 27.9285 1.73052 28.1893 1.76177ZM14.4396 14.2618C14.6909 14.2618 14.9327 14.3627 15.1105 14.543C15.2884 14.7233 15.3879 14.9685 15.3879 15.2234C15.3429 15.7354 14.9446 16.1393 14.4396 16.1849C13.9157 16.1849 13.4914 15.7546 13.4914 15.2234C13.4606 14.9589 13.5506 14.6969 13.7355 14.5094C13.9205 14.3219 14.1788 14.2305 14.4396 14.2618ZM3.34507 10.8002H14.2503L13.6813 12.4348C12.4249 12.7521 11.5572 13.9108 11.5951 15.2233C11.5951 16.8171 12.8682 18.108 14.4399 18.108C15.8339 18.1705 17.0666 17.1969 17.3487 15.8098C17.6332 14.4252 16.8817 13.0357 15.5778 12.5309C16.3317 10.2977 17.728 8.34329 19.5866 6.92018C21.4476 5.49707 23.6831 4.67255 26.0087 4.5499C26.5493 5.20377 27.3481 5.58359 28.1898 5.58359C29.0314 5.58359 29.8303 5.20377 30.3708 4.5499C32.6964 4.6725 34.932 5.49707 36.7929 6.92018C38.6515 8.34329 40.0479 10.2977 40.8017 12.5309C39.4979 13.0357 38.7464 14.4252 39.0308 15.8098C39.3129 17.1969 40.5457 18.1704 41.9396 18.108C43.5114 18.108 44.7844 16.8171 44.7844 15.2233C44.8224 13.9108 43.9547 12.7521 42.6983 12.4348L42.1293 10.8002H52.6552C52.8828 10.7737 53.1104 10.8386 53.2882 10.9829C53.466 11.1295 53.5798 11.3386 53.6035 11.5694V35.8008H2.39719V11.5694C2.4209 11.3386 2.53469 11.1295 2.71249 10.9829C2.89029 10.8386 3.11747 10.7737 3.34507 10.8002ZM34.4481 54.0702H22.4997L24.0169 44.4546H32.9309L34.4481 54.0702ZM52.6548 42.5314H3.34507C3.11749 42.5579 2.88991 42.493 2.71209 42.3487C2.53429 42.2021 2.4205 41.993 2.39679 41.7622V37.7236H53.6031V41.7622C53.5794 41.993 53.4656 42.2021 53.2878 42.3487C53.11 42.493 52.8824 42.5579 52.6548 42.5314Z" fill="url(#paint0_linear_2386_2719)"/>
</g>
<defs>
<linearGradient id="paint0_linear_2386_2719" x1="51.9404" y1="56" x2="2.18512" y2="1.71821" gradientUnits="userSpaceOnUse">
<stop stop-color="#FFDC61"/>
<stop offset="0.460765" stop-color="#FFDC61"/>
<stop offset="1" stop-color="#FF6EF1"/>
</linearGradient>
<clipPath id="clip0_2386_2719">
<rect width="56" height="56" fill="white"/>
</clipPath>
</defs>
</svg>
