<svg width="54" height="56" viewBox="0 0 54 56" fill="none" xmlns="http://www.w3.org/2000/svg">
<path d="M25.8967 52.1611C25.8967 52.6615 25.4923 53.0634 24.9949 53.0634H20.9038C20.4037 53.0634 20.002 52.6588 20.002 52.1611C20.002 51.6635 20.4064 51.2588 20.9038 51.2588H24.9949C25.495 51.2588 25.8967 51.6635 25.8967 52.1611ZM49.9344 30.8996C50.164 31.7664 49.6502 32.6577 48.7866 32.8902L47.8383 33.1445C47.6989 33.1828 47.5568 33.1992 47.4175 33.1992C46.6988 33.1992 46.0401 32.7179 45.8461 31.9933L45.7149 31.5039C43.7527 30.886 41.7715 30.7876 39.6999 31.2086L40.9953 36.0427C41.0582 36.2751 41.0254 36.5212 40.9051 36.729C40.7849 36.9368 40.5881 37.0872 40.3558 37.1501L38.6669 37.6012V51.4284C38.6669 53.9494 36.6173 56 34.0977 56H11.7866C9.26694 56 7.21738 53.9493 7.21738 51.4284V26.6727H3.37503C1.51394 26.6727 0 25.1606 0 23.2986V15.0985C0 13.2392 1.51401 11.7244 3.37503 11.7244H7.21738V7.93748C7.21738 5.41648 9.26701 3.36586 11.7866 3.36586H30.2576C30.263 1.50934 31.7743 0 33.6326 0H43.8783C45.7393 0 47.2533 1.5148 47.2533 3.37678V11.5713C47.2533 13.4305 45.7393 14.9453 43.8783 14.9453H38.6668V21.8165C40.0906 21.1521 41.3204 20.2498 42.3889 19.085L42.2577 18.5929C42.1457 18.1745 42.203 17.737 42.4217 17.3597C42.6376 16.9824 42.9874 16.7144 43.4055 16.6051L44.3565 16.3535C44.7746 16.2414 45.2092 16.2988 45.5863 16.5149C45.9633 16.7309 46.2339 17.0836 46.346 17.5019L47.379 21.3545C47.8764 21.3709 48.3656 21.5103 48.811 21.7674C49.5243 22.1802 50.0353 22.8419 50.2485 23.6376C50.4616 24.4333 50.3523 25.2617 49.9397 25.9754C49.6828 26.421 49.3302 26.7847 48.9066 27.0499L49.9397 30.9025L49.9344 30.8996ZM47.9067 23.3316L48.3713 25.0733C48.5407 24.778 48.5871 24.4335 48.4997 24.1054C48.4122 23.7773 48.2018 23.5039 47.9067 23.3343L47.9067 23.3316ZM37.484 29.9047L36.063 24.5948L31.9145 25.7076C31.7751 25.7459 31.7014 25.8416 31.6713 25.8963C31.6385 25.951 31.592 26.0631 31.6303 26.2025L32.8437 30.7305C32.9011 30.9437 33.1252 31.0723 33.3383 31.0176L37.4895 29.9048L37.484 29.9047ZM32.0702 11.574C32.0702 12.438 32.7753 13.1407 33.6389 13.1407H34.6856C35.1857 13.1407 35.5874 13.5454 35.5874 14.043V14.6391L36.7434 13.4223C36.9128 13.2419 37.1506 13.1407 37.3993 13.1407H43.887C44.7533 13.1407 45.4556 12.438 45.4556 11.574V3.37948C45.4556 2.51271 44.7505 1.81001 43.887 1.81001H33.6413C32.775 1.81001 32.0726 2.51544 32.0726 3.37948V11.574L32.0702 11.574ZM19.6635 5.17586C19.9422 5.48756 20.2128 5.67896 20.5407 5.67896H25.5855C25.8588 5.67896 26.0337 5.55045 26.3042 5.17586H19.6635ZM3.38372 24.868H9.87142C10.1201 24.868 10.3551 24.9692 10.5273 25.1496L11.6805 26.3664V25.7703C11.6805 25.27 12.085 24.868 12.5824 24.868H13.6291C14.4926 24.868 15.195 24.1653 15.195 23.3013V15.1012C15.195 14.2371 14.4926 13.5344 13.6291 13.5344H3.38337C2.51705 13.5344 1.81472 14.2371 1.81472 15.1012V23.3013C1.81472 24.1653 2.52013 24.868 3.38372 24.868ZM9.03246 26.6753V48.3281H12.883V40.9099C12.883 37.9159 15.4737 35.4824 18.6575 35.4824H20.032C19.4909 35.034 19.0045 34.4735 18.5864 33.7953C17.6928 32.3435 17.1598 30.3857 17.1598 28.5538C17.1598 25.0376 20.0183 22.1775 23.5301 22.1775C27.0417 22.1775 29.903 25.0375 29.903 28.5538C29.903 31.1923 28.911 33.9402 27.0226 35.4823H28.4027C31.5865 35.4823 34.1772 37.9186 34.1772 40.9098V48.328H36.8718V36.9564L34.7839 32.4995L33.8055 32.762C33.617 32.8113 33.4257 32.8359 33.2371 32.8359C32.2642 32.8359 31.3678 32.1851 31.1 31.2008L29.8866 26.6701C29.7336 26.1014 29.8129 25.5053 30.108 24.9941C30.4032 24.4828 30.8787 24.1164 31.4471 23.9632L36.4673 22.6152C36.6012 22.5797 36.7351 22.5414 36.8663 22.5004V15.9164L35.3414 17.5268C35.1692 17.71 34.9287 17.8085 34.6855 17.8085C34.5735 17.8085 34.4587 17.7866 34.3521 17.7429C34.0105 17.6061 33.7837 17.2726 33.7837 16.9035V14.9457H33.6416C31.7805 14.9457 30.2666 13.4336 30.2666 11.5717V5.17082H28.8154C28.5941 5.17082 28.4219 5.26105 28.2935 5.44425C28.2224 5.54268 28.1514 5.65478 28.0748 5.77236C27.6376 6.45319 26.9735 7.48126 25.5852 7.48126H20.5405C19.0402 7.48126 18.1793 6.25631 17.6655 5.52625L17.6081 5.44422C17.4797 5.26102 17.3075 5.17079 17.0862 5.17079H11.7954C10.2732 5.17079 9.03255 6.41211 9.03255 7.9351V11.7221H13.6291C15.4874 11.7221 17.0014 13.2341 17.0014 15.0961V23.2962C17.0014 25.1555 15.4902 26.6703 13.6291 26.6703H13.487V28.628C13.487 28.9971 13.263 29.3307 12.9186 29.4674C12.8093 29.5112 12.6973 29.533 12.5852 29.533C12.342 29.533 12.1042 29.4346 11.9293 29.2514L9.48345 26.673H9.03527L9.03246 26.6753ZM30.1738 43.7013V48.3277H32.3655V40.9094C32.3655 38.9134 30.5837 37.2866 28.3974 37.2866H18.6547C16.4657 37.2866 14.6866 38.9107 14.6866 40.9094V48.3277H16.8838V43.7013C16.8838 43.201 17.2883 42.799 17.7857 42.799C18.2831 42.799 18.6875 43.2037 18.6875 43.7013V48.3277H28.3672V43.7013C28.3672 43.201 28.7717 42.799 29.2691 42.799C29.7665 42.799 30.171 43.2037 30.171 43.7013H30.1738ZM23.5275 34.9188C26.8534 34.9188 28.094 31.0144 28.094 28.5535C28.094 26.0352 26.0444 23.9846 23.5275 23.9846C21.0078 23.9846 18.9637 26.0353 18.9637 28.5535C18.9637 31.0143 20.2017 34.9188 23.5275 34.9188ZM36.8662 51.4283V50.1322H9.03246V51.4283C9.03246 52.9512 10.2731 54.1926 11.7953 54.1926H34.1064C35.6286 54.1926 36.8692 52.9512 36.8692 51.4283H36.8662ZM39.0223 35.6377L37.9538 31.6485L36.5519 32.0231L38.331 35.8209L39.0224 35.635L39.0223 35.6377ZM45.1794 29.4912L42.9331 21.1077C41.4765 22.4638 39.7794 23.4537 37.7981 24.1016L39.2356 29.4635C41.2551 29.0424 43.2446 29.051 45.1794 29.4912ZM48.1445 31.1919L44.6493 18.1438L44.0508 18.3024L47.546 31.3505L48.1418 31.1891L48.1445 31.1919ZM53.9682 22.6362C53.8397 22.155 53.3451 21.8678 52.8614 21.9991L51.4704 22.3737C50.9894 22.5022 50.7024 22.9998 50.8336 23.481C50.9429 23.883 51.3064 24.1482 51.7054 24.1482C51.7819 24.1482 51.8612 24.1373 51.9404 24.1154L53.3315 23.7408C53.8124 23.6123 54.0994 23.1146 53.9682 22.6334L53.9682 22.6362ZM52.9488 26.6719L51.7027 25.9501C51.2709 25.7013 50.7189 25.8462 50.4702 26.2782C50.2215 26.7102 50.3664 27.2625 50.7982 27.5113L52.0443 28.2331C52.1864 28.3152 52.3422 28.3562 52.4952 28.3562C52.8068 28.3562 53.1101 28.1949 53.2768 27.905C53.5255 27.473 53.3806 26.9207 52.9488 26.6719ZM49.1147 21.2362C49.2568 21.3183 49.4126 21.3565 49.5656 21.3565C49.8771 21.3565 50.1805 21.1952 50.3472 20.9054L51.0659 19.6586C51.3146 19.2266 51.167 18.6743 50.7352 18.4255C50.3034 18.1767 49.7514 18.3243 49.5027 18.7563L48.784 20.0031C48.5353 20.4351 48.6829 20.9874 49.1147 21.2362ZM10.4945 23.6889L8.50496 22.7073L6.51822 23.6889C6.21761 23.8365 5.85961 23.8064 5.58908 23.6096C5.31855 23.4127 5.17643 23.0819 5.22562 22.7483L5.54262 20.5527L3.99587 18.9641C3.76084 18.7235 3.68159 18.3735 3.7827 18.0563C3.88655 17.7364 4.1571 17.5013 4.48776 17.4438L6.67402 17.0665L7.70706 15.1033C7.86283 14.808 8.17164 14.6221 8.50502 14.6221C8.83843 14.6221 9.14724 14.808 9.30299 15.1033L10.336 17.0665L12.5223 17.4438C12.853 17.5013 13.1235 17.7364 13.2273 18.0536C13.3312 18.3707 13.2492 18.7207 13.0142 18.9614L11.4702 20.5499L11.7872 22.7455C11.8336 23.0764 11.6942 23.4072 11.4237 23.6041C11.2652 23.7189 11.0794 23.7764 10.8935 23.7764C10.7569 23.7764 10.6203 23.7463 10.4945 23.6834L10.4945 23.6889ZM9.86594 19.6094L10.5273 18.9286L9.58995 18.7672C9.31393 18.7207 9.07617 18.5458 8.945 18.2969L8.50228 17.4575L8.05957 18.2969C7.92839 18.5458 7.69064 18.718 7.41462 18.7672L6.48002 18.9286L7.14136 19.6094C7.33812 19.809 7.42831 20.0906 7.38731 20.3695L7.25067 21.3073L8.10055 20.889C8.22626 20.8261 8.3629 20.796 8.49954 20.796C8.63618 20.796 8.77282 20.8261 8.89853 20.889L9.75121 21.31L9.61457 20.3694C9.57358 20.0905 9.66649 19.8116 9.86052 19.6093L9.86594 19.6094ZM34.9614 10.5784H42.564C43.0641 10.5784 43.4658 10.1737 43.4658 9.67608C43.4658 9.17845 43.0614 8.77376 42.564 8.77376H34.9614C34.4613 8.77376 34.0595 9.17842 34.0595 9.67608C34.0595 10.1737 34.464 10.5784 34.9614 10.5784ZM34.9614 6.18178H42.564C43.0641 6.18178 43.4658 5.77712 43.4658 5.27945C43.4658 4.78182 43.0614 4.37713 42.564 4.37713H34.9614C34.4613 4.37713 34.0595 4.78179 34.0595 5.27945C34.0595 5.77709 34.464 6.18178 34.9614 6.18178Z" fill="url(#paint0_linear_2386_2713)"/>
<defs>
<linearGradient id="paint0_linear_2386_2713" x1="8.84328" y1="-6.05657e-07" x2="40.1661" y2="58.6647" gradientUnits="userSpaceOnUse">
<stop stop-color="#003E63"/>
<stop offset="1" stop-color="#0D669C"/>
</linearGradient>
</defs>
</svg>
