<svg width="56" height="56" viewBox="0 0 56 56" fill="none" xmlns="http://www.w3.org/2000/svg">
<path d="M15.206 27.1936C15.206 27.6167 14.8642 27.9629 14.4403 27.9629H7.22672C6.80563 27.9629 6.46106 27.6195 6.46106 27.1936C6.46106 26.7705 6.80286 26.4243 7.22672 26.4243H14.4403C14.8614 26.4243 15.206 26.7678 15.206 27.1936ZM14.4431 32.6226H7.22952C6.80843 32.6226 6.46386 32.966 6.46386 33.3919C6.46386 33.815 6.80565 34.1612 7.22952 34.1612H14.4431C14.8642 34.1612 15.2088 33.8178 15.2088 33.3919C15.2088 32.9688 14.867 32.6226 14.4431 32.6226ZM14.4431 29.5207H7.22952C6.80843 29.5207 6.46386 29.8641 6.46386 30.29C6.46386 30.7131 6.80565 31.0593 7.22952 31.0593H14.4431C14.8642 31.0593 15.2088 30.7159 15.2088 30.29C15.2088 29.8669 14.867 29.5207 14.4431 29.5207ZM14.4431 23.328H7.22952C6.80843 23.328 6.46386 23.6714 6.46386 24.0973C6.46386 24.5204 6.80565 24.8666 7.22952 24.8666H14.4431C14.8642 24.8666 15.2088 24.5232 15.2088 24.0973C15.2088 23.6742 14.867 23.328 14.4431 23.328ZM14.4431 20.2317H7.22952C6.80843 20.2317 6.46386 20.5751 6.46386 21.001C6.46386 21.4241 6.80565 21.7703 7.22952 21.7703H14.4431C14.8642 21.7703 15.2088 21.4269 15.2088 21.001C15.2088 20.5779 14.867 20.2317 14.4431 20.2317ZM30.2723 27.6006C30.2723 30.2162 28.1532 32.3454 25.55 32.3454C22.9468 32.3454 20.8277 30.2162 20.8277 27.6006C20.8277 24.985 22.9468 22.8558 25.55 22.8558C28.1532 22.8558 30.2723 24.985 30.2723 27.6006ZM28.7438 27.6006C28.7438 25.8313 27.3109 24.3916 25.55 24.3916C23.7891 24.3916 22.3562 25.8313 22.3562 27.6006C22.3562 29.3699 23.7891 30.8096 25.55 30.8096C27.3109 30.8096 28.7438 29.3699 28.7438 27.6006ZM43.8975 22.5289C44.0479 22.702 44.2612 22.7899 44.4717 22.7899C44.6495 22.7899 44.8299 22.7267 44.9749 22.6003L47.3046 20.548C47.4714 20.4024 47.5643 20.1908 47.5643 19.971C47.5643 19.7512 47.4686 19.5397 47.3046 19.3941L44.9749 17.3417C44.6577 17.0615 44.1737 17.0945 43.8975 17.4132C43.6186 17.7319 43.6514 18.2181 43.9686 18.4957L45.642 19.9711L43.9686 21.4465C43.6514 21.7267 43.6186 22.2101 43.8975 22.5289ZM39.0576 24.4494C39.1232 24.4658 39.1916 24.4741 39.2545 24.4741C39.5908 24.4741 39.8998 24.2488 39.9928 23.9054L41.9862 16.4352C42.0956 16.0259 41.8522 15.6055 41.4448 15.4956C41.0374 15.3858 40.619 15.6275 40.5096 16.0396L38.5162 23.5098C38.4069 23.9191 38.6474 24.3395 39.0576 24.4494ZM52.2128 5.97267H40.0201C39.599 5.97267 39.2544 6.31609 39.2544 6.74198C39.2544 7.16508 39.5962 7.51129 40.0201 7.51129H52.2128C52.6339 7.51129 52.9785 7.16786 52.9785 6.74198C52.9785 6.31888 52.6367 5.97267 52.2128 5.97267ZM56 6.4095V28.1743C56 30.0563 54.4742 31.5893 52.6011 31.5893H46.7139V41.9361C46.7139 43.4115 45.519 44.6121 44.0506 44.6121H28.7492V48.8459H31.2676C32.6485 48.8459 33.775 49.8239 33.775 51.0246V52.2307C33.775 52.6538 33.4332 53 33.0093 53H13.7074C13.2863 53 12.9417 52.6566 12.9417 52.2307V51.0246C12.9417 49.8213 14.0656 48.8459 15.4491 48.8459H17.9675V44.6121L2.66331 44.6094C1.19491 44.6094 0 43.4088 0 41.9334V15.2453C0 13.7699 1.19491 12.5693 2.66331 12.5693H24.5V6.40957C24.5 4.52758 26.0258 3 27.8989 3H52.6014C54.4745 3 56 4.53026 56 6.4095ZM30.5345 23.6933L31.1032 22.7372C30.8845 22.4844 30.6466 22.2454 30.3923 22.0229L29.438 22.5944C29.1919 22.74 28.8884 22.7372 28.645 22.5861C28.0981 22.2454 27.5102 22.0009 26.8923 21.858C26.6134 21.7921 26.3919 21.575 26.3235 21.2948L26.0555 20.215C25.886 20.2041 25.722 20.1986 25.5552 20.1958C25.4977 20.2068 25.4376 20.215 25.3747 20.215C25.3309 20.215 25.2845 20.2095 25.2434 20.2041C25.1778 20.2068 25.1149 20.2095 25.0493 20.215L24.7759 21.2975C24.7048 21.575 24.486 21.7921 24.2071 21.858C23.5891 22.0009 23.0012 22.2454 22.4544 22.5861C22.211 22.7372 21.9047 22.74 21.6614 22.5944L20.7098 22.0229C20.4582 22.2454 20.2203 22.4845 19.9989 22.7372L20.5676 23.6933C20.7153 23.9406 20.7098 24.2483 20.5594 24.4928C20.2231 25.0395 19.977 25.633 19.8321 26.2566C19.7664 26.5369 19.5504 26.7567 19.2742 26.8254L18.1996 27.0973C18.1886 27.2677 18.1832 27.4353 18.1832 27.6029C18.1832 27.7705 18.1886 27.9381 18.2023 28.1111L19.277 28.3831C19.5559 28.4518 19.7692 28.6716 19.8348 28.9519C19.9797 29.5755 20.2258 30.169 20.5622 30.7157C20.7126 30.9602 20.7153 31.2679 20.5676 31.5152L19.9989 32.4713C20.2204 32.7241 20.4583 32.9631 20.7098 33.1856L21.6614 32.6141C21.9075 32.4658 22.2165 32.4685 22.4598 32.6224C22.9958 32.9603 23.5837 33.2048 24.2126 33.3532C24.4915 33.4192 24.7075 33.6335 24.7786 33.9109L25.052 34.9934C25.3856 35.0154 25.7219 35.0154 26.0583 34.9934L26.3262 33.9137C26.3946 33.6334 26.6134 33.4192 26.8923 33.3532C27.5212 33.2048 28.1091 32.9603 28.645 32.6224C28.8884 32.4685 29.1946 32.4658 29.4434 32.6141L30.395 33.1856C30.6493 32.963 30.8872 32.724 31.1087 32.4713L30.5399 31.5179C30.3923 31.2706 30.395 30.9629 30.5454 30.7184C30.5673 30.6827 30.5891 30.6442 30.611 30.6058C30.6384 30.3915 30.7423 30.2019 30.8954 30.0618C31.0567 29.7046 31.1825 29.3365 31.27 28.9573C31.3356 28.6771 31.5517 28.4546 31.8306 28.3859L32.9052 28.1139C32.9162 27.9435 32.9244 27.7732 32.9244 27.6056C32.9244 27.4408 32.9189 27.2732 32.9052 27.1001L31.8306 26.8281C31.5517 26.7567 31.3356 26.5369 31.27 26.2566C31.1278 25.6357 30.8845 25.045 30.5454 24.4955C30.395 24.251 30.3922 23.9433 30.5372 23.696L30.5345 23.6933ZM18.4566 22.2042C18.9488 21.5531 19.5284 20.9706 20.1765 20.4761C20.4253 20.2865 20.7644 20.2673 21.0324 20.4294L22.0578 21.0448C22.4898 20.8141 22.9409 20.6245 23.4058 20.4844L23.6957 19.3222C23.7722 19.0173 24.0238 18.7892 24.3328 18.748C24.3875 18.7398 24.4449 18.7343 24.4996 18.7288V17.0693H4.47591V37.3234H42.2349V31.5895H32.3613L32.6922 32.1445C32.8508 32.4138 32.8317 32.7517 32.6457 32.9989C32.159 33.6473 31.5793 34.227 30.9231 34.7298C30.6743 34.9193 30.3352 34.9386 30.0672 34.7765L29.0445 34.1611C28.618 34.3918 28.1668 34.5787 27.6992 34.7215L27.4094 35.8864C27.3328 36.1914 27.0812 36.4166 26.7722 36.4606C26.3676 36.5156 25.9601 36.5458 25.5527 36.5458C25.1453 36.5458 24.7378 36.5183 24.3359 36.4606C24.0269 36.4166 23.7753 36.1914 23.6988 35.8864L23.4089 34.7243C22.9386 34.5814 22.4902 34.3946 22.0636 34.1638L21.0382 34.7792C20.7702 34.9413 20.4312 34.9221 20.1823 34.7325C19.5343 34.238 18.9546 33.6556 18.4624 33.0044C18.2737 32.7544 18.2546 32.4137 18.4159 32.1444L19.0311 31.1114C18.8015 30.68 18.6155 30.2295 18.4733 29.7624L17.3112 29.4657C17.0104 29.3887 16.7834 29.136 16.7424 28.8255C16.6877 28.4134 16.6577 28.0013 16.6577 27.6029C16.6577 27.2018 16.685 26.7952 16.7424 26.383C16.7834 26.0726 17.0104 25.8198 17.3112 25.7429L18.4733 25.4462C18.6155 24.9791 18.8015 24.5258 19.0311 24.0944L18.4159 23.0642C18.2546 22.7949 18.2737 22.4542 18.4624 22.2042L18.4566 22.2042ZM15.446 50.3813C14.869 50.3813 14.4671 50.7193 14.4671 51.0242V51.4611H32.2409V51.0242C32.2409 50.7193 31.839 50.3813 31.2621 50.3813H15.4433H15.446ZM27.2173 48.8455V44.6118H19.4927V48.8455H27.2173ZM45.185 31.5863H43.7659V38.0867C43.7659 38.5098 43.4241 38.856 43.0003 38.856H3.71241C3.29132 38.856 2.94675 38.5126 2.94675 38.0867V16.2973C2.94675 15.8742 3.28854 15.528 3.71241 15.528H24.5019V14.1021H2.6624C2.03623 14.1021 1.52762 14.6131 1.52762 15.2423V41.9305C1.52762 42.5596 2.03622 43.0706 2.6624 43.0706H44.0475C44.6736 43.0706 45.1822 42.5596 45.1822 41.9305V31.5837L45.185 31.5863ZM54.255 10.4862H26.2464V18.6899C26.4186 18.7037 26.5909 18.7229 26.7659 18.7449C27.0749 18.7861 27.3292 19.0141 27.403 19.3191L27.6929 20.4812C28.1577 20.6213 28.6089 20.8081 29.0382 21.0417L30.0609 20.4263C30.3288 20.2642 30.6679 20.2834 30.9168 20.473C31.573 20.9757 32.1527 21.5555 32.6394 22.2038C32.8281 22.4538 32.8445 22.7918 32.6859 23.061L32.0734 24.0941C32.3031 24.5254 32.489 24.9788 32.6312 25.4458L33.7906 25.7426C34.0913 25.8195 34.3183 26.0723 34.3593 26.3827C34.414 26.7948 34.4441 27.2042 34.4441 27.6026C34.4441 28.001 34.4167 28.413 34.3593 28.8252C34.3183 29.1357 34.0913 29.3884 33.7906 29.4654L32.6312 29.7621C32.623 29.7868 32.6148 29.8115 32.6066 29.8363H52.5981C53.5086 29.8363 54.2497 29.0917 54.2497 28.1768V10.4914L54.255 10.4862ZM54.255 6.40901C54.255 5.49411 53.514 4.7523 52.6034 4.7523H27.9009C26.9903 4.7523 26.2493 5.49685 26.2493 6.40901V8.73608H54.258V6.40901H54.255ZM33.4242 5.97218H33.3531C32.9321 5.97218 32.5875 6.3156 32.5875 6.74149C32.5875 7.16459 32.9293 7.5108 33.3531 7.5108H33.4242C33.8453 7.5108 34.1899 7.16737 34.1899 6.74149C34.1899 6.31839 33.8481 5.97218 33.4242 5.97218ZM33.1946 20.5474L35.527 22.5998C35.6719 22.7262 35.8524 22.7894 36.0301 22.7894C36.2434 22.7894 36.4539 22.7014 36.6043 22.5284C36.8832 22.2097 36.8504 21.7234 36.5332 21.4458L34.8571 19.9705L36.5332 18.4951C36.8504 18.2148 36.8832 17.7313 36.6043 17.4126C36.3254 17.0939 35.8442 17.0609 35.5269 17.3411L33.1945 19.3935C33.0277 19.5391 32.9348 19.7506 32.9348 19.9704C32.9348 20.193 33.0305 20.4018 33.1946 20.5474ZM30.8949 5.97218H30.8211C30.4 5.97218 30.0554 6.3156 30.0554 6.74149C30.0554 7.16459 30.3972 7.5108 30.8211 7.5108H30.8949C31.316 7.5108 31.6606 7.16737 31.6606 6.74149C31.6606 6.31839 31.3188 5.97218 30.8949 5.97218ZM28.3628 5.97218H28.289C27.8679 5.97218 27.5233 6.3156 27.5233 6.74149C27.5233 7.16459 27.8651 7.5108 28.289 7.5108H28.3628C28.7839 7.5108 29.1285 7.16737 29.1285 6.74149C29.1285 6.31839 28.7867 5.97218 28.3628 5.97218Z" fill="url(#paint0_linear_2386_2705)"/>
<defs>
<linearGradient id="paint0_linear_2386_2705" x1="52.3756" y1="53" x2="8.82576" y2="-1.18082" gradientUnits="userSpaceOnUse">
<stop stop-color="#FFDC61"/>
<stop offset="0.460765" stop-color="#FFDC61"/>
<stop offset="1" stop-color="#FF6EF1"/>
</linearGradient>
</defs>
</svg>
