<svg width="56" height="56" viewBox="0 0 56 56" fill="none" xmlns="http://www.w3.org/2000/svg">
<path fill-rule="evenodd" clip-rule="evenodd" d="M50.8439 38.724C51.5086 36.6357 51.3176 34.3676 50.3146 32.4203C48.7894 29.4472 45.6351 27.6919 42.3187 27.9715C39.0049 28.2535 36.1866 30.5168 35.1762 33.7039C33.8009 38.053 36.1866 42.7036 40.5107 44.0914C44.8349 45.4747 49.4564 43.0728 50.8387 38.7261L50.8439 38.724ZM41.0134 31.2995L41.3663 31.7492C41.5113 31.9704 41.7772 32.0774 42.0334 32.0239C42.6667 31.8805 43.3217 31.8878 43.9526 32.0434C44.1919 32.1017 44.4457 32.0142 44.6004 31.8197L45.0016 31.3092L46.1957 32.0215L45.954 32.6438C45.8573 32.8723 45.9008 33.1373 46.0676 33.322C46.4785 33.7815 46.7855 34.3285 46.9667 34.9217C47.0296 35.1648 47.2302 35.3495 47.4767 35.3908L48.2188 35.5148V36.9175L47.4671 37.0415H47.4695C47.2205 37.0683 47.0127 37.2384 46.9329 37.4767C46.8435 37.7489 46.7275 38.0091 46.5873 38.257L46.5679 38.2886V38.2862C46.4181 38.5415 46.244 38.7797 46.0458 38.9985C45.8742 39.1784 45.821 39.4409 45.9129 39.6743L46.1981 40.4084L44.9992 41.1256L44.5303 40.5275C44.3829 40.316 44.1218 40.2164 43.8705 40.2723C43.2928 40.4036 42.6934 40.4108 42.1133 40.2917C41.8788 40.2455 41.6395 40.3331 41.4921 40.5227L41.0159 41.1304L39.7615 40.4035L40.0249 39.7253H40.0225C40.1144 39.4944 40.0612 39.2318 39.892 39.0519C39.4617 38.5998 39.1378 38.0528 38.9469 37.4572C38.8744 37.2287 38.681 37.0609 38.4466 37.022L37.8036 36.9151V35.5148L38.4031 35.4127C38.6448 35.3738 38.8406 35.1963 38.9082 34.9605C39.0895 34.3479 39.4037 33.7839 39.8267 33.3123C40.0177 33.1324 40.083 32.8528 39.9863 32.6097L39.7591 32.0263L41.0134 31.2995ZM38.6519 31.1925L40.8467 29.9235C41.1198 29.7582 41.4727 29.8238 41.6709 30.0742L42.1591 30.6965C42.7175 30.6187 43.2855 30.626 43.8439 30.716L44.32 30.1107C44.5086 29.8311 44.8808 29.746 45.1708 29.9186L47.3075 31.1949C47.5758 31.3554 47.6894 31.686 47.5758 31.9801L47.2664 32.7726C47.4332 32.989 47.5855 33.2175 47.7184 33.4558C47.849 33.694 47.9626 33.9371 48.0592 34.1924L48.9173 34.3358C49.2436 34.3674 49.4901 34.6445 49.4926 34.9727V37.4621C49.4902 37.7757 49.2654 38.0407 48.9584 38.0941L48.0036 38.2546V38.2522C47.9094 38.4782 47.803 38.697 47.6797 38.9061L47.658 38.945H47.6604C47.5323 39.1638 47.3897 39.3729 47.2326 39.5698L47.5734 40.4401L47.571 40.4425C47.6918 40.7366 47.5806 41.0745 47.3075 41.2374L45.1708 42.5137H45.1684C44.8953 42.6766 44.5448 42.611 44.349 42.3606L43.7496 41.5996V41.5972C43.2541 41.6701 42.7513 41.675 42.2558 41.6142L41.6733 42.3581H41.6708C41.4775 42.6085 41.1294 42.6741 40.8563 42.5185L38.6906 41.2641C38.3909 41.1183 38.2531 40.7658 38.3739 40.4546L38.6954 39.6281C38.5286 39.419 38.3739 39.1978 38.2362 38.9644C38.0984 38.7286 37.9751 38.4831 37.8712 38.2302L37.0977 38.1014H37.1001C36.7738 38.0673 36.5249 37.7926 36.5249 37.4645V34.9751C36.5273 34.6615 36.7521 34.3941 37.059 34.343L37.8156 34.2191C38.0162 33.6794 38.3039 33.1737 38.6616 32.724L38.374 31.985V31.9874C38.2604 31.6932 38.3764 31.3578 38.6495 31.1998L38.6519 31.1925ZM45.2604 36.2126V36.215C45.2604 36.8155 45.0236 37.3916 44.6006 37.817C43.8416 38.5804 42.65 38.6995 41.7556 38.099C40.8613 37.501 40.5133 36.3487 40.9241 35.3495C41.335 34.3503 42.3889 33.7815 43.4451 33.9906C44.499 34.2021 45.2604 35.1307 45.2604 36.2126ZM46.5367 36.2126V36.215C46.5367 37.1558 46.1644 38.0601 45.5021 38.7238C44.3129 39.9199 42.4469 40.1022 41.0499 39.1614C39.6504 38.2206 39.1089 36.4167 39.7519 34.8536C40.3972 33.2904 42.0505 32.4031 43.7014 32.7362C45.3523 33.0668 46.539 34.523 46.5366 36.2174L46.5367 36.2126ZM47.0008 6.00711V6.00954C47.0008 6.36447 46.7155 6.6513 46.3627 6.6513C46.0098 6.6513 45.7246 6.36444 45.7246 6.00954V2.944L32.213 13.7865C31.952 13.9955 31.57 13.9639 31.3477 13.7135L27.8091 9.74367L7.09246 24.7185C6.80724 24.9251 6.41081 24.8595 6.20779 24.5726C6.00234 24.2882 6.0676 23.8895 6.3504 23.6829L27.5292 8.37198C27.7975 8.17749 28.1722 8.22368 28.3873 8.48137L31.8897 12.4123L44.9347 1.93954L41.9278 1.25154C41.6112 1.15187 41.4202 0.82368 41.4928 0.497945C41.5677 0.172185 41.8771 -0.0417454 42.2082 0.00687836L46.4574 0.981718H46.455C46.7692 1.02791 47.0013 1.29775 47.0013 1.6162V6.0115L47.0008 6.00711ZM37.8107 28.2242V12.6021L37.8131 12.6045C37.8107 12.4343 37.8784 12.2715 37.9992 12.1523C38.1177 12.0308 38.2796 11.9627 38.4488 11.9627H46.3623C46.7152 11.9627 47.0004 12.252 47.0004 12.6045V27.5575C49.096 28.5348 50.7662 30.2463 51.6968 32.3734C52.6274 34.4982 52.753 36.8951 52.0545 39.1072L52.0473 39.1266V39.1291C51.281 41.5358 49.5964 43.5389 47.3629 44.6985C45.132 45.8606 42.5312 46.0818 40.1356 45.316L40.1163 45.3087C39.2631 45.034 38.4534 44.6402 37.7113 44.1394L36.3191 45.3987C36.2514 45.9651 36.029 46.5023 35.6713 46.9472L35.6447 46.9813L28.8914 54.8166C28.8696 54.8433 28.8455 54.8701 28.8189 54.8944C27.0979 56.4721 24.4294 56.3457 22.8631 54.6148C21.2944 52.8839 21.4202 50.2 23.1411 48.6247C23.1605 48.6077 23.1822 48.5907 23.204 48.5761L31.6471 42.535C32.1789 42.1728 32.8098 41.9929 33.4527 42.0197L33.5035 41.9735H4.15745C3.98584 41.9783 3.81905 41.9127 3.69579 41.7936C3.5701 41.672 3.5 41.5067 3.5 41.3317C3.5 41.1591 3.57009 40.9913 3.69579 40.8722C3.81906 40.7507 3.98584 40.685 4.15745 40.6899H6.08147L6.08389 30.6421C6.08389 30.2896 6.3691 30.0028 6.72197 30.0028H14.7079C15.0608 30.0028 15.346 30.2897 15.346 30.6421V40.6874H16.6318V24.6546C16.6343 24.2996 16.9195 24.0128 17.2699 24.0128H25.2583C25.6112 24.0128 25.8964 24.2997 25.8964 24.6546V40.6874H27.2572V18.667C27.2596 18.3121 27.5448 18.0252 27.8953 18.0252H35.8113C35.9805 18.0252 36.1424 18.0933 36.2633 18.2124C36.3817 18.334 36.4494 18.4969 36.4494 18.667V29.3122C36.87 28.9087 37.3244 28.5464 37.8102 28.2255L37.8107 28.2242ZM45.7242 27.0694C43.5319 26.4057 41.1728 26.5662 39.0866 27.5216V13.2444H45.7242V27.0694ZM14.0726 40.6882V31.2852H7.35766V40.6882H14.0726ZM35.1741 30.8228H35.1717C34.2073 32.2474 33.6416 33.9054 33.5377 35.6266C33.4314 37.3453 33.7891 39.0616 34.5747 40.5932L34.623 40.688H28.5368V19.3092H35.1744L35.1741 30.8228ZM24.6234 40.6882V25.2977H17.9109V40.6882H24.6234ZM35.4377 41.9742C35.8099 42.4702 36.2281 42.9272 36.6897 43.3429L36.1048 43.8728H36.1024C35.8558 43.2797 35.428 42.7813 34.8817 42.4507L35.4086 41.9742L35.4377 41.9742ZM32.1214 43.7659L32.339 43.6103L32.3559 43.5982C33.0689 43.1144 34.0261 43.2262 34.6062 43.8631C35.1887 44.4976 35.2225 45.4652 34.6859 46.1385L34.4829 46.3744L32.1238 43.761L32.1214 43.7659ZM33.6442 47.3492L31.0797 44.5098L23.9761 49.5907C22.8014 50.6992 22.7313 52.5492 23.8142 53.7453C24.897 54.9414 26.7365 55.041 27.9402 53.9665L33.6442 47.3492ZM26.5889 52.9358C27.1497 52.644 27.4276 51.9974 27.2536 51.3872C27.0796 50.7794 26.5019 50.3783 25.8758 50.4318C25.2474 50.4828 24.7446 50.9763 24.6721 51.6059C24.602 52.2356 24.9839 52.8263 25.5834 53.0208C25.9169 53.1253 26.2795 53.0962 26.5889 52.9358Z" fill="url(#paint0_linear_2386_2691)"/>
<defs>
<linearGradient id="paint0_linear_2386_2691" x1="49.3287" y1="56" x2="-0.595097" y2="7.47604" gradientUnits="userSpaceOnUse">
<stop stop-color="#FFDC61"/>
<stop offset="0.460765" stop-color="#FFDC61"/>
<stop offset="1" stop-color="#FF6EF1"/>
</linearGradient>
</defs>
</svg>
