<svg width="55" height="56" viewBox="0 0 55 56" fill="none" xmlns="http://www.w3.org/2000/svg">
<path d="M23.0422 26.8592V30.3208C23.0919 31.893 24.3365 33.1551 25.887 33.2055H29.4904C31.0408 33.1551 32.2854 31.893 32.3352 30.3208V26.9553L34.5162 21.4745C34.6513 21.2365 34.6513 20.9432 34.5162 20.7052L28.5421 8.97445L28.3524 8.68598C27.9826 8.32058 27.3947 8.32058 27.0249 8.68598L26.8352 8.97445L20.8611 20.6092C20.726 20.8472 20.726 21.1405 20.8611 21.3785L23.0422 26.8592ZM30.4389 30.417C30.3939 30.929 29.9956 31.3329 29.4907 31.3785H25.8873C25.3823 31.3329 24.984 30.929 24.939 30.417V27.9169H30.4389V30.417ZM27.689 19.7435C27.9403 19.7435 28.1821 19.8444 28.3599 20.0247C28.5377 20.205 28.6373 20.4502 28.6373 20.705C28.5922 21.2171 28.194 21.6209 27.689 21.6666C27.1651 21.6666 26.7407 21.2363 26.7407 20.705C26.7099 20.4406 26.8 20.1786 26.9849 19.9911C27.1698 19.8036 27.4282 19.7122 27.689 19.7435ZM26.7407 13.3008V18.0125C25.5957 18.3923 24.8253 19.4836 24.8442 20.7048C24.8442 22.2986 26.1173 23.5895 27.689 23.5895C29.2607 23.5895 30.5338 22.2986 30.5338 20.7048C30.5528 19.4836 29.7823 18.3923 28.6373 18.0125V13.3008L32.62 21.0893L30.6286 25.9934H24.7494L22.7581 21.0893L26.7407 13.3008ZM52.1542 8.87765H40.5857C39.2984 6.79827 37.4588 5.12998 35.2754 4.06983H40.0167V5.03139C40.0167 5.2862 40.1163 5.5314 40.2941 5.71172C40.4719 5.89203 40.7137 5.99297 40.965 5.99297H44.7581C45.0094 5.99297 45.2512 5.89201 45.429 5.71172C45.6068 5.53142 45.7064 5.28622 45.7064 5.03139V1.18514C45.7372 0.920707 45.6471 0.658682 45.4622 0.471151C45.2773 0.283644 45.0189 0.1923 44.7581 0.22355H40.965C40.7042 0.1923 40.4458 0.283648 40.2609 0.471151C40.076 0.658657 39.9859 0.920682 40.0167 1.18514V2.1467H30.4394C30.1099 0.882238 28.9791 0 27.6895 0C26.3998 0 25.269 0.882238 24.9395 2.1467H15.3622V1.18514C15.393 0.920707 15.3029 0.658682 15.118 0.471151C14.9331 0.283644 14.6747 0.1923 14.4139 0.22355H10.6209C10.3601 0.1923 10.1017 0.283648 9.91675 0.471151C9.73184 0.658657 9.64176 0.920682 9.67258 1.18514V5.03139C9.67258 5.2862 9.77214 5.5314 9.94994 5.71172C10.1277 5.89203 10.3696 5.99297 10.6209 5.99297H14.4139C14.6652 5.99297 14.907 5.89201 15.0848 5.71172C15.2627 5.53142 15.3622 5.28622 15.3622 5.03139V4.06983H20.1035C17.9201 5.12998 16.0805 6.79827 14.7932 8.87765H2.84481C2.10756 8.82476 1.38208 9.08438 0.843954 9.59403C0.303446 10.1061 -0.00235319 10.8224 1.36793e-05 11.57V41.7628C-0.00235683 42.5104 0.303458 43.2268 0.843954 43.7388C1.38209 44.2484 2.1075 44.508 2.84481 44.4552H21.6207L20.1035 54.0708H12.3281C11.8041 54.0708 11.3798 54.5011 11.3798 55.0324C11.349 55.2968 11.4391 55.5588 11.624 55.7464C11.8089 55.9339 12.0673 56.0252 12.3281 55.994H42.6725C42.9333 56.0252 43.1917 55.9339 43.3767 55.7464C43.5616 55.5589 43.6516 55.2968 43.6208 55.0324C43.6208 54.7776 43.5213 54.5324 43.3435 54.3521C43.1657 54.1717 42.9239 54.0708 42.6726 54.0708H35.845L34.3278 44.4552H52.1552C52.8924 44.508 53.6179 44.2484 54.156 43.7388C54.6966 43.2267 55.0024 42.5104 55 41.7628V11.57C55.0024 10.8224 54.6965 10.106 54.156 9.59402C53.6179 9.08439 52.8925 8.82476 52.1552 8.87763L52.1542 8.87765ZM41.913 2.14639H43.8095V4.06952H41.913V2.14639ZM13.465 4.06952H11.5685V2.14639H13.465V4.06952ZM41.439 14.2618C41.6998 14.2305 41.9582 14.3219 42.1431 14.5094C42.328 14.6969 42.4181 14.9589 42.3873 15.2234C42.3873 15.4782 42.2877 15.7234 42.1099 15.9037C41.9321 16.084 41.6903 16.185 41.439 16.185C40.934 16.1393 40.5358 15.7354 40.4907 15.2234C40.4907 14.6921 40.9151 14.2618 41.439 14.2618ZM27.6893 1.76177C27.9406 1.76177 28.1824 1.86273 28.3602 2.04303C28.538 2.22332 28.6376 2.46852 28.6376 2.72335C28.5925 3.23538 28.1943 3.63925 27.6893 3.68491C27.1654 3.68491 26.7411 3.25461 26.7411 2.72335C26.7102 2.45892 26.8003 2.19689 26.9852 2.00936C27.1701 1.82186 27.4285 1.73052 27.6893 1.76177ZM13.9396 14.2618C14.1909 14.2618 14.4327 14.3627 14.6105 14.543C14.7884 14.7233 14.8879 14.9685 14.8879 15.2234C14.8429 15.7354 14.4446 16.1393 13.9396 16.1849C13.4157 16.1849 12.9914 15.7546 12.9914 15.2234C12.9606 14.9589 13.0506 14.6969 13.2355 14.5094C13.4205 14.3219 13.6788 14.2305 13.9396 14.2618ZM2.84507 10.8002H13.7503L13.1813 12.4348C11.9249 12.7521 11.0572 13.9108 11.0951 15.2233C11.0951 16.8171 12.3682 18.108 13.9399 18.108C15.3339 18.1705 16.5666 17.1969 16.8487 15.8098C17.1332 14.4252 16.3817 13.0357 15.0778 12.5309C15.8317 10.2977 17.228 8.34329 19.0866 6.92018C20.9476 5.49707 23.1831 4.67255 25.5087 4.5499C26.0493 5.20377 26.8481 5.58359 27.6898 5.58359C28.5314 5.58359 29.3303 5.20377 29.8708 4.5499C32.1964 4.6725 34.432 5.49707 36.2929 6.92018C38.1515 8.34329 39.5479 10.2977 40.3017 12.5309C38.9979 13.0357 38.2464 14.4252 38.5308 15.8098C38.8129 17.1969 40.0457 18.1704 41.4396 18.108C43.0114 18.108 44.2844 16.8171 44.2844 15.2233C44.3224 13.9108 43.4547 12.7521 42.1983 12.4348L41.6293 10.8002H52.1552C52.3828 10.7737 52.6104 10.8386 52.7882 10.9829C52.966 11.1295 53.0798 11.3386 53.1035 11.5694V35.8008H1.89719V11.5694C1.9209 11.3386 2.03469 11.1295 2.21249 10.9829C2.39029 10.8386 2.61747 10.7737 2.84507 10.8002ZM33.9481 54.0702H21.9997L23.5169 44.4546H32.4309L33.9481 54.0702ZM52.1548 42.5314H2.84507C2.61749 42.5579 2.38991 42.493 2.21209 42.3487C2.03429 42.2021 1.9205 41.993 1.89679 41.7622V37.7236H53.1031V41.7622C53.0794 41.993 52.9656 42.2021 52.7878 42.3487C52.61 42.493 52.3824 42.5579 52.1548 42.5314Z" fill="url(#paint0_linear_2386_2720)"/>
<defs>
<linearGradient id="paint0_linear_2386_2720" x1="9.00705" y1="-6.05657e-07" x2="40.0081" y2="59.1374" gradientUnits="userSpaceOnUse">
<stop stop-color="#003E63"/>
<stop offset="1" stop-color="#0D669C"/>
</linearGradient>
</defs>
</svg>
