<svg width="56" height="50" viewBox="0 0 56 50" fill="none" xmlns="http://www.w3.org/2000/svg">
<path d="M15.206 24.1936C15.206 24.6167 14.8642 24.9629 14.4403 24.9629H7.22672C6.80563 24.9629 6.46106 24.6195 6.46106 24.1936C6.46106 23.7705 6.80286 23.4243 7.22672 23.4243H14.4403C14.8614 23.4243 15.206 23.7677 15.206 24.1936ZM14.4431 29.6226H7.22952C6.80843 29.6226 6.46386 29.966 6.46386 30.3919C6.46386 30.815 6.80566 31.1612 7.22952 31.1612H14.4431C14.8642 31.1612 15.2088 30.8178 15.2088 30.3919C15.2088 29.9688 14.867 29.6226 14.4431 29.6226ZM14.4431 26.5207H7.22952C6.80843 26.5207 6.46386 26.8641 6.46386 27.29C6.46386 27.7131 6.80566 28.0593 7.22952 28.0593H14.4431C14.8642 28.0593 15.2088 27.7159 15.2088 27.29C15.2088 26.8669 14.867 26.5207 14.4431 26.5207ZM14.4431 20.328H7.22952C6.80843 20.328 6.46386 20.6714 6.46386 21.0973C6.46386 21.5204 6.80566 21.8666 7.22952 21.8666H14.4431C14.8642 21.8666 15.2088 21.5232 15.2088 21.0973C15.2088 20.6742 14.867 20.328 14.4431 20.328ZM14.4431 17.2317H7.22952C6.80843 17.2317 6.46386 17.5751 6.46386 18.001C6.46386 18.4241 6.80566 18.7703 7.22952 18.7703H14.4431C14.8642 18.7703 15.2088 18.4269 15.2088 18.001C15.2088 17.5779 14.867 17.2317 14.4431 17.2317ZM30.2723 24.6006C30.2723 27.2162 28.1532 29.3454 25.55 29.3454C22.9468 29.3454 20.8277 27.2162 20.8277 24.6006C20.8277 21.985 22.9468 19.8558 25.55 19.8558C28.1532 19.8558 30.2723 21.985 30.2723 24.6006ZM28.7438 24.6006C28.7438 22.8313 27.3109 21.3916 25.55 21.3916C23.7891 21.3916 22.3562 22.8313 22.3562 24.6006C22.3562 26.3699 23.7891 27.8096 25.55 27.8096C27.3109 27.8096 28.7438 26.3699 28.7438 24.6006ZM43.8975 19.5289C44.0479 19.702 44.2612 19.7899 44.4717 19.7899C44.6495 19.7899 44.8299 19.7267 44.9749 19.6003L47.3046 17.548C47.4714 17.4024 47.5643 17.1908 47.5643 16.971C47.5643 16.7512 47.4686 16.5397 47.3046 16.3941L44.9749 14.3417C44.6577 14.0615 44.1737 14.0945 43.8975 14.4132C43.6186 14.7319 43.6514 15.2181 43.9686 15.4957L45.642 16.9711L43.9686 18.4465C43.6514 18.7267 43.6186 19.2101 43.8975 19.5289ZM39.0576 21.4494C39.1232 21.4658 39.1916 21.4741 39.2545 21.4741C39.5908 21.4741 39.8998 21.2488 39.9928 20.9054L41.9862 13.4352C42.0956 13.0259 41.8522 12.6055 41.4448 12.4956C41.0374 12.3858 40.619 12.6275 40.5096 13.0396L38.5162 20.5098C38.4069 20.9191 38.6474 21.3395 39.0576 21.4494ZM52.2128 2.97267H40.0201C39.599 2.97267 39.2544 3.31609 39.2544 3.74198C39.2544 4.16508 39.5962 4.51129 40.0201 4.51129H52.2128C52.6339 4.51129 52.9785 4.16786 52.9785 3.74198C52.9785 3.31888 52.6367 2.97267 52.2128 2.97267ZM56 3.4095V25.1743C56 27.0563 54.4742 28.5893 52.6011 28.5893H46.7139V38.9361C46.7139 40.4115 45.519 41.6121 44.0506 41.6121H28.7492V45.8459H31.2676C32.6485 45.8459 33.775 46.8239 33.775 48.0246V49.2307C33.775 49.6538 33.4332 50 33.0093 50H13.7074C13.2863 50 12.9417 49.6566 12.9417 49.2307V48.0246C12.9417 46.8213 14.0656 45.8459 15.4491 45.8459H17.9675V41.6121L2.66331 41.6094C1.19491 41.6094 0 40.4088 0 38.9334V12.2453C0 10.7699 1.19491 9.56926 2.66331 9.56926H24.5V3.40957C24.5 1.52758 26.0258 0 27.8989 0H52.6014C54.4745 0 56 1.53026 56 3.4095ZM30.5345 20.6933L31.1032 19.7372C30.8845 19.4844 30.6466 19.2454 30.3923 19.0229L29.438 19.5944C29.1919 19.74 28.8884 19.7372 28.645 19.5861C28.0981 19.2454 27.5102 19.0009 26.8923 18.858C26.6134 18.7921 26.3919 18.575 26.3235 18.2948L26.0555 17.215C25.886 17.2041 25.722 17.1986 25.5552 17.1958C25.4977 17.2068 25.4376 17.215 25.3747 17.215C25.3309 17.215 25.2845 17.2095 25.2434 17.2041C25.1778 17.2068 25.1149 17.2095 25.0493 17.215L24.7759 18.2976C24.7048 18.575 24.486 18.7921 24.2071 18.858C23.5891 19.0009 23.0012 19.2454 22.4544 19.5861C22.211 19.7372 21.9047 19.74 21.6614 19.5944L20.7098 19.0229C20.4582 19.2454 20.2203 19.4845 19.9989 19.7372L20.5676 20.6933C20.7153 20.9406 20.7098 21.2483 20.5594 21.4928C20.2231 22.0395 19.977 22.633 19.8321 23.2566C19.7664 23.5369 19.5504 23.7567 19.2742 23.8254L18.1996 24.0973C18.1886 24.2677 18.1832 24.4353 18.1832 24.6029C18.1832 24.7705 18.1886 24.9381 18.2023 25.1111L19.277 25.3831C19.5559 25.4518 19.7692 25.6716 19.8348 25.9519C19.9797 26.5755 20.2258 27.169 20.5622 27.7157C20.7126 27.9602 20.7153 28.2679 20.5676 28.5152L19.9989 29.4713C20.2204 29.7241 20.4583 29.9631 20.7098 30.1856L21.6614 29.6141C21.9075 29.4658 22.2165 29.4685 22.4598 29.6224C22.9958 29.9603 23.5837 30.2048 24.2126 30.3532C24.4915 30.4192 24.7075 30.6335 24.7786 30.9109L25.052 31.9934C25.3856 32.0154 25.7219 32.0154 26.0583 31.9934L26.3262 30.9137C26.3946 30.6334 26.6134 30.4192 26.8923 30.3532C27.5212 30.2048 28.1091 29.9603 28.645 29.6224C28.8884 29.4685 29.1946 29.4658 29.4434 29.6141L30.395 30.1856C30.6493 29.963 30.8872 29.724 31.1087 29.4713L30.5399 28.5179C30.3923 28.2706 30.395 27.9629 30.5454 27.7184C30.5673 27.6827 30.5891 27.6442 30.611 27.6058C30.6384 27.3915 30.7423 27.2019 30.8954 27.0618C31.0567 26.7046 31.1825 26.3365 31.27 25.9573C31.3356 25.6771 31.5517 25.4546 31.8306 25.3859L32.9052 25.1139C32.9162 24.9435 32.9244 24.7732 32.9244 24.6056C32.9244 24.4408 32.9189 24.2732 32.9052 24.1001L31.8306 23.8281C31.5517 23.7567 31.3356 23.5369 31.27 23.2566C31.1278 22.6357 30.8845 22.045 30.5454 21.4955C30.395 21.251 30.3922 20.9433 30.5372 20.696L30.5345 20.6933ZM18.4566 19.2042C18.9488 18.5531 19.5284 17.9706 20.1765 17.4761C20.4253 17.2865 20.7644 17.2673 21.0324 17.4294L22.0578 18.0448C22.4898 17.8141 22.9409 17.6245 23.4058 17.4844L23.6957 16.3222C23.7722 16.0173 24.0238 15.7892 24.3328 15.748C24.3875 15.7398 24.4449 15.7343 24.4996 15.7288V14.0693H4.47591V34.3233H42.2349V28.5895H32.3614L32.6922 29.1445C32.8508 29.4138 32.8317 29.7517 32.6457 29.9989C32.159 30.6473 31.5793 31.227 30.9231 31.7298C30.6743 31.9193 30.3352 31.9386 30.0672 31.7765L29.0445 31.1611C28.618 31.3918 28.1668 31.5787 27.6992 31.7215L27.4094 32.8864C27.3328 33.1914 27.0812 33.4166 26.7722 33.4606C26.3676 33.5156 25.9601 33.5458 25.5527 33.5458C25.1453 33.5458 24.7378 33.5183 24.3359 33.4606C24.0269 33.4166 23.7753 33.1914 23.6988 32.8864L23.4089 31.7243C22.9386 31.5814 22.4902 31.3946 22.0636 31.1638L21.0382 31.7792C20.7702 31.9413 20.4312 31.9221 20.1823 31.7325C19.5343 31.238 18.9546 30.6556 18.4624 30.0044C18.2737 29.7544 18.2546 29.4137 18.4159 29.1444L19.0311 28.1114C18.8015 27.68 18.6155 27.2295 18.4733 26.7624L17.3112 26.4657C17.0104 26.3887 16.7834 26.136 16.7424 25.8255C16.6877 25.4134 16.6577 25.0013 16.6577 24.6029C16.6577 24.2018 16.685 23.7952 16.7424 23.383C16.7834 23.0726 17.0104 22.8198 17.3112 22.7429L18.4733 22.4462C18.6155 21.9791 18.8015 21.5258 19.0311 21.0944L18.4159 20.0642C18.2546 19.7949 18.2737 19.4542 18.4624 19.2042L18.4566 19.2042ZM15.446 47.3813C14.869 47.3813 14.4671 47.7193 14.4671 48.0242V48.4611H32.2409V48.0242C32.2409 47.7193 31.839 47.3813 31.2621 47.3813H15.4433H15.446ZM27.2173 45.8455V41.6118H19.4927V45.8455H27.2173ZM45.185 28.5863H43.7659V35.0867C43.7659 35.5098 43.4241 35.856 43.0003 35.856H3.71241C3.29132 35.856 2.94675 35.5126 2.94675 35.0867V13.2973C2.94675 12.8742 3.28854 12.528 3.71241 12.528H24.5019V11.1021H2.6624C2.03623 11.1021 1.52762 11.6131 1.52762 12.2423V38.9305C1.52762 39.5596 2.03622 40.0706 2.6624 40.0706H44.0475C44.6736 40.0706 45.1822 39.5596 45.1822 38.9305V28.5837L45.185 28.5863ZM54.255 7.48619H26.2464V15.6899C26.4186 15.7037 26.5909 15.7229 26.7659 15.7449C27.0749 15.7861 27.3292 16.0141 27.403 16.3191L27.6929 17.4812C28.1577 17.6213 28.6089 17.8081 29.0382 18.0417L30.0609 17.4263C30.3288 17.2642 30.6679 17.2834 30.9168 17.473C31.573 17.9757 32.1527 18.5555 32.6394 19.2038C32.8281 19.4538 32.8445 19.7918 32.6859 20.061L32.0734 21.0941C32.3031 21.5254 32.489 21.9788 32.6312 22.4458L33.7906 22.7426C34.0913 22.8195 34.3183 23.0723 34.3593 23.3827C34.414 23.7948 34.4441 24.2042 34.4441 24.6026C34.4441 25.001 34.4167 25.413 34.3593 25.8252C34.3183 26.1357 34.0913 26.3884 33.7906 26.4654L32.6312 26.7621C32.623 26.7868 32.6148 26.8115 32.6066 26.8363H52.5981C53.5086 26.8363 54.2497 26.0917 54.2497 25.1768V7.49137L54.255 7.48619ZM54.255 3.40901C54.255 2.49411 53.514 1.7523 52.6034 1.7523H27.9009C26.9903 1.7523 26.2493 2.49685 26.2493 3.40901V5.73608H54.258V3.40901H54.255ZM33.4242 2.97218H33.3531C32.932 2.97218 32.5875 3.3156 32.5875 3.74149C32.5875 4.16459 32.9293 4.5108 33.3531 4.5108H33.4242C33.8453 4.5108 34.1899 4.16737 34.1899 3.74149C34.1899 3.31839 33.8481 2.97218 33.4242 2.97218ZM33.1946 17.5474L35.527 19.5998C35.6719 19.7262 35.8524 19.7894 36.0301 19.7894C36.2434 19.7894 36.4539 19.7014 36.6043 19.5284C36.8832 19.2097 36.8504 18.7234 36.5332 18.4458L34.8571 16.9705L36.5332 15.4951C36.8504 15.2148 36.8832 14.7313 36.6043 14.4126C36.3254 14.0939 35.8442 14.0609 35.5269 14.3411L33.1945 16.3935C33.0277 16.5391 32.9348 16.7506 32.9348 16.9704C32.9348 17.193 33.0305 17.4018 33.1946 17.5474ZM30.8949 2.97218H30.8211C30.4 2.97218 30.0554 3.3156 30.0554 3.74149C30.0554 4.16459 30.3972 4.5108 30.8211 4.5108H30.8949C31.316 4.5108 31.6606 4.16737 31.6606 3.74149C31.6606 3.31839 31.3188 2.97218 30.8949 2.97218ZM28.3628 2.97218H28.289C27.8679 2.97218 27.5233 3.3156 27.5233 3.74149C27.5233 4.16459 27.8651 4.5108 28.289 4.5108H28.3628C28.7839 4.5108 29.1285 4.16737 29.1285 3.74149C29.1285 3.31839 28.7867 2.97218 28.3628 2.97218Z" fill="url(#paint0_linear_2386_2706)"/>
<defs>
<linearGradient id="paint0_linear_2386_2706" x1="9.17081" y1="-5.40766e-07" x2="34.7155" y2="55.5686" gradientUnits="userSpaceOnUse">
<stop stop-color="#003E63"/>
<stop offset="1" stop-color="#0D669C"/>
</linearGradient>
</defs>
</svg>
