<svg width="22" height="16" viewBox="0 0 22 16" fill="none" xmlns="http://www.w3.org/2000/svg">
<path d="M3.66668 15.3337C3.16251 15.3337 2.73091 15.1541 2.37189 14.7951C2.01286 14.4361 1.83334 14.0045 1.83334 13.5003V2.50033C1.83334 1.99616 2.01286 1.56456 2.37189 1.20553C2.73091 0.846506 3.16251 0.666992 3.66668 0.666992H18.3333C18.8375 0.666992 19.2691 0.846506 19.6281 1.20553C19.9872 1.56456 20.1667 1.99616 20.1667 2.50033V13.5003C20.1667 14.0045 19.9872 14.4361 19.6281 14.7951C19.2691 15.1541 18.8375 15.3337 18.3333 15.3337H3.66668ZM11 8.91699L3.66668 4.33366V13.5003H18.3333V4.33366L11 8.91699ZM11 7.08366L18.3333 2.50033H3.66668L11 7.08366ZM3.66668 4.33366V2.50033V13.5003V4.33366Z" fill="white"/>
</svg>
