<svg width="76" height="76" viewBox="0 0 76 76" fill="none" xmlns="http://www.w3.org/2000/svg">
<g clip-path="url(#clip0_1730_2417)">
<mask id="mask0_1730_2417" style="mask-type:luminance" maskUnits="userSpaceOnUse" x="0" y="0" width="76" height="76">
<path d="M76 0H0V76H76V0Z" fill="white"/>
</mask>
<g mask="url(#mask0_1730_2417)">
<path d="M69.3203 0.148438H6.67969C2.99651 0.148438 0 3.14495 0 6.82812V69.1719C0 72.8551 2.99651 75.8516 6.67969 75.8516H69.3203C73.0035 75.8516 76 72.8551 76 69.1719V6.82812C76 3.14495 73.0035 0.148438 69.3203 0.148438ZM6.67969 4.60156H69.3203C70.548 4.60156 71.5469 5.6004 71.5469 6.82812V17.9609H4.45312V6.82812C4.45312 5.6004 5.45196 4.60156 6.67969 4.60156ZM69.3203 71.3984H6.67969C5.45196 71.3984 4.45312 70.3996 4.45312 69.1719V22.4141H71.5469V69.1719C71.5469 70.3996 70.548 71.3984 69.3203 71.3984Z" fill="url(#paint0_linear_1730_2417)"/>
<path d="M69.3203 0.148438H6.67969C2.99651 0.148438 0 3.14495 0 6.82812V69.1719C0 72.8551 2.99651 75.8516 6.67969 75.8516H69.3203C73.0035 75.8516 76 72.8551 76 69.1719V6.82812C76 3.14495 73.0035 0.148438 69.3203 0.148438ZM6.67969 4.60156H69.3203C70.548 4.60156 71.5469 5.6004 71.5469 6.82812V17.9609H4.45312V6.82812C4.45312 5.6004 5.45196 4.60156 6.67969 4.60156ZM69.3203 71.3984H6.67969C5.45196 71.3984 4.45312 70.3996 4.45312 69.1719V22.4141H71.5469V69.1719C71.5469 70.3996 70.548 71.3984 69.3203 71.3984Z" fill="url(#paint1_linear_1730_2417)"/>
<path d="M45.5574 29.2738C44.4272 28.7895 43.1181 29.313 42.6338 30.4432L29.2744 61.6151C28.7899 62.7453 29.3136 64.0544 30.4438 64.5387C31.5744 65.0232 32.8832 64.4992 33.3674 63.3693L46.7268 32.1975C47.2113 31.0671 46.6876 29.7582 45.5574 29.2738Z" fill="url(#paint2_linear_1730_2417)"/>
<path d="M45.5574 29.2738C44.4272 28.7895 43.1181 29.313 42.6338 30.4432L29.2744 61.6151C28.7899 62.7453 29.3136 64.0544 30.4438 64.5387C31.5744 65.0232 32.8832 64.4992 33.3674 63.3693L46.7268 32.1975C47.2113 31.0671 46.6876 29.7582 45.5574 29.2738Z" fill="url(#paint3_linear_1730_2417)"/>
<path d="M26.3787 36.6091C25.6104 35.6488 24.209 35.4933 23.2492 36.2614L12.1164 45.1677C11.0032 46.0579 11.0025 47.7541 12.1164 48.645L23.2492 57.5512C24.2094 58.3195 25.6108 58.1637 26.3787 57.2036C27.1469 56.2433 26.9913 54.8421 26.0309 54.0741L17.0715 46.9063L26.0309 39.7387C26.9913 38.9706 27.1469 37.5695 26.3787 36.6091Z" fill="url(#paint4_linear_1730_2417)"/>
<path d="M26.3787 36.6091C25.6104 35.6488 24.209 35.4933 23.2492 36.2614L12.1164 45.1677C11.0032 46.0579 11.0025 47.7541 12.1164 48.645L23.2492 57.5512C24.2094 58.3195 25.6108 58.1637 26.3787 57.2036C27.1469 56.2433 26.9913 54.8421 26.0309 54.0741L17.0715 46.9063L26.0309 39.7387C26.9913 38.9706 27.1469 37.5695 26.3787 36.6091Z" fill="url(#paint5_linear_1730_2417)"/>
<path d="M63.8831 45.1677L52.7503 36.2615C51.7901 35.4932 50.3888 35.6489 49.6208 36.6091C48.8527 37.5694 49.0082 38.9706 49.9686 39.7386L58.928 46.9064L49.9686 54.074C49.0082 54.8422 48.8527 56.2433 49.6208 57.2035C50.39 58.1648 51.7914 58.3186 52.7503 57.5511L63.8831 48.6449C64.9963 47.7547 64.997 46.0587 63.8831 45.1677Z" fill="url(#paint6_linear_1730_2417)"/>
<path d="M63.8831 45.1677L52.7503 36.2615C51.7901 35.4932 50.3888 35.6489 49.6208 36.6091C48.8527 37.5694 49.0082 38.9706 49.9686 39.7386L58.928 46.9064L49.9686 54.074C49.0082 54.8422 48.8527 56.2433 49.6208 57.2035C50.39 58.1648 51.7914 58.3186 52.7503 57.5511L63.8831 48.6449C64.9963 47.7547 64.997 46.0587 63.8831 45.1677Z" fill="url(#paint7_linear_1730_2417)"/>
<path d="M11.2812 13.5078C12.5109 13.5078 13.5078 12.5109 13.5078 11.2812C13.5078 10.0516 12.5109 9.05469 11.2812 9.05469C10.0516 9.05469 9.05469 10.0516 9.05469 11.2812C9.05469 12.5109 10.0516 13.5078 11.2812 13.5078Z" fill="url(#paint8_linear_1730_2417)"/>
<path d="M11.2812 13.5078C12.5109 13.5078 13.5078 12.5109 13.5078 11.2812C13.5078 10.0516 12.5109 9.05469 11.2812 9.05469C10.0516 9.05469 9.05469 10.0516 9.05469 11.2812C9.05469 12.5109 10.0516 13.5078 11.2812 13.5078Z" fill="url(#paint9_linear_1730_2417)"/>
<path d="M20.1875 13.5078C21.4172 13.5078 22.4141 12.5109 22.4141 11.2812C22.4141 10.0516 21.4172 9.05469 20.1875 9.05469C18.9578 9.05469 17.9609 10.0516 17.9609 11.2812C17.9609 12.5109 18.9578 13.5078 20.1875 13.5078Z" fill="url(#paint10_linear_1730_2417)"/>
<path d="M20.1875 13.5078C21.4172 13.5078 22.4141 12.5109 22.4141 11.2812C22.4141 10.0516 21.4172 9.05469 20.1875 9.05469C18.9578 9.05469 17.9609 10.0516 17.9609 11.2812C17.9609 12.5109 18.9578 13.5078 20.1875 13.5078Z" fill="url(#paint11_linear_1730_2417)"/>
<path d="M29.0938 13.5078C30.3234 13.5078 31.3203 12.5109 31.3203 11.2812C31.3203 10.0516 30.3234 9.05469 29.0938 9.05469C27.8641 9.05469 26.8672 10.0516 26.8672 11.2812C26.8672 12.5109 27.8641 13.5078 29.0938 13.5078Z" fill="url(#paint12_linear_1730_2417)"/>
<path d="M29.0938 13.5078C30.3234 13.5078 31.3203 12.5109 31.3203 11.2812C31.3203 10.0516 30.3234 9.05469 29.0938 9.05469C27.8641 9.05469 26.8672 10.0516 26.8672 11.2812C26.8672 12.5109 27.8641 13.5078 29.0938 13.5078Z" fill="url(#paint13_linear_1730_2417)"/>
<path d="M51.3594 13.5078H64.7188C65.9484 13.5078 66.9453 12.5109 66.9453 11.2812C66.9453 10.0516 65.9484 9.05469 64.7188 9.05469H51.3594C50.1297 9.05469 49.1328 10.0516 49.1328 11.2812C49.1328 12.5109 50.1297 13.5078 51.3594 13.5078Z" fill="url(#paint14_linear_1730_2417)"/>
<path d="M51.3594 13.5078H64.7188C65.9484 13.5078 66.9453 12.5109 66.9453 11.2812C66.9453 10.0516 65.9484 9.05469 64.7188 9.05469H51.3594C50.1297 9.05469 49.1328 10.0516 49.1328 11.2812C49.1328 12.5109 50.1297 13.5078 51.3594 13.5078Z" fill="url(#paint15_linear_1730_2417)"/>
</g>
</g>
<defs>
<linearGradient id="paint0_linear_1730_2417" x1="71.0812" y1="75.8516" x2="3.96399" y2="1.00462" gradientUnits="userSpaceOnUse">
<stop stop-color="#FFDC61"/>
<stop offset="0.460765" stop-color="#FFDC61"/>
<stop offset="1" stop-color="#FF6EF1"/>
</linearGradient>
<linearGradient id="paint1_linear_1730_2417" x1="71.0812" y1="75.8516" x2="3.96399" y2="1.00462" gradientUnits="userSpaceOnUse">
<stop stop-color="#FFDC61"/>
<stop offset="0.460765" stop-color="#FFDC61"/>
<stop offset="1" stop-color="#FF6EF1"/>
</linearGradient>
<linearGradient id="paint2_linear_1730_2417" x1="45.7545" y1="64.7193" x2="18.7805" y2="49.7372" gradientUnits="userSpaceOnUse">
<stop stop-color="#FFDC61"/>
<stop offset="0.460765" stop-color="#FFDC61"/>
<stop offset="1" stop-color="#FF6EF1"/>
</linearGradient>
<linearGradient id="paint3_linear_1730_2417" x1="45.7545" y1="64.7193" x2="18.7805" y2="49.7372" gradientUnits="userSpaceOnUse">
<stop stop-color="#FFDC61"/>
<stop offset="0.460765" stop-color="#FFDC61"/>
<stop offset="1" stop-color="#FF6EF1"/>
</linearGradient>
<linearGradient id="paint4_linear_1730_2417" x1="25.858" y1="58.0393" x2="6.61257" y2="43.0752" gradientUnits="userSpaceOnUse">
<stop stop-color="#FFDC61"/>
<stop offset="0.460765" stop-color="#FFDC61"/>
<stop offset="1" stop-color="#FF6EF1"/>
</linearGradient>
<linearGradient id="paint5_linear_1730_2417" x1="25.858" y1="58.0393" x2="6.61257" y2="43.0752" gradientUnits="userSpaceOnUse">
<stop stop-color="#FFDC61"/>
<stop offset="0.460765" stop-color="#FFDC61"/>
<stop offset="1" stop-color="#FF6EF1"/>
</linearGradient>
<linearGradient id="paint6_linear_1730_2417" x1="63.7096" y1="58.0392" x2="44.4641" y2="43.0752" gradientUnits="userSpaceOnUse">
<stop stop-color="#FFDC61"/>
<stop offset="0.460765" stop-color="#FFDC61"/>
<stop offset="1" stop-color="#FF6EF1"/>
</linearGradient>
<linearGradient id="paint7_linear_1730_2417" x1="63.7096" y1="58.0392" x2="44.4641" y2="43.0752" gradientUnits="userSpaceOnUse">
<stop stop-color="#FFDC61"/>
<stop offset="0.460765" stop-color="#FFDC61"/>
<stop offset="1" stop-color="#FF6EF1"/>
</linearGradient>
<linearGradient id="paint8_linear_1730_2417" x1="13.2196" y1="13.5078" x2="9.26988" y2="9.12042" gradientUnits="userSpaceOnUse">
<stop stop-color="#FFDC61"/>
<stop offset="0.460765" stop-color="#FFDC61"/>
<stop offset="1" stop-color="#FF6EF1"/>
</linearGradient>
<linearGradient id="paint9_linear_1730_2417" x1="13.2196" y1="13.5078" x2="9.26988" y2="9.12042" gradientUnits="userSpaceOnUse">
<stop stop-color="#FFDC61"/>
<stop offset="0.460765" stop-color="#FFDC61"/>
<stop offset="1" stop-color="#FF6EF1"/>
</linearGradient>
<linearGradient id="paint10_linear_1730_2417" x1="22.1259" y1="13.5078" x2="18.1762" y2="9.12034" gradientUnits="userSpaceOnUse">
<stop stop-color="#FFDC61"/>
<stop offset="0.460765" stop-color="#FFDC61"/>
<stop offset="1" stop-color="#FF6EF1"/>
</linearGradient>
<linearGradient id="paint11_linear_1730_2417" x1="22.1259" y1="13.5078" x2="18.1762" y2="9.12034" gradientUnits="userSpaceOnUse">
<stop stop-color="#FFDC61"/>
<stop offset="0.460765" stop-color="#FFDC61"/>
<stop offset="1" stop-color="#FF6EF1"/>
</linearGradient>
<linearGradient id="paint12_linear_1730_2417" x1="31.0321" y1="13.5078" x2="27.0824" y2="9.12043" gradientUnits="userSpaceOnUse">
<stop stop-color="#FFDC61"/>
<stop offset="0.460765" stop-color="#FFDC61"/>
<stop offset="1" stop-color="#FF6EF1"/>
</linearGradient>
<linearGradient id="paint13_linear_1730_2417" x1="31.0321" y1="13.5078" x2="27.0824" y2="9.12043" gradientUnits="userSpaceOnUse">
<stop stop-color="#FFDC61"/>
<stop offset="0.460765" stop-color="#FFDC61"/>
<stop offset="1" stop-color="#FF6EF1"/>
</linearGradient>
<linearGradient id="paint14_linear_1730_2417" x1="65.7925" y1="13.5078" x2="64.091" y2="5.94766" gradientUnits="userSpaceOnUse">
<stop stop-color="#FFDC61"/>
<stop offset="0.460765" stop-color="#FFDC61"/>
<stop offset="1" stop-color="#FF6EF1"/>
</linearGradient>
<linearGradient id="paint15_linear_1730_2417" x1="65.7925" y1="13.5078" x2="64.091" y2="5.94766" gradientUnits="userSpaceOnUse">
<stop stop-color="#FFDC61"/>
<stop offset="0.460765" stop-color="#FFDC61"/>
<stop offset="1" stop-color="#FF6EF1"/>
</linearGradient>
<clipPath id="clip0_1730_2417">
<rect width="76" height="76" fill="white"/>
</clipPath>
</defs>
</svg>
