<svg width="289" height="945" viewBox="0 0 289 945" fill="none" xmlns="http://www.w3.org/2000/svg">
<line x1="97.5" y1="848" x2="97.5" y2="-6.94308e-08" stroke="#8FD4FF"/>
<line x1="288.5" y1="848" x2="288.5" y2="-6.94308e-08" stroke="#8FD4FF"/>
<line x1="0.5" y1="848" x2="0.500012" y2="-6.94308e-08" stroke="#8FD4FF"/>
<line x1="192.5" y1="848" x2="192.5" y2="-6.94308e-08" stroke="#8FD4FF"/>
<g clip-path="url(#clip0_1342_1025)">
<path d="M179.293 755.281L179.293 632.243C180.856 589.751 218.701 586.681 225.009 586.465C225.577 586.448 226.106 586.171 226.447 585.717L226.623 585.485C227.186 584.737 227.112 583.695 226.447 583.038C226.094 582.686 225.611 582.494 225.111 582.494C183.22 582.482 179.293 536.597 179.293 536.597L179.293 384.098C180.856 341.607 218.701 338.536 225.009 338.321C225.577 338.304 226.106 338.026 226.447 337.573L226.623 337.341C227.186 336.593 227.112 335.55 226.447 334.893C226.094 334.542 225.611 334.349 225.111 334.349C183.22 334.338 179.293 288.453 179.293 288.453L179.293 135.376C180.856 92.8844 218.701 89.8136 225.009 89.5984C225.577 89.5814 226.106 89.3037 226.447 88.8505L226.623 88.6182C227.186 87.8704 227.112 86.8279 226.447 86.1707C226.094 85.8195 225.611 85.6268 225.111 85.6268C183.22 85.6155 179.293 39.7304 179.293 39.7304C179.293 31.5947 172.678 25 164.517 25C156.356 25 149.741 31.5947 149.741 39.7304L149.741 163.386L149.707 163.239C148.144 205.73 110.299 208.801 103.991 209.016C103.423 209.033 102.894 209.311 102.553 209.764L102.377 209.997C101.814 210.744 101.888 211.787 102.553 212.444C102.906 212.795 103.389 212.988 103.889 212.988C145.78 212.999 149.707 258.884 149.707 258.884L149.741 258.737L149.741 412.097L149.707 411.95C148.144 454.441 110.299 457.512 103.991 457.727C103.423 457.744 102.894 458.022 102.553 458.475L102.377 458.708C101.814 459.455 101.888 460.498 102.553 461.155C102.906 461.506 103.389 461.699 103.889 461.699C145.78 461.71 149.707 507.595 149.707 507.595L149.741 507.448L149.741 660.242L149.707 660.094C148.144 702.586 110.299 705.657 103.991 705.872C103.423 705.889 102.894 706.166 102.553 706.62L102.377 706.852C101.814 707.6 101.888 708.642 102.553 709.3C102.906 709.651 103.389 709.843 103.889 709.843C145.78 709.855 149.707 755.74 149.707 755.74L149.746 755.559C149.9 763.558 156.453 770 164.517 770C172.678 770 179.293 763.405 179.293 755.27L179.293 755.281Z" fill="url(#paint0_linear_1342_1025)"/>
<path d="M160.355 80.08L156.449 73.92H158.801L161.377 78.204L163.953 73.92H166.221L162.399 80.052V84H160.355V80.08ZM170.685 84.168C169.929 84.168 169.276 84.0047 168.725 83.678C168.174 83.3513 167.754 82.8987 167.465 82.32C167.176 81.7413 167.031 81.088 167.031 80.36C167.031 79.632 167.176 78.9787 167.465 78.4C167.754 77.8213 168.174 77.3687 168.725 77.042C169.276 76.7153 169.929 76.552 170.685 76.552C171.441 76.552 172.09 76.7153 172.631 77.042C173.182 77.3687 173.602 77.8307 173.891 78.428C174.18 79.0253 174.325 79.7253 174.325 80.528V80.948H168.907C168.982 81.4987 169.173 81.928 169.481 82.236C169.789 82.544 170.19 82.698 170.685 82.698C171.488 82.698 172.043 82.3853 172.351 81.76H174.199C173.956 82.4973 173.527 83.0853 172.911 83.524C172.295 83.9533 171.553 84.168 170.685 84.168ZM172.421 79.632C172.328 79.128 172.132 78.736 171.833 78.456C171.534 78.1667 171.152 78.022 170.685 78.022C170.209 78.022 169.822 78.1667 169.523 78.456C169.224 78.736 169.028 79.128 168.935 79.632H172.421ZM180.346 83.188C180.038 83.5427 179.697 83.7947 179.324 83.944C178.95 84.0933 178.521 84.168 178.036 84.168C177.233 84.168 176.589 83.9767 176.104 83.594C175.618 83.202 175.376 82.656 175.376 81.956C175.376 81.3213 175.6 80.8313 176.048 80.486C176.505 80.1313 177.228 79.87 178.218 79.702L180.29 79.338V78.96C180.29 78.6427 180.192 78.4047 179.996 78.246C179.8 78.078 179.478 77.994 179.03 77.994C178.619 77.994 178.283 78.0873 178.022 78.274C177.76 78.4513 177.625 78.7127 177.616 79.058H175.726C175.735 78.2367 176.043 77.616 176.65 77.196C177.266 76.7667 178.054 76.552 179.016 76.552C180.052 76.552 180.831 76.7433 181.354 77.126C181.886 77.5087 182.152 78.0453 182.152 78.736V84H180.346V83.188ZM177.322 81.886C177.322 82.166 177.42 82.39 177.616 82.558C177.821 82.7167 178.12 82.796 178.512 82.796C179.006 82.796 179.426 82.6607 179.772 82.39C180.117 82.1193 180.29 81.718 180.29 81.186V80.57L178.582 80.92C178.143 81.004 177.821 81.116 177.616 81.256C177.42 81.3867 177.322 81.5967 177.322 81.886ZM183.704 76.72H185.552V78.05C185.99 77.1073 186.714 76.636 187.722 76.636H188.31V78.386H187.638C186.975 78.386 186.471 78.554 186.126 78.89C185.78 79.2167 185.608 79.7767 185.608 80.57V84H183.704V76.72ZM169.609 100.168C168.246 100.168 167.247 99.706 166.613 98.782C165.978 97.8487 165.661 96.5747 165.661 94.96C165.661 93.3453 165.978 92.076 166.613 91.152C167.247 90.2187 168.246 89.752 169.609 89.752C170.971 89.752 171.97 90.2187 172.605 91.152C173.239 92.076 173.557 93.3453 173.557 94.96C173.557 96.5747 173.239 97.8487 172.605 98.782C171.97 99.706 170.971 100.168 169.609 100.168ZM167.789 94.96C167.789 96.0987 167.924 96.9667 168.195 97.564C168.465 98.152 168.937 98.446 169.609 98.446C170.281 98.446 170.752 98.152 171.023 97.564C171.293 96.9667 171.429 96.0987 171.429 94.96C171.429 93.8213 171.293 92.958 171.023 92.37C170.752 91.7727 170.281 91.474 169.609 91.474C168.937 91.474 168.465 91.7727 168.195 92.37C167.924 92.958 167.789 93.8213 167.789 94.96ZM177.035 92.104L174.907 93.602V91.488L177.161 89.92H179.079V100H177.035V92.104Z" fill="#161616"/>
<path d="M160.355 329.08L156.449 322.92H158.801L161.377 327.204L163.953 322.92H166.221L162.399 329.052V333H160.355V329.08ZM170.685 333.168C169.929 333.168 169.276 333.005 168.725 332.678C168.174 332.351 167.754 331.899 167.465 331.32C167.176 330.741 167.031 330.088 167.031 329.36C167.031 328.632 167.176 327.979 167.465 327.4C167.754 326.821 168.174 326.369 168.725 326.042C169.276 325.715 169.929 325.552 170.685 325.552C171.441 325.552 172.09 325.715 172.631 326.042C173.182 326.369 173.602 326.831 173.891 327.428C174.18 328.025 174.325 328.725 174.325 329.528V329.948H168.907C168.982 330.499 169.173 330.928 169.481 331.236C169.789 331.544 170.19 331.698 170.685 331.698C171.488 331.698 172.043 331.385 172.351 330.76H174.199C173.956 331.497 173.527 332.085 172.911 332.524C172.295 332.953 171.553 333.168 170.685 333.168ZM172.421 328.632C172.328 328.128 172.132 327.736 171.833 327.456C171.534 327.167 171.152 327.022 170.685 327.022C170.209 327.022 169.822 327.167 169.523 327.456C169.224 327.736 169.028 328.128 168.935 328.632H172.421ZM180.346 332.188C180.038 332.543 179.697 332.795 179.324 332.944C178.95 333.093 178.521 333.168 178.036 333.168C177.233 333.168 176.589 332.977 176.104 332.594C175.618 332.202 175.376 331.656 175.376 330.956C175.376 330.321 175.6 329.831 176.048 329.486C176.505 329.131 177.228 328.87 178.218 328.702L180.29 328.338V327.96C180.29 327.643 180.192 327.405 179.996 327.246C179.8 327.078 179.478 326.994 179.03 326.994C178.619 326.994 178.283 327.087 178.022 327.274C177.76 327.451 177.625 327.713 177.616 328.058H175.726C175.735 327.237 176.043 326.616 176.65 326.196C177.266 325.767 178.054 325.552 179.016 325.552C180.052 325.552 180.831 325.743 181.354 326.126C181.886 326.509 182.152 327.045 182.152 327.736V333H180.346V332.188ZM177.322 330.886C177.322 331.166 177.42 331.39 177.616 331.558C177.821 331.717 178.12 331.796 178.512 331.796C179.006 331.796 179.426 331.661 179.772 331.39C180.117 331.119 180.29 330.718 180.29 330.186V329.57L178.582 329.92C178.143 330.004 177.821 330.116 177.616 330.256C177.42 330.387 177.322 330.597 177.322 330.886ZM183.704 325.72H185.552V327.05C185.99 326.107 186.714 325.636 187.722 325.636H188.31V327.386H187.638C186.975 327.386 186.471 327.554 186.126 327.89C185.78 328.217 185.608 328.777 185.608 329.57V333H183.704V325.72ZM168.111 349.168C166.749 349.168 165.75 348.706 165.115 347.782C164.481 346.849 164.163 345.575 164.163 343.96C164.163 342.345 164.481 341.076 165.115 340.152C165.75 339.219 166.749 338.752 168.111 338.752C169.474 338.752 170.473 339.219 171.107 340.152C171.742 341.076 172.059 342.345 172.059 343.96C172.059 345.575 171.742 346.849 171.107 347.782C170.473 348.706 169.474 349.168 168.111 349.168ZM166.291 343.96C166.291 345.099 166.427 345.967 166.697 346.564C166.968 347.152 167.439 347.446 168.111 347.446C168.783 347.446 169.255 347.152 169.525 346.564C169.796 345.967 169.931 345.099 169.931 343.96C169.931 342.821 169.796 341.958 169.525 341.37C169.255 340.773 168.783 340.474 168.111 340.474C167.439 340.474 166.968 340.773 166.697 341.37C166.427 341.958 166.291 342.821 166.291 343.96ZM177.246 349.168C176.033 349.168 175.104 348.883 174.46 348.314C173.826 347.735 173.499 346.919 173.48 345.864H175.454C175.473 346.405 175.627 346.816 175.916 347.096C176.215 347.376 176.649 347.516 177.218 347.516C177.741 347.516 178.156 347.385 178.464 347.124C178.772 346.853 178.926 346.489 178.926 346.032C178.926 345.5 178.758 345.131 178.422 344.926C178.086 344.711 177.592 344.604 176.938 344.604H176.112V343.092H176.784C178.044 343.092 178.674 342.63 178.674 341.706C178.674 341.295 178.534 340.978 178.254 340.754C177.984 340.521 177.62 340.404 177.162 340.404C176.136 340.404 175.613 340.931 175.594 341.986H173.62C173.639 340.95 173.947 340.152 174.544 339.592C175.142 339.032 176.024 338.752 177.19 338.752C177.918 338.752 178.544 338.883 179.066 339.144C179.589 339.396 179.986 339.737 180.256 340.166C180.536 340.586 180.676 341.048 180.676 341.552C180.676 342.009 180.555 342.434 180.312 342.826C180.079 343.218 179.71 343.521 179.206 343.736C179.785 343.932 180.219 344.24 180.508 344.66C180.798 345.071 180.942 345.556 180.942 346.116C180.942 346.704 180.798 347.231 180.508 347.698C180.219 348.155 179.794 348.515 179.234 348.776C178.674 349.037 178.012 349.168 177.246 349.168Z" fill="#161616"/>
<path d="M160.355 578.08L156.449 571.92H158.801L161.377 576.204L163.953 571.92H166.221L162.399 578.052V582H160.355V578.08ZM170.685 582.168C169.929 582.168 169.276 582.005 168.725 581.678C168.174 581.351 167.754 580.899 167.465 580.32C167.176 579.741 167.031 579.088 167.031 578.36C167.031 577.632 167.176 576.979 167.465 576.4C167.754 575.821 168.174 575.369 168.725 575.042C169.276 574.715 169.929 574.552 170.685 574.552C171.441 574.552 172.09 574.715 172.631 575.042C173.182 575.369 173.602 575.831 173.891 576.428C174.18 577.025 174.325 577.725 174.325 578.528V578.948H168.907C168.982 579.499 169.173 579.928 169.481 580.236C169.789 580.544 170.19 580.698 170.685 580.698C171.488 580.698 172.043 580.385 172.351 579.76H174.199C173.956 580.497 173.527 581.085 172.911 581.524C172.295 581.953 171.553 582.168 170.685 582.168ZM172.421 577.632C172.328 577.128 172.132 576.736 171.833 576.456C171.534 576.167 171.152 576.022 170.685 576.022C170.209 576.022 169.822 576.167 169.523 576.456C169.224 576.736 169.028 577.128 168.935 577.632H172.421ZM180.346 581.188C180.038 581.543 179.697 581.795 179.324 581.944C178.95 582.093 178.521 582.168 178.036 582.168C177.233 582.168 176.589 581.977 176.104 581.594C175.618 581.202 175.376 580.656 175.376 579.956C175.376 579.321 175.6 578.831 176.048 578.486C176.505 578.131 177.228 577.87 178.218 577.702L180.29 577.338V576.96C180.29 576.643 180.192 576.405 179.996 576.246C179.8 576.078 179.478 575.994 179.03 575.994C178.619 575.994 178.283 576.087 178.022 576.274C177.76 576.451 177.625 576.713 177.616 577.058H175.726C175.735 576.237 176.043 575.616 176.65 575.196C177.266 574.767 178.054 574.552 179.016 574.552C180.052 574.552 180.831 574.743 181.354 575.126C181.886 575.509 182.152 576.045 182.152 576.736V582H180.346V581.188ZM177.322 579.886C177.322 580.166 177.42 580.39 177.616 580.558C177.821 580.717 178.12 580.796 178.512 580.796C179.006 580.796 179.426 580.661 179.772 580.39C180.117 580.119 180.29 579.718 180.29 579.186V578.57L178.582 578.92C178.143 579.004 177.821 579.116 177.616 579.256C177.42 579.387 177.322 579.597 177.322 579.886ZM183.704 574.72H185.552V576.05C185.99 575.107 186.714 574.636 187.722 574.636H188.31V576.386H187.638C186.975 576.386 186.471 576.554 186.126 576.89C185.78 577.217 185.608 577.777 185.608 578.57V582H183.704V574.72ZM168.248 598.168C166.886 598.168 165.887 597.706 165.252 596.782C164.618 595.849 164.3 594.575 164.3 592.96C164.3 591.345 164.618 590.076 165.252 589.152C165.887 588.219 166.886 587.752 168.248 587.752C169.611 587.752 170.61 588.219 171.244 589.152C171.879 590.076 172.196 591.345 172.196 592.96C172.196 594.575 171.879 595.849 171.244 596.782C170.61 597.706 169.611 598.168 168.248 598.168ZM166.428 592.96C166.428 594.099 166.564 594.967 166.834 595.564C167.105 596.152 167.576 596.446 168.248 596.446C168.92 596.446 169.392 596.152 169.662 595.564C169.933 594.967 170.068 594.099 170.068 592.96C170.068 591.821 169.933 590.958 169.662 590.37C169.392 589.773 168.92 589.474 168.248 589.474C167.576 589.474 167.105 589.773 166.834 590.37C166.564 590.958 166.428 591.821 166.428 592.96ZM177.187 598.168C176.16 598.168 175.33 597.897 174.695 597.356C174.06 596.815 173.692 596.087 173.589 595.172H175.535C175.591 595.583 175.764 595.914 176.053 596.166C176.342 596.409 176.72 596.53 177.187 596.53C177.7 596.53 178.111 596.357 178.419 596.012C178.736 595.667 178.895 595.219 178.895 594.668C178.895 594.117 178.741 593.674 178.433 593.338C178.125 592.993 177.71 592.82 177.187 592.82C176.478 592.82 175.96 593.142 175.633 593.786H173.743L174.611 587.92H180.379V589.642H176.193L175.857 591.854C176.305 591.509 176.865 591.336 177.537 591.336C178.256 591.336 178.862 591.49 179.357 591.798C179.861 592.097 180.234 592.498 180.477 593.002C180.729 593.506 180.855 594.061 180.855 594.668C180.855 595.359 180.696 595.97 180.379 596.502C180.071 597.034 179.637 597.445 179.077 597.734C178.526 598.023 177.896 598.168 177.187 598.168Z" fill="#161616"/>
<path d="M146.355 701.08L142.449 694.92H144.801L147.377 699.204L149.953 694.92H152.221L148.399 701.052V705H146.355V701.08ZM156.685 705.168C155.929 705.168 155.276 705.005 154.725 704.678C154.174 704.351 153.754 703.899 153.465 703.32C153.176 702.741 153.031 702.088 153.031 701.36C153.031 700.632 153.176 699.979 153.465 699.4C153.754 698.821 154.174 698.369 154.725 698.042C155.276 697.715 155.929 697.552 156.685 697.552C157.441 697.552 158.09 697.715 158.631 698.042C159.182 698.369 159.602 698.831 159.891 699.428C160.18 700.025 160.325 700.725 160.325 701.528V701.948H154.907C154.982 702.499 155.173 702.928 155.481 703.236C155.789 703.544 156.19 703.698 156.685 703.698C157.488 703.698 158.043 703.385 158.351 702.76H160.199C159.956 703.497 159.527 704.085 158.911 704.524C158.295 704.953 157.553 705.168 156.685 705.168ZM158.421 700.632C158.328 700.128 158.132 699.736 157.833 699.456C157.534 699.167 157.152 699.022 156.685 699.022C156.209 699.022 155.822 699.167 155.523 699.456C155.224 699.736 155.028 700.128 154.935 700.632H158.421ZM166.346 704.188C166.038 704.543 165.697 704.795 165.324 704.944C164.95 705.093 164.521 705.168 164.036 705.168C163.233 705.168 162.589 704.977 162.104 704.594C161.618 704.202 161.376 703.656 161.376 702.956C161.376 702.321 161.6 701.831 162.048 701.486C162.505 701.131 163.228 700.87 164.218 700.702L166.29 700.338V699.96C166.29 699.643 166.192 699.405 165.996 699.246C165.8 699.078 165.478 698.994 165.03 698.994C164.619 698.994 164.283 699.087 164.022 699.274C163.76 699.451 163.625 699.713 163.616 700.058H161.726C161.735 699.237 162.043 698.616 162.65 698.196C163.266 697.767 164.054 697.552 165.016 697.552C166.052 697.552 166.831 697.743 167.354 698.126C167.886 698.509 168.152 699.045 168.152 699.736V705H166.346V704.188ZM163.322 702.886C163.322 703.166 163.42 703.39 163.616 703.558C163.821 703.717 164.12 703.796 164.512 703.796C165.006 703.796 165.426 703.661 165.772 703.39C166.117 703.119 166.29 702.718 166.29 702.186V701.57L164.582 701.92C164.143 702.004 163.821 702.116 163.616 702.256C163.42 702.387 163.322 702.597 163.322 702.886ZM169.704 697.72H171.552V699.05C171.99 698.107 172.714 697.636 173.722 697.636H174.31V699.386H173.638C172.975 699.386 172.471 699.554 172.126 699.89C171.78 700.217 171.608 700.777 171.608 701.57V705H169.704V697.72ZM154.07 721.168C152.708 721.168 151.709 720.706 151.074 719.782C150.44 718.849 150.122 717.575 150.122 715.96C150.122 714.345 150.44 713.076 151.074 712.152C151.709 711.219 152.708 710.752 154.07 710.752C155.433 710.752 156.432 711.219 157.066 712.152C157.701 713.076 158.018 714.345 158.018 715.96C158.018 717.575 157.701 718.849 157.066 719.782C156.432 720.706 155.433 721.168 154.07 721.168ZM152.25 715.96C152.25 717.099 152.386 717.967 152.656 718.564C152.927 719.152 153.398 719.446 154.07 719.446C154.742 719.446 155.214 719.152 155.484 718.564C155.755 717.967 155.89 717.099 155.89 715.96C155.89 714.821 155.755 713.958 155.484 713.37C155.214 712.773 154.742 712.474 154.07 712.474C153.398 712.474 152.927 712.773 152.656 713.37C152.386 713.958 152.25 714.821 152.25 715.96ZM163.317 721.168C162.86 721.168 162.449 721.107 162.085 720.986C161.731 720.865 161.395 720.683 161.077 720.44C160.508 720.02 160.097 719.446 159.845 718.718C159.593 717.981 159.467 717.113 159.467 716.114C159.467 714.406 159.799 713.085 160.461 712.152C161.124 711.219 162.076 710.752 163.317 710.752C164.213 710.752 164.969 711.009 165.585 711.522C166.211 712.026 166.589 712.721 166.719 713.608H164.829C164.745 713.197 164.568 712.88 164.297 712.656C164.027 712.432 163.705 712.32 163.331 712.32C162.071 712.32 161.409 713.342 161.343 715.386C161.903 714.705 162.65 714.364 163.583 714.364C164.321 714.364 164.937 714.513 165.431 714.812C165.935 715.111 166.309 715.512 166.551 716.016C166.794 716.52 166.915 717.075 166.915 717.682C166.915 718.373 166.766 718.984 166.467 719.516C166.178 720.039 165.763 720.445 165.221 720.734C164.68 721.023 164.045 721.168 163.317 721.168ZM161.651 717.71C161.651 718.251 161.796 718.695 162.085 719.04C162.375 719.376 162.785 719.544 163.317 719.544C163.84 719.544 164.246 719.376 164.535 719.04C164.834 718.695 164.983 718.251 164.983 717.71C164.983 717.178 164.834 716.744 164.535 716.408C164.246 716.063 163.84 715.89 163.317 715.89C162.785 715.89 162.375 716.058 162.085 716.394C161.796 716.73 161.651 717.169 161.651 717.71Z" fill="#161616"/>
<path d="M146.355 206.08L142.449 199.92H144.801L147.377 204.204L149.953 199.92H152.221L148.399 206.052V210H146.355V206.08ZM156.685 210.168C155.929 210.168 155.276 210.005 154.725 209.678C154.174 209.351 153.754 208.899 153.465 208.32C153.176 207.741 153.031 207.088 153.031 206.36C153.031 205.632 153.176 204.979 153.465 204.4C153.754 203.821 154.174 203.369 154.725 203.042C155.276 202.715 155.929 202.552 156.685 202.552C157.441 202.552 158.09 202.715 158.631 203.042C159.182 203.369 159.602 203.831 159.891 204.428C160.18 205.025 160.325 205.725 160.325 206.528V206.948H154.907C154.982 207.499 155.173 207.928 155.481 208.236C155.789 208.544 156.19 208.698 156.685 208.698C157.488 208.698 158.043 208.385 158.351 207.76H160.199C159.956 208.497 159.527 209.085 158.911 209.524C158.295 209.953 157.553 210.168 156.685 210.168ZM158.421 205.632C158.328 205.128 158.132 204.736 157.833 204.456C157.534 204.167 157.152 204.022 156.685 204.022C156.209 204.022 155.822 204.167 155.523 204.456C155.224 204.736 155.028 205.128 154.935 205.632H158.421ZM166.346 209.188C166.038 209.543 165.697 209.795 165.324 209.944C164.95 210.093 164.521 210.168 164.036 210.168C163.233 210.168 162.589 209.977 162.104 209.594C161.618 209.202 161.376 208.656 161.376 207.956C161.376 207.321 161.6 206.831 162.048 206.486C162.505 206.131 163.228 205.87 164.218 205.702L166.29 205.338V204.96C166.29 204.643 166.192 204.405 165.996 204.246C165.8 204.078 165.478 203.994 165.03 203.994C164.619 203.994 164.283 204.087 164.022 204.274C163.76 204.451 163.625 204.713 163.616 205.058H161.726C161.735 204.237 162.043 203.616 162.65 203.196C163.266 202.767 164.054 202.552 165.016 202.552C166.052 202.552 166.831 202.743 167.354 203.126C167.886 203.509 168.152 204.045 168.152 204.736V210H166.346V209.188ZM163.322 207.886C163.322 208.166 163.42 208.39 163.616 208.558C163.821 208.717 164.12 208.796 164.512 208.796C165.006 208.796 165.426 208.661 165.772 208.39C166.117 208.119 166.29 207.718 166.29 207.186V206.57L164.582 206.92C164.143 207.004 163.821 207.116 163.616 207.256C163.42 207.387 163.322 207.597 163.322 207.886ZM169.704 202.72H171.552V204.05C171.99 203.107 172.714 202.636 173.722 202.636H174.31V204.386H173.638C172.975 204.386 172.471 204.554 172.126 204.89C171.78 205.217 171.608 205.777 171.608 206.57V210H169.704V202.72ZM154.228 226.168C152.865 226.168 151.866 225.706 151.232 224.782C150.597 223.849 150.28 222.575 150.28 220.96C150.28 219.345 150.597 218.076 151.232 217.152C151.866 216.219 152.865 215.752 154.228 215.752C155.59 215.752 156.589 216.219 157.224 217.152C157.858 218.076 158.176 219.345 158.176 220.96C158.176 222.575 157.858 223.849 157.224 224.782C156.589 225.706 155.59 226.168 154.228 226.168ZM152.408 220.96C152.408 222.099 152.543 222.967 152.814 223.564C153.084 224.152 153.556 224.446 154.228 224.446C154.9 224.446 155.371 224.152 155.642 223.564C155.912 222.967 156.048 222.099 156.048 220.96C156.048 219.821 155.912 218.958 155.642 218.37C155.371 217.773 154.9 217.474 154.228 217.474C153.556 217.474 153.084 217.773 152.814 218.37C152.543 218.958 152.408 219.821 152.408 220.96ZM159.582 224.362L163.628 220.75C163.964 220.442 164.226 220.129 164.412 219.812C164.599 219.485 164.692 219.135 164.692 218.762C164.692 218.361 164.557 218.048 164.286 217.824C164.016 217.591 163.652 217.474 163.194 217.474C162.681 217.474 162.275 217.623 161.976 217.922C161.687 218.211 161.547 218.641 161.556 219.21H159.582C159.582 218.109 159.895 217.259 160.52 216.662C161.146 216.055 162.037 215.752 163.194 215.752C163.876 215.752 164.478 215.878 165 216.13C165.532 216.382 165.943 216.727 166.232 217.166C166.531 217.605 166.68 218.104 166.68 218.664C166.68 219.28 166.517 219.849 166.19 220.372C165.873 220.895 165.453 221.394 164.93 221.87L162.256 224.278H166.792V226H159.582V224.362Z" fill="#161616"/>
<path d="M146.355 452.08L142.449 445.92H144.801L147.377 450.204L149.953 445.92H152.221L148.399 452.052V456H146.355V452.08ZM156.685 456.168C155.929 456.168 155.276 456.005 154.725 455.678C154.174 455.351 153.754 454.899 153.465 454.32C153.176 453.741 153.031 453.088 153.031 452.36C153.031 451.632 153.176 450.979 153.465 450.4C153.754 449.821 154.174 449.369 154.725 449.042C155.276 448.715 155.929 448.552 156.685 448.552C157.441 448.552 158.09 448.715 158.631 449.042C159.182 449.369 159.602 449.831 159.891 450.428C160.18 451.025 160.325 451.725 160.325 452.528V452.948H154.907C154.982 453.499 155.173 453.928 155.481 454.236C155.789 454.544 156.19 454.698 156.685 454.698C157.488 454.698 158.043 454.385 158.351 453.76H160.199C159.956 454.497 159.527 455.085 158.911 455.524C158.295 455.953 157.553 456.168 156.685 456.168ZM158.421 451.632C158.328 451.128 158.132 450.736 157.833 450.456C157.534 450.167 157.152 450.022 156.685 450.022C156.209 450.022 155.822 450.167 155.523 450.456C155.224 450.736 155.028 451.128 154.935 451.632H158.421ZM166.346 455.188C166.038 455.543 165.697 455.795 165.324 455.944C164.95 456.093 164.521 456.168 164.036 456.168C163.233 456.168 162.589 455.977 162.104 455.594C161.618 455.202 161.376 454.656 161.376 453.956C161.376 453.321 161.6 452.831 162.048 452.486C162.505 452.131 163.228 451.87 164.218 451.702L166.29 451.338V450.96C166.29 450.643 166.192 450.405 165.996 450.246C165.8 450.078 165.478 449.994 165.03 449.994C164.619 449.994 164.283 450.087 164.022 450.274C163.76 450.451 163.625 450.713 163.616 451.058H161.726C161.735 450.237 162.043 449.616 162.65 449.196C163.266 448.767 164.054 448.552 165.016 448.552C166.052 448.552 166.831 448.743 167.354 449.126C167.886 449.509 168.152 450.045 168.152 450.736V456H166.346V455.188ZM163.322 453.886C163.322 454.166 163.42 454.39 163.616 454.558C163.821 454.717 164.12 454.796 164.512 454.796C165.006 454.796 165.426 454.661 165.772 454.39C166.117 454.119 166.29 453.718 166.29 453.186V452.57L164.582 452.92C164.143 453.004 163.821 453.116 163.616 453.256C163.42 453.387 163.322 453.597 163.322 453.886ZM169.704 448.72H171.552V450.05C171.99 449.107 172.714 448.636 173.722 448.636H174.31V450.386H173.638C172.975 450.386 172.471 450.554 172.126 450.89C171.78 451.217 171.608 451.777 171.608 452.57V456H169.704V448.72ZM153.79 472.168C152.428 472.168 151.429 471.706 150.794 470.782C150.16 469.849 149.842 468.575 149.842 466.96C149.842 465.345 150.16 464.076 150.794 463.152C151.429 462.219 152.428 461.752 153.79 461.752C155.153 461.752 156.152 462.219 156.786 463.152C157.421 464.076 157.738 465.345 157.738 466.96C157.738 468.575 157.421 469.849 156.786 470.782C156.152 471.706 155.153 472.168 153.79 472.168ZM151.97 466.96C151.97 468.099 152.106 468.967 152.376 469.564C152.647 470.152 153.118 470.446 153.79 470.446C154.462 470.446 154.934 470.152 155.204 469.564C155.475 468.967 155.61 468.099 155.61 466.96C155.61 465.821 155.475 464.958 155.204 464.37C154.934 463.773 154.462 463.474 153.79 463.474C153.118 463.474 152.647 463.773 152.376 464.37C152.106 464.958 151.97 465.821 151.97 466.96ZM159.061 468.038L163.765 461.92H165.991V468.206H167.349V469.928H165.991V472H163.947V469.928H159.061V468.038ZM163.989 468.206V464.062L160.867 468.206H163.989Z" fill="#161616"/>
</g>
<defs>
<linearGradient id="paint0_linear_1342_1025" x1="164.5" y1="25" x2="164.5" y2="770" gradientUnits="userSpaceOnUse">
<stop stop-color="#69CADD"/>
<stop offset="1" stop-color="#8FD3FE"/>
</linearGradient>
<clipPath id="clip0_1342_1025">
<rect width="945" height="158" fill="white" transform="translate(243.5) rotate(90)"/>
</clipPath>
</defs>
</svg>
