<svg width="945" height="493" viewBox="0 0 945 493" fill="none" xmlns="http://www.w3.org/2000/svg">
<line x1="79.5" y1="493" x2="79.5" y2="-2.18557e-08" stroke="#8FD4FF"/>
<line x1="395.5" y1="493" x2="395.5" y2="-2.18557e-08" stroke="#8FD4FF"/>
<line x1="709.5" y1="493" x2="709.5" y2="-2.18557e-08" stroke="#8FD4FF"/>
<line x1="235.5" y1="493" x2="235.5" y2="-2.18557e-08" stroke="#8FD4FF"/>
<line x1="551.5" y1="493" x2="551.5" y2="-2.18557e-08" stroke="#8FD4FF"/>
<line x1="865.5" y1="493" x2="865.5" y2="-2.18557e-08" stroke="#8FD4FF"/>
<g clip-path="url(#clip0_1342_1021)">
<path d="M926.316 247.301H770.251C716.353 245.326 712.458 197.489 712.185 189.515C712.164 188.796 711.811 188.128 711.237 187.697L710.942 187.475C709.993 186.763 708.671 186.857 707.837 187.697C707.392 188.143 707.148 188.753 707.148 189.385C707.133 242.337 648.931 247.301 648.931 247.301H455.497C401.6 245.326 397.705 197.489 397.432 189.515C397.41 188.796 397.058 188.128 396.483 187.697L396.189 187.475C395.24 186.763 393.918 186.857 393.084 187.697C392.639 188.143 392.394 188.753 392.394 189.385C392.38 242.337 334.178 247.301 334.178 247.301H140.011C86.1137 245.326 82.2187 197.489 81.9456 189.515C81.9241 188.796 81.572 188.128 80.9971 187.697L80.7024 187.475C79.7538 186.763 78.4315 186.857 77.5979 187.697C77.1524 188.143 76.908 188.753 76.908 189.385C76.8937 242.337 18.6917 247.301 18.6917 247.301C8.37219 247.301 0.00732422 255.663 0.00732422 265.979C0.00732422 276.295 8.37219 284.657 18.6917 284.657H175.54L175.353 284.7C229.251 286.675 233.146 334.512 233.419 342.486C233.44 343.205 233.792 343.873 234.367 344.304L234.662 344.526C235.611 345.238 236.933 345.144 237.766 344.304C238.212 343.858 238.456 343.248 238.456 342.615C238.471 289.664 296.673 284.7 296.673 284.7L296.486 284.657H491.012L490.825 284.7C544.723 286.675 548.617 334.512 548.891 342.486C548.912 343.205 549.264 343.873 549.839 344.304L550.134 344.526C551.082 345.238 552.405 345.144 553.238 344.304C553.684 343.858 553.928 343.248 553.928 342.615C553.943 289.664 612.145 284.7 612.145 284.7L611.958 284.657H805.765L805.578 284.7C859.476 286.675 863.371 334.512 863.644 342.486C863.665 343.205 864.018 343.873 864.592 344.304L864.887 344.526C865.836 345.238 867.158 345.144 867.992 344.304C868.437 343.858 868.682 343.248 868.682 342.615C868.696 289.664 926.898 284.7 926.898 284.7L926.668 284.65C936.815 284.456 944.986 276.173 944.986 265.979C944.986 255.663 936.621 247.301 926.301 247.301H926.316Z" fill="url(#paint0_linear_1342_1021)"/>
<path d="M366.827 260.52L362.363 253.48H365.051L367.995 258.376L370.939 253.48H373.531L369.163 260.488V265H366.827V260.52ZM378.633 265.192C377.769 265.192 377.023 265.005 376.393 264.632C375.764 264.259 375.284 263.741 374.953 263.08C374.623 262.419 374.457 261.672 374.457 260.84C374.457 260.008 374.623 259.261 374.953 258.6C375.284 257.939 375.764 257.421 376.393 257.048C377.023 256.675 377.769 256.488 378.633 256.488C379.497 256.488 380.239 256.675 380.857 257.048C381.487 257.421 381.967 257.949 382.297 258.632C382.628 259.315 382.793 260.115 382.793 261.032V261.512H376.601C376.687 262.141 376.905 262.632 377.257 262.984C377.609 263.336 378.068 263.512 378.633 263.512C379.551 263.512 380.185 263.155 380.537 262.44H382.649C382.372 263.283 381.881 263.955 381.177 264.456C380.473 264.947 379.625 265.192 378.633 265.192ZM380.617 260.008C380.511 259.432 380.287 258.984 379.945 258.664C379.604 258.333 379.167 258.168 378.633 258.168C378.089 258.168 377.647 258.333 377.305 258.664C376.964 258.984 376.74 259.432 376.633 260.008H380.617ZM389.674 264.072C389.322 264.477 388.933 264.765 388.506 264.936C388.079 265.107 387.589 265.192 387.034 265.192C386.117 265.192 385.381 264.973 384.826 264.536C384.271 264.088 383.994 263.464 383.994 262.664C383.994 261.939 384.25 261.379 384.762 260.984C385.285 260.579 386.111 260.28 387.242 260.088L389.61 259.672V259.24C389.61 258.877 389.498 258.605 389.274 258.424C389.05 258.232 388.682 258.136 388.17 258.136C387.701 258.136 387.317 258.243 387.018 258.456C386.719 258.659 386.565 258.957 386.554 259.352H384.394C384.405 258.413 384.757 257.704 385.45 257.224C386.154 256.733 387.055 256.488 388.154 256.488C389.338 256.488 390.229 256.707 390.826 257.144C391.434 257.581 391.738 258.195 391.738 258.984V265H389.674V264.072ZM386.218 262.584C386.218 262.904 386.33 263.16 386.554 263.352C386.789 263.533 387.13 263.624 387.578 263.624C388.143 263.624 388.623 263.469 389.018 263.16C389.413 262.851 389.61 262.392 389.61 261.784V261.08L387.658 261.48C387.157 261.576 386.789 261.704 386.554 261.864C386.33 262.013 386.218 262.253 386.218 262.584ZM393.512 256.68H395.624V258.2C396.125 257.123 396.952 256.584 398.104 256.584H398.776V258.584H398.008C397.25 258.584 396.674 258.776 396.28 259.16C395.885 259.533 395.688 260.173 395.688 261.08V265H393.512V256.68ZM408.566 265.192C407.008 265.192 405.867 264.664 405.142 263.608C404.416 262.541 404.054 261.085 404.054 259.24C404.054 257.395 404.416 255.944 405.142 254.888C405.867 253.821 407.008 253.288 408.566 253.288C410.123 253.288 411.264 253.821 411.99 254.888C412.715 255.944 413.078 257.395 413.078 259.24C413.078 261.085 412.715 262.541 411.99 263.608C411.264 264.664 410.123 265.192 408.566 265.192ZM406.486 259.24C406.486 260.541 406.64 261.533 406.95 262.216C407.259 262.888 407.798 263.224 408.566 263.224C409.334 263.224 409.872 262.888 410.182 262.216C410.491 261.533 410.646 260.541 410.646 259.24C410.646 257.939 410.491 256.952 410.182 256.28C409.872 255.597 409.334 255.256 408.566 255.256C407.798 255.256 407.259 255.597 406.95 256.28C406.64 256.952 406.486 257.939 406.486 259.24ZM419.006 265.192C417.619 265.192 416.558 264.867 415.822 264.216C415.096 263.555 414.723 262.621 414.702 261.416H416.958C416.979 262.035 417.155 262.504 417.486 262.824C417.827 263.144 418.323 263.304 418.974 263.304C419.571 263.304 420.046 263.155 420.398 262.856C420.75 262.547 420.926 262.131 420.926 261.608C420.926 261 420.734 260.579 420.35 260.344C419.966 260.099 419.4 259.976 418.654 259.976H417.71V258.248H418.478C419.918 258.248 420.638 257.72 420.638 256.664C420.638 256.195 420.478 255.832 420.158 255.576C419.848 255.309 419.432 255.176 418.91 255.176C417.736 255.176 417.139 255.779 417.118 256.984H414.862C414.883 255.8 415.235 254.888 415.918 254.248C416.6 253.608 417.608 253.288 418.942 253.288C419.774 253.288 420.488 253.437 421.086 253.736C421.683 254.024 422.136 254.413 422.446 254.904C422.766 255.384 422.926 255.912 422.926 256.488C422.926 257.011 422.787 257.496 422.51 257.944C422.243 258.392 421.822 258.739 421.246 258.984C421.907 259.208 422.403 259.56 422.734 260.04C423.064 260.509 423.23 261.064 423.23 261.704C423.23 262.376 423.064 262.979 422.734 263.512C422.403 264.035 421.918 264.445 421.278 264.744C420.638 265.043 419.88 265.192 419.006 265.192Z" fill="#161616"/>
<path d="M688.984 260.52L684.52 253.48H687.208L690.152 258.376L693.096 253.48H695.688L691.32 260.488V265H688.984V260.52ZM700.789 265.192C699.925 265.192 699.179 265.005 698.549 264.632C697.92 264.259 697.44 263.741 697.109 263.08C696.779 262.419 696.613 261.672 696.613 260.84C696.613 260.008 696.779 259.261 697.109 258.6C697.44 257.939 697.92 257.421 698.549 257.048C699.179 256.675 699.925 256.488 700.789 256.488C701.653 256.488 702.395 256.675 703.013 257.048C703.643 257.421 704.123 257.949 704.453 258.632C704.784 259.315 704.949 260.115 704.949 261.032V261.512H698.757C698.843 262.141 699.061 262.632 699.413 262.984C699.765 263.336 700.224 263.512 700.789 263.512C701.707 263.512 702.341 263.155 702.693 262.44H704.805C704.528 263.283 704.037 263.955 703.333 264.456C702.629 264.947 701.781 265.192 700.789 265.192ZM702.773 260.008C702.667 259.432 702.443 258.984 702.101 258.664C701.76 258.333 701.323 258.168 700.789 258.168C700.245 258.168 699.803 258.333 699.461 258.664C699.12 258.984 698.896 259.432 698.789 260.008H702.773ZM711.83 264.072C711.478 264.477 711.089 264.765 710.662 264.936C710.236 265.107 709.745 265.192 709.19 265.192C708.273 265.192 707.537 264.973 706.982 264.536C706.428 264.088 706.15 263.464 706.15 262.664C706.15 261.939 706.406 261.379 706.918 260.984C707.441 260.579 708.268 260.28 709.398 260.088L711.766 259.672V259.24C711.766 258.877 711.654 258.605 711.43 258.424C711.206 258.232 710.838 258.136 710.326 258.136C709.857 258.136 709.473 258.243 709.174 258.456C708.876 258.659 708.721 258.957 708.71 259.352H706.55C706.561 258.413 706.913 257.704 707.606 257.224C708.31 256.733 709.212 256.488 710.31 256.488C711.494 256.488 712.385 256.707 712.982 257.144C713.59 257.581 713.894 258.195 713.894 258.984V265H711.83V264.072ZM708.374 262.584C708.374 262.904 708.486 263.16 708.71 263.352C708.945 263.533 709.286 263.624 709.734 263.624C710.3 263.624 710.78 263.469 711.174 263.16C711.569 262.851 711.766 262.392 711.766 261.784V261.08L709.814 261.48C709.313 261.576 708.945 261.704 708.71 261.864C708.486 262.013 708.374 262.253 708.374 262.584ZM715.668 256.68H717.78V258.2C718.281 257.123 719.108 256.584 720.26 256.584H720.932V258.584H720.164C719.407 258.584 718.831 258.776 718.436 259.16C718.041 259.533 717.844 260.173 717.844 261.08V265H715.668V256.68ZM730.722 265.192C729.165 265.192 728.023 264.664 727.298 263.608C726.573 262.541 726.21 261.085 726.21 259.24C726.21 257.395 726.573 255.944 727.298 254.888C728.023 253.821 729.165 253.288 730.722 253.288C732.279 253.288 733.421 253.821 734.146 254.888C734.871 255.944 735.234 257.395 735.234 259.24C735.234 261.085 734.871 262.541 734.146 263.608C733.421 264.664 732.279 265.192 730.722 265.192ZM728.642 259.24C728.642 260.541 728.797 261.533 729.106 262.216C729.415 262.888 729.954 263.224 730.722 263.224C731.49 263.224 732.029 262.888 732.338 262.216C732.647 261.533 732.802 260.541 732.802 259.24C732.802 257.939 732.647 256.952 732.338 256.28C732.029 255.597 731.49 255.256 730.722 255.256C729.954 255.256 729.415 255.597 729.106 256.28C728.797 256.952 728.642 257.939 728.642 259.24ZM740.938 265.192C739.764 265.192 738.815 264.883 738.09 264.264C737.364 263.645 736.943 262.813 736.826 261.768H739.05C739.114 262.237 739.311 262.616 739.642 262.904C739.972 263.181 740.404 263.32 740.938 263.32C741.524 263.32 741.994 263.123 742.346 262.728C742.708 262.333 742.89 261.821 742.89 261.192C742.89 260.563 742.714 260.056 742.362 259.672C742.01 259.277 741.535 259.08 740.938 259.08C740.127 259.08 739.535 259.448 739.162 260.184H737.002L737.994 253.48H744.586V255.448H739.802L739.418 257.976C739.93 257.581 740.57 257.384 741.338 257.384C742.159 257.384 742.852 257.56 743.418 257.912C743.994 258.253 744.42 258.712 744.698 259.288C744.986 259.864 745.13 260.499 745.13 261.192C745.13 261.981 744.948 262.68 744.586 263.288C744.234 263.896 743.738 264.365 743.098 264.696C742.468 265.027 741.748 265.192 740.938 265.192Z" fill="#161616"/>
<path d="M836.78 271.52L832.316 264.48H835.004L837.948 269.376L840.892 264.48H843.484L839.116 271.488V276H836.78V271.52ZM848.586 276.192C847.722 276.192 846.976 276.005 846.346 275.632C845.717 275.259 845.237 274.741 844.906 274.08C844.576 273.419 844.41 272.672 844.41 271.84C844.41 271.008 844.576 270.261 844.906 269.6C845.237 268.939 845.717 268.421 846.346 268.048C846.976 267.675 847.722 267.488 848.586 267.488C849.45 267.488 850.192 267.675 850.81 268.048C851.44 268.421 851.92 268.949 852.25 269.632C852.581 270.315 852.746 271.115 852.746 272.032V272.512H846.554C846.64 273.141 846.858 273.632 847.21 273.984C847.562 274.336 848.021 274.512 848.586 274.512C849.504 274.512 850.138 274.155 850.49 273.44H852.602C852.325 274.283 851.834 274.955 851.13 275.456C850.426 275.947 849.578 276.192 848.586 276.192ZM850.57 271.008C850.464 270.432 850.24 269.984 849.898 269.664C849.557 269.333 849.12 269.168 848.586 269.168C848.042 269.168 847.6 269.333 847.258 269.664C846.917 269.984 846.693 270.432 846.586 271.008H850.57ZM859.627 275.072C859.275 275.477 858.886 275.765 858.459 275.936C858.033 276.107 857.542 276.192 856.987 276.192C856.07 276.192 855.334 275.973 854.779 275.536C854.225 275.088 853.947 274.464 853.947 273.664C853.947 272.939 854.203 272.379 854.715 271.984C855.238 271.579 856.065 271.28 857.195 271.088L859.563 270.672V270.24C859.563 269.877 859.451 269.605 859.227 269.424C859.003 269.232 858.635 269.136 858.123 269.136C857.654 269.136 857.27 269.243 856.971 269.456C856.673 269.659 856.518 269.957 856.507 270.352H854.347C854.358 269.413 854.71 268.704 855.403 268.224C856.107 267.733 857.009 267.488 858.107 267.488C859.291 267.488 860.182 267.707 860.779 268.144C861.387 268.581 861.691 269.195 861.691 269.984V276H859.627V275.072ZM856.171 273.584C856.171 273.904 856.283 274.16 856.507 274.352C856.742 274.533 857.083 274.624 857.531 274.624C858.097 274.624 858.577 274.469 858.971 274.16C859.366 273.851 859.563 273.392 859.563 272.784V272.08L857.611 272.48C857.11 272.576 856.742 272.704 856.507 272.864C856.283 273.013 856.171 273.253 856.171 273.584ZM863.465 267.68H865.577V269.2C866.078 268.123 866.905 267.584 868.057 267.584H868.729V269.584H867.961C867.203 269.584 866.627 269.776 866.233 270.16C865.838 270.533 865.641 271.173 865.641 272.08V276H863.465V267.68ZM878.519 276.192C876.962 276.192 875.82 275.664 875.095 274.608C874.37 273.541 874.007 272.085 874.007 270.24C874.007 268.395 874.37 266.944 875.095 265.888C875.82 264.821 876.962 264.288 878.519 264.288C880.076 264.288 881.218 264.821 881.943 265.888C882.668 266.944 883.031 268.395 883.031 270.24C883.031 272.085 882.668 273.541 881.943 274.608C881.218 275.664 880.076 276.192 878.519 276.192ZM876.439 270.24C876.439 271.541 876.594 272.533 876.903 273.216C877.212 273.888 877.751 274.224 878.519 274.224C879.287 274.224 879.826 273.888 880.135 273.216C880.444 272.533 880.599 271.541 880.599 270.24C880.599 268.939 880.444 267.952 880.135 267.28C879.826 266.597 879.287 266.256 878.519 266.256C877.751 266.256 877.212 266.597 876.903 267.28C876.594 267.952 876.439 268.939 876.439 270.24ZM889.087 276.192C888.564 276.192 888.095 276.123 887.679 275.984C887.273 275.845 886.889 275.637 886.527 275.36C885.876 274.88 885.407 274.224 885.119 273.392C884.831 272.549 884.687 271.557 884.687 270.416C884.687 268.464 885.065 266.955 885.823 265.888C886.58 264.821 887.668 264.288 889.087 264.288C890.111 264.288 890.975 264.581 891.679 265.168C892.393 265.744 892.825 266.539 892.975 267.552H890.815C890.719 267.083 890.516 266.72 890.207 266.464C889.897 266.208 889.529 266.08 889.103 266.08C887.663 266.08 886.905 267.248 886.831 269.584C887.471 268.805 888.324 268.416 889.391 268.416C890.233 268.416 890.937 268.587 891.503 268.928C892.079 269.269 892.505 269.728 892.783 270.304C893.06 270.88 893.199 271.515 893.199 272.208C893.199 272.997 893.028 273.696 892.687 274.304C892.356 274.901 891.881 275.365 891.263 275.696C890.644 276.027 889.919 276.192 889.087 276.192ZM887.183 272.24C887.183 272.859 887.348 273.365 887.679 273.76C888.009 274.144 888.479 274.336 889.087 274.336C889.684 274.336 890.148 274.144 890.479 273.76C890.82 273.365 890.991 272.859 890.991 272.24C890.991 271.632 890.82 271.136 890.479 270.752C890.148 270.357 889.684 270.16 889.087 270.16C888.479 270.16 888.009 270.352 887.679 270.736C887.348 271.12 887.183 271.621 887.183 272.24Z" fill="#161616"/>
<path d="M204.96 271.52L200.496 264.48H203.184L206.128 269.376L209.072 264.48H211.664L207.296 271.488V276H204.96V271.52ZM216.766 276.192C215.902 276.192 215.155 276.005 214.526 275.632C213.897 275.259 213.417 274.741 213.086 274.08C212.755 273.419 212.59 272.672 212.59 271.84C212.59 271.008 212.755 270.261 213.086 269.6C213.417 268.939 213.897 268.421 214.526 268.048C215.155 267.675 215.902 267.488 216.766 267.488C217.63 267.488 218.371 267.675 218.99 268.048C219.619 268.421 220.099 268.949 220.43 269.632C220.761 270.315 220.926 271.115 220.926 272.032V272.512H214.734C214.819 273.141 215.038 273.632 215.39 273.984C215.742 274.336 216.201 274.512 216.766 274.512C217.683 274.512 218.318 274.155 218.67 273.44H220.782C220.505 274.283 220.014 274.955 219.31 275.456C218.606 275.947 217.758 276.192 216.766 276.192ZM218.75 271.008C218.643 270.432 218.419 269.984 218.078 269.664C217.737 269.333 217.299 269.168 216.766 269.168C216.222 269.168 215.779 269.333 215.438 269.664C215.097 269.984 214.873 270.432 214.766 271.008H218.75ZM227.807 275.072C227.455 275.477 227.066 275.765 226.639 275.936C226.212 276.107 225.722 276.192 225.167 276.192C224.25 276.192 223.514 275.973 222.959 275.536C222.404 275.088 222.127 274.464 222.127 273.664C222.127 272.939 222.383 272.379 222.895 271.984C223.418 271.579 224.244 271.28 225.375 271.088L227.743 270.672V270.24C227.743 269.877 227.631 269.605 227.407 269.424C227.183 269.232 226.815 269.136 226.303 269.136C225.834 269.136 225.45 269.243 225.151 269.456C224.852 269.659 224.698 269.957 224.687 270.352H222.527C222.538 269.413 222.89 268.704 223.583 268.224C224.287 267.733 225.188 267.488 226.287 267.488C227.471 267.488 228.362 267.707 228.959 268.144C229.567 268.581 229.871 269.195 229.871 269.984V276H227.807V275.072ZM224.351 273.584C224.351 273.904 224.463 274.16 224.687 274.352C224.922 274.533 225.263 274.624 225.711 274.624C226.276 274.624 226.756 274.469 227.151 274.16C227.546 273.851 227.743 273.392 227.743 272.784V272.08L225.791 272.48C225.29 272.576 224.922 272.704 224.687 272.864C224.463 273.013 224.351 273.253 224.351 273.584ZM231.645 267.68H233.757V269.2C234.258 268.123 235.085 267.584 236.237 267.584H236.909V269.584H236.141C235.383 269.584 234.807 269.776 234.413 270.16C234.018 270.533 233.821 271.173 233.821 272.08V276H231.645V267.68ZM246.699 276.192C245.141 276.192 244 275.664 243.275 274.608C242.549 273.541 242.187 272.085 242.187 270.24C242.187 268.395 242.549 266.944 243.275 265.888C244 264.821 245.141 264.288 246.699 264.288C248.256 264.288 249.397 264.821 250.123 265.888C250.848 266.944 251.211 268.395 251.211 270.24C251.211 272.085 250.848 273.541 250.123 274.608C249.397 275.664 248.256 276.192 246.699 276.192ZM244.619 270.24C244.619 271.541 244.773 272.533 245.083 273.216C245.392 273.888 245.931 274.224 246.699 274.224C247.467 274.224 248.005 273.888 248.315 273.216C248.624 272.533 248.779 271.541 248.779 270.24C248.779 268.939 248.624 267.952 248.315 267.28C248.005 266.597 247.467 266.256 246.699 266.256C245.931 266.256 245.392 266.597 245.083 267.28C244.773 267.952 244.619 268.939 244.619 270.24ZM252.818 274.128L257.442 270C257.826 269.648 258.125 269.291 258.338 268.928C258.552 268.555 258.658 268.155 258.658 267.728C258.658 267.269 258.504 266.912 258.194 266.656C257.885 266.389 257.469 266.256 256.946 266.256C256.36 266.256 255.896 266.427 255.554 266.768C255.224 267.099 255.064 267.589 255.074 268.24H252.818C252.818 266.981 253.176 266.011 253.89 265.328C254.605 264.635 255.624 264.288 256.946 264.288C257.725 264.288 258.413 264.432 259.01 264.72C259.618 265.008 260.088 265.403 260.418 265.904C260.76 266.405 260.93 266.976 260.93 267.616C260.93 268.32 260.744 268.971 260.37 269.568C260.008 270.165 259.528 270.736 258.93 271.28L255.874 274.032H261.058V276H252.818V274.128Z" fill="#161616"/>
<path d="M523.96 271.52L519.496 264.48H522.184L525.128 269.376L528.072 264.48H530.664L526.296 271.488V276H523.96V271.52ZM535.766 276.192C534.902 276.192 534.155 276.005 533.526 275.632C532.897 275.259 532.417 274.741 532.086 274.08C531.755 273.419 531.59 272.672 531.59 271.84C531.59 271.008 531.755 270.261 532.086 269.6C532.417 268.939 532.897 268.421 533.526 268.048C534.155 267.675 534.902 267.488 535.766 267.488C536.63 267.488 537.371 267.675 537.99 268.048C538.619 268.421 539.099 268.949 539.43 269.632C539.761 270.315 539.926 271.115 539.926 272.032V272.512H533.734C533.819 273.141 534.038 273.632 534.39 273.984C534.742 274.336 535.201 274.512 535.766 274.512C536.683 274.512 537.318 274.155 537.67 273.44H539.782C539.505 274.283 539.014 274.955 538.31 275.456C537.606 275.947 536.758 276.192 535.766 276.192ZM537.75 271.008C537.643 270.432 537.419 269.984 537.078 269.664C536.737 269.333 536.299 269.168 535.766 269.168C535.222 269.168 534.779 269.333 534.438 269.664C534.097 269.984 533.873 270.432 533.766 271.008H537.75ZM546.807 275.072C546.455 275.477 546.066 275.765 545.639 275.936C545.212 276.107 544.722 276.192 544.167 276.192C543.25 276.192 542.514 275.973 541.959 275.536C541.404 275.088 541.127 274.464 541.127 273.664C541.127 272.939 541.383 272.379 541.895 271.984C542.418 271.579 543.244 271.28 544.375 271.088L546.743 270.672V270.24C546.743 269.877 546.631 269.605 546.407 269.424C546.183 269.232 545.815 269.136 545.303 269.136C544.834 269.136 544.45 269.243 544.151 269.456C543.852 269.659 543.698 269.957 543.687 270.352H541.527C541.538 269.413 541.89 268.704 542.583 268.224C543.287 267.733 544.188 267.488 545.287 267.488C546.471 267.488 547.362 267.707 547.959 268.144C548.567 268.581 548.871 269.195 548.871 269.984V276H546.807V275.072ZM543.351 273.584C543.351 273.904 543.463 274.16 543.687 274.352C543.922 274.533 544.263 274.624 544.711 274.624C545.276 274.624 545.756 274.469 546.151 274.16C546.546 273.851 546.743 273.392 546.743 272.784V272.08L544.791 272.48C544.29 272.576 543.922 272.704 543.687 272.864C543.463 273.013 543.351 273.253 543.351 273.584ZM550.645 267.68H552.757V269.2C553.258 268.123 554.085 267.584 555.237 267.584H555.909V269.584H555.141C554.383 269.584 553.807 269.776 553.413 270.16C553.018 270.533 552.821 271.173 552.821 272.08V276H550.645V267.68ZM565.699 276.192C564.141 276.192 563 275.664 562.275 274.608C561.549 273.541 561.187 272.085 561.187 270.24C561.187 268.395 561.549 266.944 562.275 265.888C563 264.821 564.141 264.288 565.699 264.288C567.256 264.288 568.397 264.821 569.123 265.888C569.848 266.944 570.211 268.395 570.211 270.24C570.211 272.085 569.848 273.541 569.123 274.608C568.397 275.664 567.256 276.192 565.699 276.192ZM563.619 270.24C563.619 271.541 563.773 272.533 564.083 273.216C564.392 273.888 564.931 274.224 565.699 274.224C566.467 274.224 567.005 273.888 567.315 273.216C567.624 272.533 567.779 271.541 567.779 270.24C567.779 268.939 567.624 267.952 567.315 267.28C567.005 266.597 566.467 266.256 565.699 266.256C564.931 266.256 564.392 266.597 564.083 267.28C563.773 267.952 563.619 268.939 563.619 270.24ZM571.722 271.472L577.098 264.48H579.642V271.664H581.194V273.632H579.642V276H577.306V273.632H571.722V271.472ZM577.354 271.664V266.928L573.786 271.664H577.354Z" fill="#161616"/>
<path d="M58.0383 260.52L53.5743 253.48H56.2623L59.2063 258.376L62.1503 253.48H64.7423L60.3743 260.488V265H58.0383V260.52ZM69.8441 265.192C68.9801 265.192 68.2335 265.005 67.6041 264.632C66.9748 264.259 66.4948 263.741 66.1641 263.08C65.8335 262.419 65.6681 261.672 65.6681 260.84C65.6681 260.008 65.8335 259.261 66.1641 258.6C66.4948 257.939 66.9748 257.421 67.6041 257.048C68.2335 256.675 68.9801 256.488 69.8441 256.488C70.7081 256.488 71.4495 256.675 72.0681 257.048C72.6975 257.421 73.1775 257.949 73.5081 258.632C73.8388 259.315 74.0041 260.115 74.0041 261.032V261.512H67.8121C67.8975 262.141 68.1161 262.632 68.4681 262.984C68.8201 263.336 69.2788 263.512 69.8441 263.512C70.7615 263.512 71.3961 263.155 71.7481 262.44H73.8601C73.5828 263.283 73.0921 263.955 72.3881 264.456C71.6841 264.947 70.8361 265.192 69.8441 265.192ZM71.8281 260.008C71.7215 259.432 71.4975 258.984 71.1561 258.664C70.8148 258.333 70.3775 258.168 69.8441 258.168C69.3001 258.168 68.8575 258.333 68.5161 258.664C68.1748 258.984 67.9508 259.432 67.8441 260.008H71.8281ZM80.885 264.072C80.533 264.477 80.1437 264.765 79.717 264.936C79.2903 265.107 78.7997 265.192 78.245 265.192C77.3277 265.192 76.5917 264.973 76.037 264.536C75.4823 264.088 75.205 263.464 75.205 262.664C75.205 261.939 75.461 261.379 75.973 260.984C76.4957 260.579 77.3223 260.28 78.453 260.088L80.821 259.672V259.24C80.821 258.877 80.709 258.605 80.485 258.424C80.261 258.232 79.893 258.136 79.381 258.136C78.9117 258.136 78.5277 258.243 78.229 258.456C77.9303 258.659 77.7757 258.957 77.765 259.352H75.605C75.6157 258.413 75.9677 257.704 76.661 257.224C77.365 256.733 78.2663 256.488 79.365 256.488C80.549 256.488 81.4397 256.707 82.037 257.144C82.645 257.581 82.949 258.195 82.949 258.984V265H80.885V264.072ZM77.429 262.584C77.429 262.904 77.541 263.16 77.765 263.352C77.9997 263.533 78.341 263.624 78.789 263.624C79.3543 263.624 79.8343 263.469 80.229 263.16C80.6237 262.851 80.821 262.392 80.821 261.784V261.08L78.869 261.48C78.3677 261.576 77.9997 261.704 77.765 261.864C77.541 262.013 77.429 262.253 77.429 262.584ZM84.7226 256.68H86.8346V258.2C87.336 257.123 88.1626 256.584 89.3146 256.584H89.9866V258.584H89.2186C88.4613 258.584 87.8853 258.776 87.4906 259.16C87.096 259.533 86.8986 260.173 86.8986 261.08V265H84.7226V256.68ZM99.7767 265.192C98.2194 265.192 97.0781 264.664 96.3527 263.608C95.6274 262.541 95.2647 261.085 95.2647 259.24C95.2647 257.395 95.6274 255.944 96.3527 254.888C97.0781 253.821 98.2194 253.288 99.7767 253.288C101.334 253.288 102.475 253.821 103.201 254.888C103.926 255.944 104.289 257.395 104.289 259.24C104.289 261.085 103.926 262.541 103.201 263.608C102.475 264.664 101.334 265.192 99.7767 265.192ZM97.6967 259.24C97.6967 260.541 97.8514 261.533 98.1607 262.216C98.4701 262.888 99.0087 263.224 99.7767 263.224C100.545 263.224 101.083 262.888 101.393 262.216C101.702 261.533 101.857 260.541 101.857 259.24C101.857 257.939 101.702 256.952 101.393 256.28C101.083 255.597 100.545 255.256 99.7767 255.256C99.0087 255.256 98.4701 255.597 98.1607 256.28C97.8514 256.952 97.6967 257.939 97.6967 259.24ZM108.264 255.976L105.832 257.688V255.272L108.408 253.48H110.6V265H108.264V255.976Z" fill="#161616"/>
</g>
<defs>
<linearGradient id="paint0_linear_1342_1021" x1="0.00732422" y1="266" x2="944.986" y2="266" gradientUnits="userSpaceOnUse">
<stop stop-color="#69CADD"/>
<stop offset="1" stop-color="#8FD3FE"/>
</linearGradient>
<clipPath id="clip0_1342_1021">
<rect width="945" height="158" fill="white" transform="translate(0 187)"/>
</clipPath>
</defs>
</svg>
