<svg width="16" height="12" viewBox="0 0 16 12" fill="none" xmlns="http://www.w3.org/2000/svg">
<path d="M0 5.2336C0.0623725 5.23675 0.124745 5.24304 0.186699 5.24304C4.3803 5.24344 8.57349 5.24344 12.7671 5.24344C12.827 5.24344 12.8872 5.24344 12.9777 5.24344C11.4703 3.82431 9.98838 2.42918 8.51698 1.04428C8.90126 0.681635 9.26838 0.335508 9.6242 0C11.7457 1.99692 13.8777 4.00446 16 6.00216C13.8831 7.99515 11.7536 9.99994 9.62922 12C9.28303 11.6657 8.92052 11.3156 8.54879 10.9565C9.99969 9.59048 11.4836 8.19339 12.968 6.79629C12.9609 6.78331 12.9538 6.77033 12.9471 6.75735C12.8923 6.75735 12.8374 6.75735 12.7826 6.75735C8.57851 6.75735 4.37486 6.75735 0.170792 6.75774C0.113861 6.75774 0.0569306 6.76404 0.000418607 6.76718C0.000418607 6.25586 0.000418607 5.74453 0.000418607 5.23321L0 5.2336Z" fill="#D5E1E8"/>
</svg>
