<svg width="36" height="36" viewBox="0 0 36 36" fill="none" xmlns="http://www.w3.org/2000/svg">
<rect width="36" height="36" fill="url(#paint0_linear_2286_2102)"/>
<path d="M10 17.3613C10.0507 17.364 10.1014 17.3692 10.1517 17.3692C13.559 17.3695 19.966 17.3695 23.3733 17.3695C23.4219 17.3695 23.4709 17.3695 23.5443 17.3695C22.3196 16.1869 21.1156 15.0243 19.92 13.8702C20.2323 13.568 20.5306 13.2796 20.8197 13C22.5434 14.6641 24.2756 16.337 26 18.0018C24.28 19.6626 22.5498 21.3333 20.8237 23C20.5425 22.7214 20.2479 22.4297 19.9459 22.1304C21.1247 20.9921 22.3305 19.8278 23.5365 18.6636C23.5307 18.6528 23.525 18.6419 23.5195 18.6311C23.475 18.6311 23.4304 18.6311 23.3859 18.6311C19.97 18.6311 13.5546 18.6311 10.1388 18.6315C10.0925 18.6315 10.0463 18.6367 10.0003 18.6393C10.0003 18.2132 10 17.7874 10 17.3613Z" fill="white"/>
<defs>
<linearGradient id="paint0_linear_2286_2102" x1="6.75" y1="18" x2="36" y2="18" gradientUnits="userSpaceOnUse">
<stop stop-color="#003E63"/>
<stop offset="1" stop-color="#0D669C"/>
</linearGradient>
</defs>
</svg>
