<svg width="25" height="20" viewBox="0 0 25 20" fill="none" xmlns="http://www.w3.org/2000/svg">
<path d="M24.468 2.41239C23.8699 3.34245 23.1163 4.11357 22.2479 4.77015C22.0761 4.90004 22.0236 5.025 22.0404 5.24587C22.1222 6.30801 22.0025 7.35865 21.7814 8.39558C20.9699 12.2019 19.0591 15.2968 15.8963 17.5504C13.8278 19.0241 11.5015 19.7794 8.98392 19.9602C6.41001 20.1449 3.95691 19.6884 1.63438 18.5468C1.17605 18.3215 0.736137 18.0574 0.297852 17.7811C1.597 17.8705 2.86255 17.7313 4.10535 17.3904C5.34707 17.05 6.52324 16.5622 7.60513 15.7297C6.2361 15.6459 5.10165 15.1439 4.14978 14.2291C3.543 13.646 3.09768 12.9555 2.82625 12.1164C3.59501 12.2633 4.33723 12.2353 5.12387 12.0314C2.65777 11.2948 1.2909 9.70709 1.13271 7.05667C1.86138 7.44031 2.5868 7.60528 3.42165 7.64145C2.33596 6.83909 1.63059 5.84435 1.33695 4.57175C1.04007 3.28491 1.26923 2.08684 1.91501 0.923855C4.61732 4.14646 8.02067 5.90628 12.1066 6.20114C12.099 5.5917 12.0384 5.00691 12.0947 4.43309C12.3022 2.3099 14.0337 0.462935 16.114 0.0924456C17.8336 -0.213921 19.3229 0.24097 20.5879 1.46041C20.6508 1.52124 20.7835 1.55358 20.8713 1.53549C21.8101 1.34641 22.6829 0.977017 23.5188 0.511713C23.599 0.46732 23.6787 0.422927 23.8211 0.344006C23.4137 1.54591 22.7127 2.42719 21.6628 3.11501C22.6759 2.99279 23.5822 2.75767 24.468 2.41129V2.41239ZM10.373 13.8619C10.1427 15.733 9.32144 17.1837 7.60243 18.0409C7.65931 18.0689 7.68857 18.0749 7.71782 18.0754C10.0571 18.1023 12.2583 17.58 14.2628 16.3348C16.7024 14.82 18.3662 12.654 19.3657 9.9592C19.9698 8.33036 20.2992 6.64452 20.1171 4.89785C19.9205 3.01635 18.4951 1.67196 16.5637 1.96134C14.9525 2.20303 13.733 3.82036 13.9893 5.45194C14.0537 5.86189 14.1615 6.26526 14.2526 6.67083C14.3669 7.18053 14.485 7.68968 14.6117 8.24322C13.3641 8.16704 12.1494 8.14786 10.9489 8.00755C8.38202 7.70667 6.02969 6.78812 3.88865 5.32095C3.82906 5.27985 3.76513 5.24477 3.70337 5.20641C4.47538 6.33377 5.48035 7.18272 6.67276 7.84313C6.07683 8.68331 5.27231 9.20507 4.30906 9.61173C5.75989 10.459 7.28983 10.7775 8.90699 10.8394C8.62473 12.1158 7.89498 13.0283 6.72586 13.6126C7.91556 14.0812 9.13669 13.9326 10.3735 13.8614L10.373 13.8619Z" fill="#ADE1FF"/>
</svg>
