<svg width="25" height="20" viewBox="0 0 25 20" fill="none" xmlns="http://www.w3.org/2000/svg">
<path d="M24.4685 2.41239C23.8704 3.34245 23.1168 4.11357 22.2484 4.77015C22.0766 4.90004 22.0241 5.025 22.0409 5.24587C22.1227 6.30801 22.0029 7.35865 21.7819 8.39558C20.9703 12.2019 19.0596 15.2968 15.8967 17.5504C13.8283 19.0241 11.502 19.7794 8.98441 19.9602C6.4105 20.1449 3.9574 19.6884 1.63487 18.5468C1.17654 18.3215 0.736625 18.0574 0.29834 17.7811C1.59748 17.8705 2.86304 17.7313 4.10584 17.3904C5.34756 17.05 6.52372 16.5622 7.60562 15.7297C6.23659 15.6459 5.10214 15.1439 4.15027 14.2291C3.54349 13.646 3.09816 12.9555 2.82674 12.1164C3.5955 12.2633 4.33772 12.2353 5.12435 12.0314C2.65825 11.2948 1.29139 9.70709 1.13319 7.05667C1.86186 7.44031 2.58728 7.60528 3.42214 7.64145C2.33645 6.83909 1.63107 5.84435 1.33744 4.57175C1.04055 3.28491 1.26972 2.08684 1.9155 0.923855C4.61781 4.14646 8.02115 5.90628 12.1071 6.20114C12.0995 5.5917 12.0389 5.00691 12.0952 4.43309C12.3027 2.3099 14.0342 0.462935 16.1145 0.0924456C17.8341 -0.213921 19.3234 0.24097 20.5884 1.46041C20.6512 1.52124 20.784 1.55358 20.8717 1.53549C21.8106 1.34641 22.6834 0.977017 23.5193 0.511713C23.5995 0.46732 23.6792 0.422927 23.8216 0.344006C23.4142 1.54591 22.7132 2.42719 21.6633 3.11501C22.6764 2.99279 23.5827 2.75767 24.4685 2.41129V2.41239ZM10.3735 13.8619C10.1432 15.733 9.32193 17.1837 7.60291 18.0409C7.6598 18.0689 7.68905 18.0749 7.71831 18.0754C10.0576 18.1023 12.2588 17.58 14.2633 16.3348C16.7029 14.82 18.3666 12.654 19.3662 9.9592C19.9703 8.33036 20.2996 6.64452 20.1176 4.89785C19.921 3.01635 18.4956 1.67196 16.5642 1.96134C14.953 2.20303 13.7335 3.82036 13.9897 5.45194C14.0542 5.86189 14.162 6.26526 14.253 6.67083C14.3674 7.18053 14.4855 7.68968 14.6122 8.24322C13.3646 8.16704 12.1499 8.14786 10.9494 8.00755C8.38251 7.70667 6.03018 6.78812 3.88914 5.32095C3.82954 5.27985 3.76562 5.24477 3.70385 5.20641C4.47586 6.33377 5.48083 7.18272 6.67325 7.84313C6.07731 8.68331 5.2728 9.20507 4.30954 9.61173C5.76038 10.459 7.29032 10.7775 8.90748 10.8394C8.62522 12.1158 7.89547 13.0283 6.72634 13.6126C7.91605 14.0812 9.13718 13.9326 10.374 13.8614L10.3735 13.8619Z" fill="#003E63"/>
</svg>
