<svg width="15" height="15" viewBox="0 0 15 15" fill="none" xmlns="http://www.w3.org/2000/svg">
<path d="M0.449104 13.4491C0.504802 13.3988 0.563175 13.3511 0.615843 13.2984C4.18118 9.73375 7.74582 6.16911 11.3108 2.60411C11.3617 2.55322 11.4129 2.50198 11.4898 2.42511C9.00196 2.50016 6.55622 2.5739 4.12806 2.64743C4.14645 2.01247 4.1643 1.40613 4.18156 0.818438C7.68265 0.71253 11.2017 0.606755 14.7041 0.500804C14.5988 3.99463 14.4928 7.50916 14.3871 11.0154C13.8086 11.0255 13.2028 11.0361 12.5815 11.0468C12.6537 8.65213 12.7275 6.20294 12.8017 3.75338C12.7846 3.7484 12.7675 3.74341 12.7508 3.73807C12.7042 3.78469 12.6576 3.83131 12.611 3.87793C9.03707 7.45182 5.46353 11.0254 1.88997 14.5996C1.84157 14.648 1.79853 14.7017 1.75316 14.7525C1.31848 14.3178 0.883805 13.8831 0.449126 13.4484L0.449104 13.4491Z" fill="white"/>
</svg>
